SplineFontDB: 3.0
FontName: Asap-Bold
FullName: Asap-Bold
FamilyName: Asap
Weight: Bold
Copyright: Copyright (c) 2011-2013, Omnibus-Type (www.omnibus-type.com omnibus.type@gmail.com) with Reserved Font Name 'Asap'

StartChar: .notdef
Encoding: 65536 -1 0
Width: 514
Flags: MW
HStem: 0 50<87 427 87 507> 650 50<86 426 86 86>
VStem: 7 49<95 95 95 605> 456 51<95 605 605 605>
LayerCount: 2
Fore
SplineSet
7 700 m 1
 507 700 l 1
 507 0 l 1
 7 0 l 1
 7 700 l 1
426 650 m 1
 86 650 l 1
 257 395 l 1
 426 650 l 1
56 95 m 1
 227 350 l 1
 56 605 l 1
 56 95 l 1
456 95 m 1
 456 605 l 1
 287 350 l 1
 456 95 l 1
427 50 m 1
 256 305 l 1
 87 50 l 1
 427 50 l 1
EndSplineSet
EndChar

StartChar: A
Encoding: 65 65 1
Width: 613
Flags: MW
HStem: -2 21G 141 132<230 380 230 423 187 380> 682 20G<281 333 333 347.5>
VStem: 0 613<13 22.5>
LayerCount: 2
Fore
SplineSet
333 702 m 2
 362 702 384 697 390 681 c 2
 610 38 l 2
 612 31 613 25 613 20 c 0
 613 6 598 -2 563 -2 c 2
 519 -2 l 2
 490 -2 468 3 463 19 c 2
 423 141 l 1
 187 141 l 1
 147 19 l 2
 142 4 125 -2 101 -2 c 2
 61 -2 l 2
 19 -2 0 6 0 20 c 0
 0 25 2 31 4 38 c 2
 224 681 l 2
 230 697 252 702 281 702 c 2
 333 702 l 2
304 515 m 1
 300 494 297 472 289 451 c 2
 230 273 l 1
 380 273 l 1
 323 451 l 2
 316 472 312 494 308 515 c 1
 304 515 l 1
EndSplineSet
Substitution2: "Single Substitution lookup 21 subtable" ordfeminine
Substitution2: "'aalt' Access All Alternates lookup 0 subtable" ordfeminine
Position2: "'cpsp' Capital Spacing lookup 3 subtable" dx=5 dy=0 dh=10 dv=0
EndChar

StartChar: Aacute
Encoding: 193 193 2
Width: 613
Flags: MW
HStem: -2 21G 141 132<230 380 230 423 187 380> 682 20G<281 333 333 347.5> 752 159<256 407>
VStem: 0 613<13 22.5>
LayerCount: 2
Fore
SplineSet
387 911 m 0
 427 911 447 908 447 897 c 0
 447 885 440 883 343 777 c 0
 332 765 315 752 268 752 c 0
 244 752 237 756 237 767 c 0
 237 778 256 803 302 884 c 0
 314 905 347 911 387 911 c 0
333 702 m 2
 362 702 384 697 390 681 c 2
 610 38 l 2
 612 31 613 25 613 20 c 0
 613 6 598 -2 563 -2 c 2
 519 -2 l 2
 490 -2 468 3 463 19 c 2
 423 141 l 1
 187 141 l 1
 147 19 l 2
 142 4 125 -2 101 -2 c 2
 61 -2 l 2
 19 -2 0 6 0 20 c 0
 0 25 2 31 4 38 c 2
 224 681 l 2
 230 697 252 702 281 702 c 2
 333 702 l 2
304 515 m 1
 300 494 297 472 289 451 c 2
 230 273 l 1
 380 273 l 1
 323 451 l 2
 316 472 312 494 308 515 c 1
 304 515 l 1
EndSplineSet
Position2: "'cpsp' Capital Spacing lookup 3 subtable" dx=5 dy=0 dh=10 dv=0
EndChar

StartChar: Abreve
Encoding: 258 258 3
Width: 613
Flags: MW
HStem: -2 21G 141 132<230 380 230 423 187 380> 682 20G<281 333 333 347.5> 752 91<281.5 334 281.5 350.5>
VStem: 0 613<13 22.5>
LayerCount: 2
Fore
SplineSet
419 892 m 0
 441 892 454 882 454 864 c 0
 454 807 394 752 307 752 c 0
 220 752 160 807 160 864 c 0
 160 882 173 892 195 892 c 0
 212 892 219 884 228 874 c 0
 241 860 256 843 307 843 c 0
 361 843 375 862 388 876 c 0
 396 885 403 892 419 892 c 0
333 702 m 2
 362 702 384 697 390 681 c 2
 610 38 l 2
 612 31 613 25 613 20 c 0
 613 6 598 -2 563 -2 c 2
 519 -2 l 2
 490 -2 468 3 463 19 c 2
 423 141 l 1
 187 141 l 1
 147 19 l 2
 142 4 125 -2 101 -2 c 2
 61 -2 l 2
 19 -2 0 6 0 20 c 0
 0 25 2 31 4 38 c 2
 224 681 l 2
 230 697 252 702 281 702 c 2
 333 702 l 2
304 515 m 1
 300 494 297 472 289 451 c 2
 230 273 l 1
 380 273 l 1
 323 451 l 2
 316 472 312 494 308 515 c 1
 304 515 l 1
EndSplineSet
Position2: "'cpsp' Capital Spacing lookup 3 subtable" dx=5 dy=0 dh=10 dv=0
EndChar

StartChar: Abreveacute
Encoding: 7854 7854 4
Width: 613
Flags: MW
HStem: -2 21G 141 132<230 380 230 423 187 380> 682 20G<281 333 333 347.5> 752 81<281.5 334 281.5 350.5> 883 124<358.5 430>
VStem: 0 613<13 22.5>
LayerCount: 2
Fore
SplineSet
333 702 m 2
 362 702 384 697 390 681 c 2
 610 38 l 2
 612 31 613 25 613 20 c 0
 613 6 598 -2 563 -2 c 2
 519 -2 l 2
 490 -2 468 3 463 19 c 2
 423 141 l 1
 187 141 l 1
 147 19 l 2
 142 4 125 -2 101 -2 c 2
 61 -2 l 2
 19 -2 0 6 0 20 c 0
 0 25 2 31 4 38 c 2
 224 681 l 2
 230 697 252 702 281 702 c 2
 333 702 l 2
304 515 m 1
 300 494 297 472 289 451 c 2
 230 273 l 1
 380 273 l 1
 323 451 l 2
 316 472 312 494 308 515 c 1
 304 515 l 1
376 1007 m 0
 402 1007 416 1002 416 983 c 0
 416 973 403 957 342 883 c 1
 334 875 322 868 287 868 c 0
 271 868 266 872 266 883 c 0
 266 892 276 913 301 980 c 1
 312 1001 341 1007 376 1007 c 0
419 883 m 0
 441 883 454 873 454 855 c 0
 454 804 394 752 307 752 c 0
 220 752 160 804 160 855 c 0
 160 873 173 883 195 883 c 0
 212 883 219 875 228 865 c 0
 241 849 256 833 307 833 c 0
 361 833 375 850 388 867 c 0
 396 876 403 883 419 883 c 0
EndSplineSet
Position2: "'cpsp' Capital Spacing lookup 3 subtable" dx=5 dy=0 dh=10 dv=0
EndChar

StartChar: Abrevedotbelow
Encoding: 7862 7862 5
Width: 613
Flags: MW
HStem: -204 124<291 333> -2 21G 141 132<230 380 230 423 187 380> 682 20G<281 333 333 347.5> 752 91<281.5 334 281.5 350.5>
VStem: 252 120<-172 -112 -182.5 -101.5>
LayerCount: 2
Fore
SplineSet
333 702 m 2
 362 702 384 697 390 681 c 2
 610 38 l 2
 612 31 613 25 613 20 c 0
 613 6 598 -2 563 -2 c 2
 519 -2 l 2
 490 -2 468 3 463 19 c 2
 423 141 l 1
 187 141 l 1
 147 19 l 2
 142 4 125 -2 101 -2 c 2
 61 -2 l 2
 19 -2 0 6 0 20 c 0
 0 25 2 31 4 38 c 2
 224 681 l 2
 230 697 252 702 281 702 c 2
 333 702 l 2
304 515 m 1
 300 494 297 472 289 451 c 2
 230 273 l 1
 380 273 l 1
 323 451 l 2
 316 472 312 494 308 515 c 1
 304 515 l 1
419 892 m 0
 441 892 454 882 454 864 c 0
 454 807 394 752 307 752 c 0
 220 752 160 807 160 864 c 0
 160 882 173 892 195 892 c 0
 212 892 219 884 228 874 c 0
 241 860 256 843 307 843 c 0
 361 843 375 862 388 876 c 0
 396 885 403 892 419 892 c 0
252 -112 m 2
 252 -91 270 -80 312 -80 c 0
 354 -80 372 -91 372 -112 c 2
 372 -172 l 2
 372 -193 354 -204 312 -204 c 0
 270 -204 252 -193 252 -172 c 2
 252 -112 l 2
EndSplineSet
Position2: "'cpsp' Capital Spacing lookup 3 subtable" dx=5 dy=0 dh=10 dv=0
EndChar

StartChar: Abrevegrave
Encoding: 7856 7856 6
Width: 613
Flags: MW
HStem: -2 21G 141 132<230 380 230 423 187 380> 682 20G<281 333 333 347.5> 752 81<281.5 334 281.5 350.5> 867 139<225 339>
VStem: 0 613<13 22.5>
LayerCount: 2
Fore
SplineSet
333 702 m 2
 362 702 384 697 390 681 c 2
 610 38 l 2
 612 31 613 25 613 20 c 0
 613 6 598 -2 563 -2 c 2
 519 -2 l 2
 490 -2 468 3 463 19 c 2
 423 141 l 1
 187 141 l 1
 147 19 l 2
 142 4 125 -2 101 -2 c 2
 61 -2 l 2
 19 -2 0 6 0 20 c 0
 0 25 2 31 4 38 c 2
 224 681 l 2
 230 697 252 702 281 702 c 2
 333 702 l 2
304 515 m 1
 300 494 297 472 289 451 c 2
 230 273 l 1
 380 273 l 1
 323 451 l 2
 316 472 312 494 308 515 c 1
 304 515 l 1
240 1006 m 0
 280 1006 316 1000 325 979 c 0
 351 914 358 891 358 882 c 0
 358 871 351 867 327 867 c 0
 289 867 275 880 265 892 c 0
 197 980 193 982 193 992 c 0
 193 1003 210 1006 240 1006 c 0
419 883 m 0
 441 883 454 873 454 855 c 0
 454 804 394 752 307 752 c 0
 220 752 160 804 160 855 c 0
 160 873 173 883 195 883 c 0
 212 883 219 875 228 865 c 0
 241 849 256 833 307 833 c 0
 361 833 375 850 388 867 c 0
 396 876 403 883 419 883 c 0
EndSplineSet
Position2: "'cpsp' Capital Spacing lookup 3 subtable" dx=5 dy=0 dh=10 dv=0
EndChar

StartChar: Abrevehookabove
Encoding: 7858 7858 7
Width: 613
Flags: MW
HStem: -2 21G 141 132<230 380 230 423 187 380> 682 20G<281 333 333 347.5> 752 81<281.5 334 281.5 350.5> 938 70<239 322>
VStem: 317 69<934 943.5>
LayerCount: 2
Fore
SplineSet
333 702 m 2
 362 702 384 697 390 681 c 2
 610 38 l 2
 612 31 613 25 613 20 c 0
 613 6 598 -2 563 -2 c 2
 519 -2 l 2
 490 -2 468 3 463 19 c 2
 423 141 l 1
 187 141 l 1
 147 19 l 2
 142 4 125 -2 101 -2 c 2
 61 -2 l 2
 19 -2 0 6 0 20 c 0
 0 25 2 31 4 38 c 2
 224 681 l 2
 230 697 252 702 281 702 c 2
 333 702 l 2
304 515 m 1
 300 494 297 472 289 451 c 2
 230 273 l 1
 380 273 l 1
 323 451 l 2
 316 472 312 494 308 515 c 1
 304 515 l 1
317 938 m 0
 317 949 306 955 296 955 c 0
 263 955 252 938 243 938 c 0
 235 938 213 965 213 980 c 0
 213 993 258 1008 293 1008 c 0
 351 1008 386 982 386 942 c 0
 386 926 380 911 360 895 c 0
 350 887 328 873 311 873 c 0
 284 873 267 883 267 894 c 0
 267 898 276 905 286 910 c 0
 305 919 317 924 317 938 c 0
419 883 m 0
 441 883 454 873 454 855 c 0
 454 804 394 752 307 752 c 0
 220 752 160 804 160 855 c 0
 160 873 173 883 195 883 c 0
 212 883 219 875 228 865 c 0
 241 849 256 833 307 833 c 0
 361 833 375 850 388 867 c 0
 396 876 403 883 419 883 c 0
EndSplineSet
Position2: "'cpsp' Capital Spacing lookup 3 subtable" dx=5 dy=0 dh=10 dv=0
EndChar

StartChar: Abrevetilde
Encoding: 7860 7860 8
Width: 613
Flags: MW
HStem: -2 21G 141 132<230 380 230 423 187 380> 682 20G<281 333 333 347.5> 752 81<281.5 334 281.5 350.5> 902 86<366.5 379.5> 929 86<244.5 259>
VStem: 0 613<13 22.5>
LayerCount: 2
Fore
SplineSet
333 702 m 2xf6
 362 702 384 697 390 681 c 2
 610 38 l 2
 612 31 613 25 613 20 c 0
 613 6 598 -2 563 -2 c 2
 519 -2 l 2
 490 -2 468 3 463 19 c 2
 423 141 l 1
 187 141 l 1
 147 19 l 2
 142 4 125 -2 101 -2 c 2
 61 -2 l 2
 19 -2 0 6 0 20 c 0
 0 25 2 31 4 38 c 2
 224 681 l 2
 230 697 252 702 281 702 c 2
 333 702 l 2xf6
304 515 m 1
 300 494 297 472 289 451 c 2
 230 273 l 1
 380 273 l 1
 323 451 l 2
 316 472 312 494 308 515 c 1
 304 515 l 1
424 1003 m 0xfa
 429 1007 436 1009 442 1009 c 0
 449 1009 457 1006 464 997 c 0
 469 990 472 984 472 977 c 0
 472 967 468 957 457 943 c 1
 434 918 398 902 361 902 c 0xfa
 329 902 312 910 295 918 c 0
 282 924 269 929 249 929 c 0
 229 929 216 922 203 915 c 0
 200 913 196 912 192 912 c 0
 183 912 173 918 165 929 c 0
 161 935 159 941 159 948 c 0
 159 957 163 966 170 974 c 1
 196 997 226 1015 263 1015 c 0xf6
 298 1015 317 1006 334 999 c 0
 347 993 358 988 375 988 c 0
 395 988 409 993 424 1003 c 0xfa
419 883 m 0xf6
 441 883 454 873 454 855 c 0
 454 804 394 752 307 752 c 0
 220 752 160 804 160 855 c 0
 160 873 173 883 195 883 c 0
 212 883 219 875 228 865 c 0
 241 849 256 833 307 833 c 0
 361 833 375 850 388 867 c 0
 396 876 403 883 419 883 c 0xf6
EndSplineSet
Position2: "'cpsp' Capital Spacing lookup 3 subtable" dx=5 dy=0 dh=10 dv=0
EndChar

StartChar: Acircumflex
Encoding: 194 194 9
Width: 613
Flags: MW
HStem: -2 21G 141 132<230 380 230 423 187 380> 682 20G<281 333 333 347.5> 749 146<183 313 190 313 302 403 302 425>
VStem: 0 613<13 22.5>
LayerCount: 2
Fore
SplineSet
313 895 m 2
 342 895 363 894 374 876 c 2
 439 774 l 2
 443 768 445 763 445 759 c 0
 445 752 438 749 425 749 c 2
 403 749 l 2
 374 749 348 754 335 773 c 2
 307 813 l 1
 279 774 l 2
 264 753 241 749 212 749 c 2
 190 749 l 2
 176 749 170 752 170 759 c 0
 170 763 172 768 176 774 c 2
 241 876 l 2
 252 894 273 895 302 895 c 2
 313 895 l 2
333 702 m 2
 362 702 384 697 390 681 c 2
 610 38 l 2
 612 31 613 25 613 20 c 0
 613 6 598 -2 563 -2 c 2
 519 -2 l 2
 490 -2 468 3 463 19 c 2
 423 141 l 1
 187 141 l 1
 147 19 l 2
 142 4 125 -2 101 -2 c 2
 61 -2 l 2
 19 -2 0 6 0 20 c 0
 0 25 2 31 4 38 c 2
 224 681 l 2
 230 697 252 702 281 702 c 2
 333 702 l 2
304 515 m 1
 300 494 297 472 289 451 c 2
 230 273 l 1
 380 273 l 1
 323 451 l 2
 316 472 312 494 308 515 c 1
 304 515 l 1
EndSplineSet
Position2: "'cpsp' Capital Spacing lookup 3 subtable" dx=5 dy=0 dh=10 dv=0
EndChar

StartChar: Acircumflexacute
Encoding: 7844 7844 10
Width: 613
Flags: MW
HStem: -2 21G 141 132<230 380 230 423 187 380> 682 20G<281 333 333 347.5> 840 55
VStem: 0 613<13 22.5>
LayerCount: 2
Fore
SplineSet
510 964 m 0
 536 964 550 959 550 940 c 0
 550 930 537 914 476 840 c 1
 468 832 456 825 421 825 c 0
 405 825 400 829 400 840 c 0
 400 849 410 870 435 937 c 1
 446 958 475 964 510 964 c 0
313 895 m 2
 337 895 354 894 364 876 c 2
 424 774 l 2
 428 768 430 763 430 759 c 0
 430 752 423 749 410 749 c 2
 388 749 l 2
 359 749 327 752 320 773 c 2
 307 813 l 1
 279 774 l 2
 264 753 241 749 212 749 c 2
 190 749 l 2
 176 749 170 752 170 759 c 0
 170 763 172 768 176 774 c 2
 241 876 l 2
 252 894 273 895 302 895 c 2
 313 895 l 2
333 702 m 2
 362 702 384 697 390 681 c 2
 610 38 l 2
 612 31 613 25 613 20 c 0
 613 6 598 -2 563 -2 c 2
 519 -2 l 2
 490 -2 468 3 463 19 c 2
 423 141 l 1
 187 141 l 1
 147 19 l 2
 142 4 125 -2 101 -2 c 2
 61 -2 l 2
 19 -2 0 6 0 20 c 0
 0 25 2 31 4 38 c 2
 224 681 l 2
 230 697 252 702 281 702 c 2
 333 702 l 2
304 515 m 1
 300 494 297 472 289 451 c 2
 230 273 l 1
 380 273 l 1
 323 451 l 2
 316 472 312 494 308 515 c 1
 304 515 l 1
EndSplineSet
Position2: "'cpsp' Capital Spacing lookup 3 subtable" dx=5 dy=0 dh=10 dv=0
EndChar

StartChar: Acircumflexdotbelow
Encoding: 7852 7852 11
Width: 613
Flags: MW
HStem: -204 124<291 333> -2 21G 141 132<230 380 230 423 187 380> 682 20G<281 333 333 347.5> 749 146<183 313 190 313 302 403 302 425>
VStem: 252 120<-172 -112 -182.5 -101.5>
LayerCount: 2
Fore
SplineSet
333 702 m 2
 362 702 384 697 390 681 c 2
 610 38 l 2
 612 31 613 25 613 20 c 0
 613 6 598 -2 563 -2 c 2
 519 -2 l 2
 490 -2 468 3 463 19 c 2
 423 141 l 1
 187 141 l 1
 147 19 l 2
 142 4 125 -2 101 -2 c 2
 61 -2 l 2
 19 -2 0 6 0 20 c 0
 0 25 2 31 4 38 c 2
 224 681 l 2
 230 697 252 702 281 702 c 2
 333 702 l 2
304 515 m 1
 300 494 297 472 289 451 c 2
 230 273 l 1
 380 273 l 1
 323 451 l 2
 316 472 312 494 308 515 c 1
 304 515 l 1
313 895 m 2
 342 895 363 894 374 876 c 2
 439 774 l 2
 443 768 445 763 445 759 c 0
 445 752 438 749 425 749 c 2
 403 749 l 2
 374 749 348 754 335 773 c 2
 307 813 l 1
 279 774 l 2
 264 753 241 749 212 749 c 2
 190 749 l 2
 176 749 170 752 170 759 c 0
 170 763 172 768 176 774 c 2
 241 876 l 2
 252 894 273 895 302 895 c 2
 313 895 l 2
252 -112 m 2
 252 -91 270 -80 312 -80 c 0
 354 -80 372 -91 372 -112 c 2
 372 -172 l 2
 372 -193 354 -204 312 -204 c 0
 270 -204 252 -193 252 -172 c 2
 252 -112 l 2
EndSplineSet
Position2: "'cpsp' Capital Spacing lookup 3 subtable" dx=5 dy=0 dh=10 dv=0
EndChar

StartChar: Acircumflexgrave
Encoding: 7846 7846 12
Width: 613
Flags: MW
HStem: -2 21G 141 132<230 380 230 423 187 380> 682 20G<281 333 333 347.5> 749 146<183 313 190 313 302 388 302 410> 824 139<359 473>
VStem: 0 613<13 22.5>
LayerCount: 2
Fore
SplineSet
333 702 m 2xec
 362 702 384 697 390 681 c 2
 610 38 l 2
 612 31 613 25 613 20 c 0
 613 6 598 -2 563 -2 c 2
 519 -2 l 2
 490 -2 468 3 463 19 c 2
 423 141 l 1
 187 141 l 1
 147 19 l 2
 142 4 125 -2 101 -2 c 2
 61 -2 l 2
 19 -2 0 6 0 20 c 0
 0 25 2 31 4 38 c 2
 224 681 l 2
 230 697 252 702 281 702 c 2
 333 702 l 2xec
304 515 m 1
 300 494 297 472 289 451 c 2
 230 273 l 1
 380 273 l 1
 323 451 l 2
 316 472 312 494 308 515 c 1
 304 515 l 1
374 963 m 0
 414 963 450 957 459 936 c 0
 485 871 492 848 492 839 c 0
 492 828 485 824 461 824 c 0
 423 824 409 837 399 849 c 0
 331 937 327 939 327 949 c 0
 327 960 344 963 374 963 c 0
313 895 m 2xf4
 337 895 354 894 364 876 c 2
 424 774 l 2
 428 768 430 763 430 759 c 0
 430 752 423 749 410 749 c 2
 388 749 l 2
 359 749 327 752 320 773 c 2
 307 813 l 1
 279 774 l 2
 264 753 241 749 212 749 c 2
 190 749 l 2
 176 749 170 752 170 759 c 0
 170 763 172 768 176 774 c 2
 241 876 l 2
 252 894 273 895 302 895 c 2
 313 895 l 2xf4
EndSplineSet
Position2: "'cpsp' Capital Spacing lookup 3 subtable" dx=5 dy=0 dh=10 dv=0
EndChar

StartChar: Acircumflexhookabove
Encoding: 7848 7848 13
Width: 613
Flags: MW
HStem: -2 21G 141 132<230 380 230 423 187 380> 682 20G<281 333 333 347.5> 749 146<183 313 190 313 373.5 381.5 302 388 302 410> 895 70<373 456>
VStem: 451 69<891 900.5>
LayerCount: 2
Fore
SplineSet
333 702 m 2xec
 362 702 384 697 390 681 c 2
 610 38 l 2
 612 31 613 25 613 20 c 0
 613 6 598 -2 563 -2 c 2
 519 -2 l 2
 490 -2 468 3 463 19 c 2
 423 141 l 1
 187 141 l 1
 147 19 l 2
 142 4 125 -2 101 -2 c 2
 61 -2 l 2
 19 -2 0 6 0 20 c 0
 0 25 2 31 4 38 c 2
 224 681 l 2
 230 697 252 702 281 702 c 2
 333 702 l 2xec
304 515 m 1
 300 494 297 472 289 451 c 2
 230 273 l 1
 380 273 l 1
 323 451 l 2
 316 472 312 494 308 515 c 1
 304 515 l 1
451 895 m 0
 451 906 440 912 430 912 c 0
 397 912 386 895 377 895 c 0
 369 895 347 922 347 937 c 0
 347 950 392 965 427 965 c 0
 485 965 520 939 520 899 c 0
 520 883 514 868 494 852 c 0
 484 844 462 830 445 830 c 0
 418 830 401 840 401 851 c 0
 401 855 410 862 420 867 c 0
 439 876 451 881 451 895 c 0
313 895 m 2xf4
 337 895 354 894 364 876 c 2
 424 774 l 2
 428 768 430 763 430 759 c 0
 430 752 423 749 410 749 c 2
 388 749 l 2
 359 749 327 752 320 773 c 2
 307 813 l 1
 279 774 l 2
 264 753 241 749 212 749 c 2
 190 749 l 2
 176 749 170 752 170 759 c 0
 170 763 172 768 176 774 c 2
 241 876 l 2
 252 894 273 895 302 895 c 2
 313 895 l 2xf4
EndSplineSet
Position2: "'cpsp' Capital Spacing lookup 3 subtable" dx=5 dy=0 dh=10 dv=0
EndChar

StartChar: Acircumflextilde
Encoding: 7850 7850 14
Width: 613
Flags: MW
HStem: -2 21G 141 132<230 380 230 423 187 380> 682 20G<281 333 333 347.5> 749 122<183 313 190 313 302 403 302 425> 902 86<362.5 375.5> 929 86<240.5 255>
VStem: 0 613<13 22.5>
LayerCount: 2
Fore
SplineSet
333 702 m 2xea
 362 702 384 697 390 681 c 2
 610 38 l 2
 612 31 613 25 613 20 c 0
 613 6 598 -2 563 -2 c 2
 519 -2 l 2
 490 -2 468 3 463 19 c 2
 423 141 l 1
 187 141 l 1
 147 19 l 2
 142 4 125 -2 101 -2 c 2
 61 -2 l 2
 19 -2 0 6 0 20 c 0
 0 25 2 31 4 38 c 2
 224 681 l 2
 230 697 252 702 281 702 c 2
 333 702 l 2xea
304 515 m 1
 300 494 297 472 289 451 c 2
 230 273 l 1
 380 273 l 1
 323 451 l 2
 316 472 312 494 308 515 c 1
 304 515 l 1
420 1003 m 0
 425 1007 432 1009 438 1009 c 0
 445 1009 453 1006 460 997 c 0
 465 990 468 984 468 977 c 0
 468 967 464 957 453 943 c 1
 430 918 394 902 357 902 c 0xea
 325 902 308 910 291 918 c 0
 278 924 265 929 245 929 c 0
 225 929 212 922 199 915 c 0
 196 913 192 912 188 912 c 0
 179 912 169 918 161 929 c 0
 157 935 155 941 155 948 c 0
 155 957 159 966 166 974 c 1
 192 997 222 1015 259 1015 c 0xe6
 294 1015 313 1006 330 999 c 0
 343 993 354 988 371 988 c 0
 391 988 405 993 420 1003 c 0
313 871 m 2xfa
 342 871 359 868 374 852 c 1
 439 774 l 2
 443 768 445 763 445 759 c 0
 445 752 438 749 425 749 c 2
 403 749 l 2
 374 749 356 760 335 773 c 1
 307 800 l 1
 279 774 l 1
 255 760 241 749 212 749 c 2
 190 749 l 2
 176 749 170 752 170 759 c 0
 170 763 172 768 176 774 c 2
 241 852 l 1
 256 868 273 871 302 871 c 2
 313 871 l 2xfa
EndSplineSet
Position2: "'cpsp' Capital Spacing lookup 3 subtable" dx=5 dy=0 dh=10 dv=0
EndChar

StartChar: Adieresis
Encoding: 196 196 15
Width: 613
Flags: MW
HStem: -2 21G 141 132<230 380 230 423 187 380> 682 20G<281 333 333 347.5> 755 124<196 238 376 418>
VStem: 157 120<787 847 776.5 857.5> 337 120<787 847 776.5 857.5>
LayerCount: 2
Fore
SplineSet
333 702 m 2
 362 702 384 697 390 681 c 2
 610 38 l 2
 612 31 613 25 613 20 c 0
 613 6 598 -2 563 -2 c 2
 519 -2 l 2
 490 -2 468 3 463 19 c 2
 423 141 l 1
 187 141 l 1
 147 19 l 2
 142 4 125 -2 101 -2 c 2
 61 -2 l 2
 19 -2 0 6 0 20 c 0
 0 25 2 31 4 38 c 2
 224 681 l 2
 230 697 252 702 281 702 c 2
 333 702 l 2
304 515 m 1
 300 494 297 472 289 451 c 2
 230 273 l 1
 380 273 l 1
 323 451 l 2
 316 472 312 494 308 515 c 1
 304 515 l 1
157 847 m 2
 157 868 175 879 217 879 c 0
 259 879 277 868 277 847 c 2
 277 787 l 2
 277 766 259 755 217 755 c 0
 175 755 157 766 157 787 c 2
 157 847 l 2
337 847 m 2
 337 868 355 879 397 879 c 0
 439 879 457 868 457 847 c 2
 457 787 l 2
 457 766 439 755 397 755 c 0
 355 755 337 766 337 787 c 2
 337 847 l 2
EndSplineSet
Position2: "'cpsp' Capital Spacing lookup 3 subtable" dx=5 dy=0 dh=10 dv=0
EndChar

StartChar: Adotbelow
Encoding: 7840 7840 16
Width: 613
Flags: MW
HStem: -204 124<291 333> -2 21G 141 132<230 380 230 423 187 380> 682 20G<281 333 333 347.5>
VStem: 252 120<-172 -112 -182.5 -101.5>
LayerCount: 2
Fore
SplineSet
333 702 m 2
 362 702 384 697 390 681 c 2
 610 38 l 2
 612 31 613 25 613 20 c 0
 613 6 598 -2 563 -2 c 2
 519 -2 l 2
 490 -2 468 3 463 19 c 2
 423 141 l 1
 187 141 l 1
 147 19 l 2
 142 4 125 -2 101 -2 c 2
 61 -2 l 2
 19 -2 0 6 0 20 c 0
 0 25 2 31 4 38 c 2
 224 681 l 2
 230 697 252 702 281 702 c 2
 333 702 l 2
304 515 m 1
 300 494 297 472 289 451 c 2
 230 273 l 1
 380 273 l 1
 323 451 l 2
 316 472 312 494 308 515 c 1
 304 515 l 1
252 -112 m 2
 252 -91 270 -80 312 -80 c 0
 354 -80 372 -91 372 -112 c 2
 372 -172 l 2
 372 -193 354 -204 312 -204 c 0
 270 -204 252 -193 252 -172 c 2
 252 -112 l 2
EndSplineSet
Position2: "'cpsp' Capital Spacing lookup 3 subtable" dx=5 dy=0 dh=10 dv=0
EndChar

StartChar: Agrave
Encoding: 192 192 17
Width: 613
Flags: MW
HStem: -2 21G 141 132<230 380 230 423 187 380> 682 20G<281 333 333 347.5> 752 159<213 364>
VStem: 0 613<13 22.5>
LayerCount: 2
Fore
SplineSet
233 911 m 0
 273 911 306 905 318 884 c 0
 364 803 383 778 383 767 c 0
 383 756 376 752 352 752 c 0
 305 752 288 765 277 777 c 0
 180 883 173 885 173 897 c 0
 173 908 193 911 233 911 c 0
333 702 m 2
 362 702 384 697 390 681 c 2
 610 38 l 2
 612 31 613 25 613 20 c 0
 613 6 598 -2 563 -2 c 2
 519 -2 l 2
 490 -2 468 3 463 19 c 2
 423 141 l 1
 187 141 l 1
 147 19 l 2
 142 4 125 -2 101 -2 c 2
 61 -2 l 2
 19 -2 0 6 0 20 c 0
 0 25 2 31 4 38 c 2
 224 681 l 2
 230 697 252 702 281 702 c 2
 333 702 l 2
304 515 m 1
 300 494 297 472 289 451 c 2
 230 273 l 1
 380 273 l 1
 323 451 l 2
 316 472 312 494 308 515 c 1
 304 515 l 1
EndSplineSet
Position2: "'cpsp' Capital Spacing lookup 3 subtable" dx=5 dy=0 dh=10 dv=0
EndChar

StartChar: Ahookabove
Encoding: 7842 7842 18
Width: 613
Flags: MW
HStem: -2 21G 141 132<230 380 230 423 187 380> 682 20G<281 333 333 347.5> 867 61<302.5 320>
VStem: 344 87<830 852>
LayerCount: 2
Fore
SplineSet
344 845 m 0
 344 859 328 867 312 867 c 0
 290 867 279 855 270 855 c 0
 262 855 240 882 240 897 c 0
 240 910 285 928 320 928 c 0
 392 928 431 898 431 849 c 0
 431 796 349 747 331 747 c 0
 307 747 277 762 277 770 c 0
 277 787 344 815 344 845 c 0
333 702 m 2
 362 702 384 697 390 681 c 2
 610 38 l 2
 612 31 613 25 613 20 c 0
 613 6 598 -2 563 -2 c 2
 519 -2 l 2
 490 -2 468 3 463 19 c 2
 423 141 l 1
 187 141 l 1
 147 19 l 2
 142 4 125 -2 101 -2 c 2
 61 -2 l 2
 19 -2 0 6 0 20 c 0
 0 25 2 31 4 38 c 2
 224 681 l 2
 230 697 252 702 281 702 c 2
 333 702 l 2
304 515 m 1
 300 494 297 472 289 451 c 2
 230 273 l 1
 380 273 l 1
 323 451 l 2
 316 472 312 494 308 515 c 1
 304 515 l 1
EndSplineSet
Position2: "'cpsp' Capital Spacing lookup 3 subtable" dx=5 dy=0 dh=10 dv=0
EndChar

StartChar: Amacron
Encoding: 256 256 19
Width: 613
Flags: MW
HStem: -2 21G 141 132<230 380 230 423 187 380> 682 20G<281 333 333 347.5> 774 95<189.5 415 200 415>
VStem: 0 613<13 22.5>
LayerCount: 2
Fore
SplineSet
415 869 m 2
 436 869 445 857 445 829 c 2
 445 814 l 2
 445 786 436 774 415 774 c 2
 200 774 l 2
 179 774 170 786 170 814 c 2
 170 829 l 2
 170 857 179 869 200 869 c 2
 415 869 l 2
333 702 m 2
 362 702 384 697 390 681 c 2
 610 38 l 2
 612 31 613 25 613 20 c 0
 613 6 598 -2 563 -2 c 2
 519 -2 l 2
 490 -2 468 3 463 19 c 2
 423 141 l 1
 187 141 l 1
 147 19 l 2
 142 4 125 -2 101 -2 c 2
 61 -2 l 2
 19 -2 0 6 0 20 c 0
 0 25 2 31 4 38 c 2
 224 681 l 2
 230 697 252 702 281 702 c 2
 333 702 l 2
304 515 m 1
 300 494 297 472 289 451 c 2
 230 273 l 1
 380 273 l 1
 323 451 l 2
 316 472 312 494 308 515 c 1
 304 515 l 1
EndSplineSet
Position2: "'cpsp' Capital Spacing lookup 3 subtable" dx=5 dy=0 dh=10 dv=0
EndChar

StartChar: Aogonek
Encoding: 260 260 20
Width: 613
Flags: MW
HStem: -183 70<591.5 611> -2 21G -1 21G 141 132<230 380 230 423 187 380> 682 20G<281 333 333 347.5>
VStem: 474 67<-86 -73>
LayerCount: 2
Fore
SplineSet
552 -2 m 1xdc
 552 -5 l 2xdc
 552 -20 541 -33 541 -62 c 0
 541 -110 580 -113 603 -113 c 0
 628 -113 634 -105 652 -105 c 0
 666 -105 674 -114 674 -133 c 0
 674 -175 630 -183 592 -183 c 0
 485 -183 474 -110 474 -81 c 0
 474 -65 478 -23 498 -1 c 1
 480 1 467 7 463 19 c 2xbc
 423 141 l 1
 187 141 l 1
 147 19 l 2
 142 4 125 -2 101 -2 c 2
 61 -2 l 2
 19 -2 0 6 0 20 c 0
 0 25 2 31 4 38 c 2
 224 681 l 2
 230 697 252 702 281 702 c 2
 333 702 l 2
 362 702 384 697 390 681 c 2
 610 38 l 2
 612 31 613 25 613 20 c 0
 613 6 598 -2 563 -2 c 2
 552 -2 l 1xdc
380 273 m 1
 323 451 l 2
 316 472 312 494 308 515 c 1
 304 515 l 1
 300 494 297 472 289 451 c 2
 230 273 l 1
 380 273 l 1
EndSplineSet
Position2: "'cpsp' Capital Spacing lookup 3 subtable" dx=5 dy=0 dh=10 dv=0
EndChar

StartChar: Aring
Encoding: 197 197 21
Width: 613
Flags: MW
HStem: -2 21G 141 132<230 380 230 423 187 380> 682 20G<281 333 333 347.5> 727 62<297 317 297 335> 862 64<297 317>
VStem: 208 63<815 835 815 854> 344 63<815 835>
LayerCount: 2
Fore
SplineSet
307 926 m 0
 363 926 407 882 407 826 c 0
 407 770 363 727 307 727 c 0xfe
 251 727 208 770 208 826 c 0
 208 882 251 926 307 926 c 0
307 862 m 0
 287 862 271 845 271 825 c 0
 271 805 287 789 307 789 c 0xfe
 327 789 344 805 344 825 c 0
 344 845 327 862 307 862 c 0
333 702 m 2
 362 702 384 697 390 681 c 2
 610 38 l 2
 612 31 613 25 613 20 c 0
 613 6 598 -2 563 -2 c 2
 519 -2 l 2
 490 -2 468 3 463 19 c 2
 423 141 l 1
 187 141 l 1
 147 19 l 2
 142 4 125 -2 101 -2 c 2
 61 -2 l 2
 19 -2 0 6 0 20 c 0
 0 25 2 31 4 38 c 2
 224 681 l 2
 230 697 252 702 281 702 c 2
 333 702 l 2
304 515 m 1
 300 494 297 472 289 451 c 2
 230 273 l 1
 380 273 l 1
 323 451 l 2
 316 472 312 494 308 515 c 1
 304 515 l 1
EndSplineSet
Position2: "'cpsp' Capital Spacing lookup 3 subtable" dx=5 dy=0 dh=10 dv=0
EndChar

StartChar: Aringacute
Encoding: 506 506 22
Width: 613
Flags: MW
HStem: -2 21G 141 132<230 380 230 423 187 380> 732 64<297 317> 812 119<280 407>
VStem: 208 63<689 705 685 724> 344 63<688.5 705>
LayerCount: 2
Fore
SplineSet
610 38 m 2
 612 31 613 25 613 20 c 0
 613 6 598 -2 563 -2 c 2
 519 -2 l 2
 490 -2 468 3 463 19 c 2
 423 141 l 1
 187 141 l 1
 147 19 l 2
 142 4 125 -2 101 -2 c 2
 61 -2 l 2
 19 -2 0 6 0 20 c 0
 0 25 2 31 4 38 c 2
 216 657 l 1
 211 669 208 682 208 696 c 0
 208 752 251 796 307 796 c 0
 363 796 407 752 407 696 c 0
 407 681 404 668 399 656 c 1
 610 38 l 2
307 732 m 0
 287 732 271 715 271 695 c 0
 271 675 287 659 307 659 c 0
 327 659 344 675 344 695 c 0
 344 715 327 732 307 732 c 0
380 273 m 1
 323 451 l 2
 316 472 312 494 308 515 c 1
 304 515 l 1
 300 494 297 472 289 451 c 2
 230 273 l 1
 380 273 l 1
292 812 m 0xfc
 268 812 261 816 261 827 c 1
 277 864 287 881 302 904 c 1
 314 925 347 931 387 931 c 0
 427 931 447 928 447 917 c 0
 447 909 442 907 367 837 c 1
 356 825 339 812 292 812 c 0xfc
EndSplineSet
Position2: "'cpsp' Capital Spacing lookup 3 subtable" dx=5 dy=0 dh=10 dv=0
EndChar

StartChar: Atilde
Encoding: 195 195 23
Width: 613
Flags: MW
HStem: -2 21G 141 132<230 380 230 423 187 380> 682 20G<281 333 333 347.5> 757 86<362.5 376.5> 784 86<228.5 244>
VStem: 0 613<13 22.5>
LayerCount: 2
Fore
SplineSet
426 858 m 0xf4
 432 862 439 864 445 864 c 0
 453 864 462 861 470 852 c 0
 476 845 479 839 479 832 c 0
 479 823 474 812 462 798 c 1
 437 773 397 757 356 757 c 0xf4
 321 757 303 765 284 773 c 0
 270 779 255 784 233 784 c 0
 211 784 197 777 183 770 c 0
 179 768 175 767 171 767 c 0
 160 767 150 773 141 784 c 0
 136 790 134 797 134 803 c 0
 134 812 138 821 146 829 c 1
 175 852 208 870 249 870 c 0xec
 287 870 308 861 327 854 c 0
 341 848 353 843 372 843 c 0
 394 843 409 848 426 858 c 0xf4
333 702 m 2
 362 702 384 697 390 681 c 2
 610 38 l 2
 612 31 613 25 613 20 c 0
 613 6 598 -2 563 -2 c 2
 519 -2 l 2
 490 -2 468 3 463 19 c 2
 423 141 l 1
 187 141 l 1
 147 19 l 2
 142 4 125 -2 101 -2 c 2
 61 -2 l 2
 19 -2 0 6 0 20 c 0
 0 25 2 31 4 38 c 2
 224 681 l 2
 230 697 252 702 281 702 c 2
 333 702 l 2
304 515 m 1
 300 494 297 472 289 451 c 2
 230 273 l 1
 380 273 l 1
 323 451 l 2
 316 472 312 494 308 515 c 1
 304 515 l 1
EndSplineSet
Position2: "'cpsp' Capital Spacing lookup 3 subtable" dx=5 dy=0 dh=10 dv=0
EndChar

StartChar: AE
Encoding: 198 198 24
Width: 915
Flags: MW
HStem: 0 131<493 835 602 835 602 835> 141 132<270 424 270 448 205 424> 293 131<571 807 571 571> 569 131<517 834 517 517>
VStem: 1 864<13 50>
LayerCount: 2
Fore
SplineSet
834 700 m 2
 855 700 864 685 864 650 c 2
 864 619 l 2
 864 584 855 569 834 569 c 2
 517 569 l 1
 545 424 l 1
 807 424 l 2
 828 424 837 409 837 374 c 2
 837 343 l 2
 837 308 828 293 807 293 c 2
 571 293 l 1
 602 131 l 1
 835 131 l 2
 856 131 865 116 865 81 c 2
 865 50 l 2
 865 15 856 0 835 0 c 2
 504 0 l 2
 482 0 473 9 469 30 c 2xb8
 448 141 l 1
 205 141 l 1xf8
 145 19 l 2
 138 5 123 -2 99 -2 c 2
 62 -2 l 2
 20 -2 1 6 1 20 c 0
 1 25 2 32 5 38 c 2
 326 673 l 2
 336 692 349 700 370 700 c 2
 834 700 l 2
387 537 m 1
 359 455 l 1
 270 273 l 1
 424 273 l 1xf8
 391 454 l 1
 391 537 l 1
 387 537 l 1
EndSplineSet
Position2: "'cpsp' Capital Spacing lookup 3 subtable" dx=5 dy=0 dh=10 dv=0
EndChar

StartChar: AEacute
Encoding: 508 508 25
Width: 915
Flags: MW
HStem: 0 131<493 835 602 835 602 835> 141 132<270 424 270 448 205 424> 293 131<571 807 571 571> 569 131<517 834 517 517> 752 159<407 558>
VStem: 1 864<13 50>
LayerCount: 2
Fore
SplineSet
538 911 m 0
 578 911 598 908 598 897 c 0
 598 885 591 883 494 777 c 0
 483 765 466 752 419 752 c 0
 395 752 388 756 388 767 c 0
 388 778 407 803 453 884 c 0
 465 905 498 911 538 911 c 0
834 700 m 2
 855 700 864 685 864 650 c 2
 864 619 l 2
 864 584 855 569 834 569 c 2
 517 569 l 1
 545 424 l 1
 807 424 l 2
 828 424 837 409 837 374 c 2
 837 343 l 2
 837 308 828 293 807 293 c 2
 571 293 l 1
 602 131 l 1
 835 131 l 2
 856 131 865 116 865 81 c 2
 865 50 l 2
 865 15 856 0 835 0 c 2
 504 0 l 2
 482 0 473 9 469 30 c 2xbc
 448 141 l 1
 205 141 l 1xfc
 145 19 l 2
 138 5 123 -2 99 -2 c 2
 62 -2 l 2
 20 -2 1 6 1 20 c 0
 1 25 2 32 5 38 c 2
 326 673 l 2
 336 692 349 700 370 700 c 2
 834 700 l 2
359 455 m 1
 270 273 l 1
 424 273 l 1xfc
 391 454 l 1
 391 537 l 1
 387 537 l 1
 359 455 l 1
EndSplineSet
Position2: "'cpsp' Capital Spacing lookup 3 subtable" dx=5 dy=0 dh=10 dv=0
EndChar

StartChar: B
Encoding: 66 66 26
Width: 593
Flags: MW
HStem: 0 131<95 321 223 321 223 321> 290 131<223 292 223 292 292 305> 570 130<223 223 223 294>
VStem: 69 154<131 290 421 570> 385 158<489 520.5> 413 158<186 238>
LayerCount: 2
Fore
SplineSet
307 700 m 2xf8
 476 700 543 628 543 523 c 0xf8
 543 455 495 396 435 371 c 1
 436 367 l 1
 516 351 571 280 571 203 c 0xf4
 571 74 490 0 321 0 c 2
 109 0 l 2
 81 0 69 12 69 40 c 2
 69 660 l 2
 69 688 81 700 109 700 c 2
 307 700 l 2xf8
223 570 m 1
 223 421 l 1
 292 421 l 2
 352 421 385 454 385 496 c 0
 385 545 355 570 294 570 c 2
 223 570 l 1
223 290 m 1
 223 131 l 1
 321 131 l 2
 379 131 413 160 413 212 c 0xf4
 413 264 374 290 305 290 c 2
 223 290 l 1
EndSplineSet
Position2: "'cpsp' Capital Spacing lookup 3 subtable" dx=5 dy=0 dh=10 dv=0
EndChar

StartChar: C
Encoding: 67 67 27
Width: 619
Flags: MW
HStem: -8 131<316.5 414> 576 132<317 423 268 423.5>
VStem: 45 158<276 426 276 471>
LayerCount: 2
Fore
SplineSet
379 708 m 0
 467 708 588 680 588 638 c 0
 588 610 548 544 523 544 c 0
 511 544 471 576 376 576 c 0
 258 576 203 501 203 351 c 0
 203 201 259 123 374 123 c 0
 469 123 523 163 538 163 c 0
 570 163 597 93 597 76 c 0
 597 16 454 -8 374 -8 c 0
 150 -8 45 105 45 352 c 0
 45 590 157 708 379 708 c 0
EndSplineSet
Position2: "'cpsp' Capital Spacing lookup 3 subtable" dx=5 dy=0 dh=10 dv=0
EndChar

StartChar: Cacute
Encoding: 262 262 28
Width: 619
Flags: MW
HStem: -8 131<316.5 414> 576 132<317 423 268 423.5> 752 159<317 468>
VStem: 45 158<276 426 276 471>
LayerCount: 2
Fore
SplineSet
448 911 m 0
 488 911 508 908 508 897 c 0
 508 885 501 883 404 777 c 0
 393 765 376 752 329 752 c 0
 305 752 298 756 298 767 c 0
 298 778 317 803 363 884 c 0
 375 905 408 911 448 911 c 0
379 708 m 0
 467 708 588 680 588 638 c 0
 588 610 548 544 523 544 c 0
 511 544 471 576 376 576 c 0
 258 576 203 501 203 351 c 0
 203 201 259 123 374 123 c 0
 469 123 523 163 538 163 c 0
 570 163 597 93 597 76 c 0
 597 16 454 -8 374 -8 c 0
 150 -8 45 105 45 352 c 0
 45 590 157 708 379 708 c 0
EndSplineSet
Substitution2: "'locl' Localized Forms in Latin lookup 12 subtable" Cacute.loclPLK
Substitution2: "'aalt' Access All Alternates lookup 0 subtable" Cacute.loclPLK
Position2: "'cpsp' Capital Spacing lookup 3 subtable" dx=5 dy=0 dh=10 dv=0
EndChar

StartChar: Ccaron
Encoding: 268 268 29
Width: 619
Flags: MW
HStem: -8 131<316.5 414> 576 132<317 423 268 423.5> 749 146<251 363 251 374>
VStem: 45 158<276 426 276 471>
LayerCount: 2
Fore
SplineSet
486 895 m 2
 499 895 506 892 506 885 c 0
 506 881 504 876 500 870 c 2
 435 768 l 2
 424 750 403 749 374 749 c 2
 363 749 l 2
 334 749 313 750 302 768 c 2
 237 870 l 2
 233 876 231 881 231 885 c 0
 231 892 237 895 251 895 c 2
 273 895 l 2
 302 895 325 891 340 870 c 2
 368 831 l 1
 396 871 l 2
 409 890 435 895 464 895 c 2
 486 895 l 2
379 708 m 0
 467 708 588 680 588 638 c 0
 588 610 548 544 523 544 c 0
 511 544 471 576 376 576 c 0
 258 576 203 501 203 351 c 0
 203 201 259 123 374 123 c 0
 469 123 523 163 538 163 c 0
 570 163 597 93 597 76 c 0
 597 16 454 -8 374 -8 c 0
 150 -8 45 105 45 352 c 0
 45 590 157 708 379 708 c 0
EndSplineSet
Position2: "'cpsp' Capital Spacing lookup 3 subtable" dx=5 dy=0 dh=10 dv=0
EndChar

StartChar: Ccedilla
Encoding: 199 199 30
Width: 619
Flags: MW
HStem: -212 73<327 356 326 394.5> -7 130<404 404> 576 132<317 423 268 423.5>
VStem: 45 158<276 426 276 471> 371 103<-127.5 -109.5>
LayerCount: 2
Fore
SplineSet
397 -36 m 1
 432 -41 474 -61 474 -112 c 0
 474 -180 434 -212 355 -212 c 0
 299 -212 224 -194 224 -162 c 0
 224 -128 249 -118 256 -118 c 0
 279 -118 305 -139 347 -139 c 0
 365 -139 371 -133 371 -122 c 0
 371 -97 318 -98 318 -74 c 0
 318 -70 319 -65 338 -7 c 1
 139 5 45 119 45 352 c 0
 45 590 157 708 379 708 c 0
 467 708 588 680 588 638 c 0
 588 610 548 544 523 544 c 0
 511 544 471 576 376 576 c 0
 258 576 203 501 203 351 c 0
 203 201 259 123 374 123 c 0
 469 123 523 163 538 163 c 0
 570 163 597 93 597 76 c 0
 597 23 486 -2 404 -7 c 1
 397 -36 l 1
EndSplineSet
Position2: "'cpsp' Capital Spacing lookup 3 subtable" dx=5 dy=0 dh=10 dv=0
EndChar

StartChar: Ccircumflex
Encoding: 264 264 31
Width: 619
Flags: MW
HStem: -8 131<316.5 414> 576 132<317 423 268 423.5> 749 146<244 374 251 374 363 464 363 486>
VStem: 45 158<276 426 276 471>
LayerCount: 2
Fore
SplineSet
374 895 m 2
 403 895 424 894 435 876 c 2
 500 774 l 2
 504 768 506 763 506 759 c 0
 506 752 499 749 486 749 c 2
 464 749 l 2
 435 749 409 754 396 773 c 2
 368 813 l 1
 340 774 l 2
 325 753 302 749 273 749 c 2
 251 749 l 2
 237 749 231 752 231 759 c 0
 231 763 233 768 237 774 c 2
 302 876 l 2
 313 894 334 895 363 895 c 2
 374 895 l 2
379 708 m 0
 467 708 588 680 588 638 c 0
 588 610 548 544 523 544 c 0
 511 544 471 576 376 576 c 0
 258 576 203 501 203 351 c 0
 203 201 259 123 374 123 c 0
 469 123 523 163 538 163 c 0
 570 163 597 93 597 76 c 0
 597 16 454 -8 374 -8 c 0
 150 -8 45 105 45 352 c 0
 45 590 157 708 379 708 c 0
EndSplineSet
Position2: "'cpsp' Capital Spacing lookup 3 subtable" dx=5 dy=0 dh=10 dv=0
EndChar

StartChar: Cdotaccent
Encoding: 266 266 32
Width: 619
Flags: MW
HStem: -8 131<316.5 414> 576 132<317 423 268 423.5> 755 124<347 389>
VStem: 45 158<276 426 276 471> 308 120<787 847 776.5 857.5>
LayerCount: 2
Fore
SplineSet
308 847 m 2
 308 868 326 879 368 879 c 0
 410 879 428 868 428 847 c 2
 428 787 l 2
 428 766 410 755 368 755 c 0
 326 755 308 766 308 787 c 2
 308 847 l 2
379 708 m 0
 467 708 588 680 588 638 c 0
 588 610 548 544 523 544 c 0
 511 544 471 576 376 576 c 0
 258 576 203 501 203 351 c 0
 203 201 259 123 374 123 c 0
 469 123 523 163 538 163 c 0
 570 163 597 93 597 76 c 0
 597 16 454 -8 374 -8 c 0
 150 -8 45 105 45 352 c 0
 45 590 157 708 379 708 c 0
EndSplineSet
Position2: "'cpsp' Capital Spacing lookup 3 subtable" dx=5 dy=0 dh=10 dv=0
EndChar

StartChar: D
Encoding: 68 68 33
Width: 695
Flags: MW
HStem: 0 131<95 333 224 333 224 333> 569 131<224 224 224 333>
VStem: 69 155<131 569 131 660 131 674> 495 158<279 421>
LayerCount: 2
Fore
SplineSet
333 700 m 2
 539 700 653 576 653 350 c 0
 653 124 539 0 333 0 c 2
 109 0 l 2
 81 0 69 12 69 40 c 2
 69 660 l 2
 69 688 81 700 109 700 c 2
 333 700 l 2
224 569 m 1
 224 131 l 1
 333 131 l 2
 440 131 495 208 495 350 c 0
 495 492 440 569 333 569 c 2
 224 569 l 1
EndSplineSet
Position2: "'cpsp' Capital Spacing lookup 3 subtable" dx=5 dy=0 dh=10 dv=0
EndChar

StartChar: DZ
Encoding: 497 497 34
Width: 1311
Flags: MW
HStem: 0 131<95 333 224 333 224 333 940 1245> 569 131<224 333 224 224 781 1059>
VStem: 69 155<131 131 131 569> 495 158<279 421>
LayerCount: 2
Fore
SplineSet
333 700 m 2
 539 700 653 576 653 350 c 0
 653 124 539 0 333 0 c 2
 109 0 l 2
 81 0 69 12 69 40 c 2
 69 660 l 2
 69 688 81 700 109 700 c 2
 333 700 l 2
1238 700 m 2
 1254 700 1275 634 1275 608 c 0
 1275 604 1275 602 1274 600 c 2
 940 131 l 1
 1245 131 l 2
 1266 131 1275 116 1275 81 c 2
 1275 50 l 2
 1275 15 1266 0 1245 0 c 2
 761 0 l 2
 744 0 722 62 722 89 c 0
 722 93 723 97 724 99 c 2
 1059 569 l 1
 781 569 l 2
 760 569 751 584 751 619 c 2
 751 650 l 2
 751 685 760 700 781 700 c 2
 1238 700 l 2
224 131 m 1
 333 131 l 2
 440 131 495 208 495 350 c 0
 495 492 440 569 333 569 c 2
 224 569 l 1
 224 131 l 1
EndSplineSet
Position2: "'cpsp' Capital Spacing lookup 3 subtable" dx=5 dy=0 dh=10 dv=0
EndChar

StartChar: DZcaron
Encoding: 452 452 35
Width: 1311
Flags: MW
HStem: 0 131<95 333 224 333 224 333 940 1245> 569 131<224 333 224 224 781 1059> 749 146<886 998 886 1009>
VStem: 69 155<131 131 131 569> 495 158<279 421>
LayerCount: 2
Fore
SplineSet
333 700 m 2
 539 700 653 576 653 350 c 0
 653 124 539 0 333 0 c 2
 109 0 l 2
 81 0 69 12 69 40 c 2
 69 660 l 2
 69 688 81 700 109 700 c 2
 333 700 l 2
224 131 m 1
 333 131 l 2
 440 131 495 208 495 350 c 0
 495 492 440 569 333 569 c 2
 224 569 l 1
 224 131 l 1
1121 895 m 2
 1134 895 1141 892 1141 885 c 0
 1141 881 1139 876 1135 870 c 2
 1070 768 l 2
 1059 750 1038 749 1009 749 c 2
 998 749 l 2
 969 749 948 750 937 768 c 2
 872 870 l 2
 868 876 866 881 866 885 c 0
 866 892 872 895 886 895 c 2
 908 895 l 2
 937 895 960 891 975 870 c 2
 1003 831 l 1
 1031 871 l 2
 1044 890 1070 895 1099 895 c 2
 1121 895 l 2
1238 700 m 2
 1254 700 1275 634 1275 608 c 0
 1275 604 1275 602 1274 600 c 2
 940 131 l 1
 1245 131 l 2
 1266 131 1275 116 1275 81 c 2
 1275 50 l 2
 1275 15 1266 0 1245 0 c 2
 761 0 l 2
 744 0 722 62 722 89 c 0
 722 93 723 97 724 99 c 2
 1059 569 l 1
 781 569 l 2
 760 569 751 584 751 619 c 2
 751 650 l 2
 751 685 760 700 781 700 c 2
 1238 700 l 2
EndSplineSet
Position2: "'cpsp' Capital Spacing lookup 3 subtable" dx=5 dy=0 dh=10 dv=0
EndChar

StartChar: Eth
Encoding: 208 208 36
Width: 696
Flags: MW
HStem: 0 131<97 335 226 335 226 335> 291 130<31.5 71 42 71 226 285> 569 131<226 226 226 335>
VStem: 71 155<131 291 131 291 131 291 421 569> 497 158<279 421>
LayerCount: 2
Fore
SplineSet
335 700 m 2
 541 700 655 576 655 350 c 0
 655 124 541 0 335 0 c 2
 111 0 l 2
 83 0 71 12 71 40 c 2
 71 291 l 1
 42 291 l 2
 21 291 12 306 12 341 c 2
 12 371 l 2
 12 406 21 421 42 421 c 2
 71 421 l 1
 71 660 l 2
 71 688 83 700 111 700 c 2
 335 700 l 2
226 569 m 1
 226 421 l 1
 285 421 l 2
 306 421 315 406 315 371 c 2
 315 341 l 2
 315 306 306 291 285 291 c 2
 226 291 l 1
 226 131 l 1
 335 131 l 2
 442 131 497 208 497 350 c 0
 497 492 442 569 335 569 c 2
 226 569 l 1
EndSplineSet
Position2: "'cpsp' Capital Spacing lookup 3 subtable" dx=5 dy=0 dh=10 dv=0
EndChar

StartChar: Dcaron
Encoding: 270 270 37
Width: 695
Flags: MW
HStem: 0 131<95 333 224 333 224 333> 569 131<224 333 224 224> 749 146<216 328 216 339>
VStem: 69 155<131 131 131 569> 495 158<279 421>
LayerCount: 2
Fore
SplineSet
451 895 m 2
 464 895 471 892 471 885 c 0
 471 881 469 876 465 870 c 2
 400 768 l 2
 389 750 368 749 339 749 c 2
 328 749 l 2
 299 749 278 750 267 768 c 2
 202 870 l 2
 198 876 196 881 196 885 c 0
 196 892 202 895 216 895 c 2
 238 895 l 2
 267 895 290 891 305 870 c 2
 333 831 l 1
 361 871 l 2
 374 890 400 895 429 895 c 2
 451 895 l 2
333 700 m 2
 539 700 653 576 653 350 c 0
 653 124 539 0 333 0 c 2
 109 0 l 2
 81 0 69 12 69 40 c 2
 69 660 l 2
 69 688 81 700 109 700 c 2
 333 700 l 2
224 131 m 1
 333 131 l 2
 440 131 495 208 495 350 c 0
 495 492 440 569 333 569 c 2
 224 569 l 1
 224 131 l 1
EndSplineSet
Position2: "'cpsp' Capital Spacing lookup 3 subtable" dx=5 dy=0 dh=10 dv=0
EndChar

StartChar: Dcroat
Encoding: 272 272 38
Width: 696
Flags: MW
HStem: 0 131<97 335 226 335 226 335> 291 130<31.5 71 42 71 226 285> 569 131<226 335 226 226>
VStem: 71 155<131 291 131 291 131 291 421 569> 497 158<279 421>
LayerCount: 2
Fore
SplineSet
335 700 m 2
 541 700 655 576 655 350 c 0
 655 124 541 0 335 0 c 2
 111 0 l 2
 83 0 71 12 71 40 c 2
 71 291 l 1
 42 291 l 2
 21 291 12 306 12 341 c 2
 12 371 l 2
 12 406 21 421 42 421 c 2
 71 421 l 1
 71 660 l 2
 71 688 83 700 111 700 c 2
 335 700 l 2
226 421 m 1
 285 421 l 2
 306 421 315 406 315 371 c 2
 315 341 l 2
 315 306 306 291 285 291 c 2
 226 291 l 1
 226 131 l 1
 335 131 l 2
 442 131 497 208 497 350 c 0
 497 492 442 569 335 569 c 2
 226 569 l 1
 226 421 l 1
EndSplineSet
Position2: "'cpsp' Capital Spacing lookup 3 subtable" dx=5 dy=0 dh=10 dv=0
EndChar

StartChar: Ddotbelow
Encoding: 7692 7692 39
Width: 695
Flags: MW
HStem: -204 124<312 354> 0 131<95 333 224 333 224 333> 569 131<224 333 224 224>
VStem: 69 155<131 131 131 569> 273 120<-172 -112 -182.5 -101.5> 495 158<279 421>
LayerCount: 2
Fore
SplineSet
333 700 m 2
 539 700 653 576 653 350 c 0
 653 124 539 0 333 0 c 2
 109 0 l 2
 81 0 69 12 69 40 c 2
 69 660 l 2
 69 688 81 700 109 700 c 2
 333 700 l 2
224 131 m 1
 333 131 l 2
 440 131 495 208 495 350 c 0
 495 492 440 569 333 569 c 2
 224 569 l 1
 224 131 l 1
273 -112 m 2
 273 -91 291 -80 333 -80 c 0
 375 -80 393 -91 393 -112 c 2
 393 -172 l 2
 393 -193 375 -204 333 -204 c 0
 291 -204 273 -193 273 -172 c 2
 273 -112 l 2
EndSplineSet
Position2: "'cpsp' Capital Spacing lookup 3 subtable" dx=5 dy=0 dh=10 dv=0
EndChar

StartChar: Dz
Encoding: 498 498 40
Width: 1184
Flags: MW
HStem: 0 117<920 1125 920 1125> 0 131<95 333 224 333 224 333> 406 117<757.5 1122 768 954> 569 131<224 333 224 224>
VStem: 69 155<131 131 131 569> 495 158<279 421>
LayerCount: 2
Fore
SplineSet
333 700 m 2xbc
 539 700 653 576 653 350 c 0
 653 124 539 0 333 0 c 2
 109 0 l 2
 81 0 69 12 69 40 c 2
 69 660 l 2
 69 688 81 700 109 700 c 2
 333 700 l 2xbc
224 131 m 1x7c
 333 131 l 2
 440 131 495 208 495 350 c 0
 495 492 440 569 333 569 c 2
 224 569 l 1
 224 131 l 1x7c
1122 523 m 2
 1133 523 1151 474 1151 446 c 0
 1151 439 1150 434 1148 431 c 2
 920 117 l 1
 1125 117 l 2
 1146 117 1155 102 1155 67 c 2
 1155 50 l 2
 1155 15 1146 0 1125 0 c 2
 751 0 l 2
 738 0 722 50 722 76 c 0
 722 82 723 87 725 90 c 2xbc
 954 406 l 1
 768 406 l 2
 747 406 738 421 738 456 c 2
 738 473 l 2
 738 508 747 523 768 523 c 2
 1122 523 l 2
EndSplineSet
Position2: "'cpsp' Capital Spacing lookup 3 subtable" dx=5 dy=0 dh=10 dv=0
EndChar

StartChar: Dzcaron
Encoding: 453 453 41
Width: 1184
Flags: MW
HStem: 0 117<920 1125 920 1125> 0 131<95 333 224 333 224 333> 406 117<757.5 1122 768 954> 569 131<224 333 224 224> 572 146<823 935 823 946>
VStem: 69 155<131 131 131 569> 495 158<279 421>
LayerCount: 2
Fore
SplineSet
333 700 m 2xb6
 539 700 653 576 653 350 c 0
 653 124 539 0 333 0 c 2
 109 0 l 2
 81 0 69 12 69 40 c 2
 69 660 l 2
 69 688 81 700 109 700 c 2
 333 700 l 2xb6
224 131 m 1x76
 333 131 l 2
 440 131 495 208 495 350 c 0
 495 492 440 569 333 569 c 2
 224 569 l 1
 224 131 l 1x76
1122 523 m 2
 1133 523 1151 474 1151 446 c 0
 1151 439 1150 434 1148 431 c 2
 920 117 l 1
 1125 117 l 2
 1146 117 1155 102 1155 67 c 2
 1155 50 l 2
 1155 15 1146 0 1125 0 c 2
 751 0 l 2
 738 0 722 50 722 76 c 0
 722 82 723 87 725 90 c 2xb6
 954 406 l 1
 768 406 l 2
 747 406 738 421 738 456 c 2
 738 473 l 2
 738 508 747 523 768 523 c 2
 1122 523 l 2
1058 718 m 2xae
 1071 718 1078 715 1078 708 c 0
 1078 704 1076 699 1072 693 c 2
 1007 591 l 2
 996 573 975 572 946 572 c 2
 935 572 l 2
 906 572 885 573 874 591 c 2
 809 693 l 2
 805 699 803 704 803 708 c 0
 803 715 809 718 823 718 c 2
 845 718 l 2
 874 718 897 714 912 693 c 2
 940 654 l 1
 968 694 l 2
 981 713 1007 718 1036 718 c 2
 1058 718 l 2xae
EndSplineSet
Position2: "'cpsp' Capital Spacing lookup 3 subtable" dx=5 dy=0 dh=10 dv=0
EndChar

StartChar: E
Encoding: 69 69 42
Width: 546
Flags: MW
HStem: 0 131<95 476 223 476 223 476> 293 131<223 448 223 448> 569 131<223 475 223 223>
VStem: 69 154<131 293 424 569>
LayerCount: 2
Fore
SplineSet
475 700 m 2
 496 700 505 685 505 650 c 2
 505 619 l 2
 505 584 496 569 475 569 c 2
 223 569 l 1
 223 424 l 1
 448 424 l 2
 469 424 478 409 478 374 c 2
 478 343 l 2
 478 308 469 293 448 293 c 2
 223 293 l 1
 223 131 l 1
 476 131 l 2
 497 131 506 116 506 81 c 2
 506 50 l 2
 506 15 497 0 476 0 c 2
 109 0 l 2
 81 0 69 12 69 40 c 2
 69 660 l 2
 69 688 81 700 109 700 c 2
 475 700 l 2
EndSplineSet
Position2: "'cpsp' Capital Spacing lookup 3 subtable" dx=5 dy=0 dh=10 dv=0
EndChar

StartChar: Eacute
Encoding: 201 201 43
Width: 546
Flags: MW
HStem: 0 131<95 476 223 476 223 476> 293 131<223 448 223 448> 569 131<223 475 223 223> 752 159<244 395>
VStem: 69 154<131 293 424 569>
LayerCount: 2
Fore
SplineSet
375 911 m 0
 415 911 435 908 435 897 c 0
 435 885 428 883 331 777 c 0
 320 765 303 752 256 752 c 0
 232 752 225 756 225 767 c 0
 225 778 244 803 290 884 c 0
 302 905 335 911 375 911 c 0
475 700 m 2
 496 700 505 685 505 650 c 2
 505 619 l 2
 505 584 496 569 475 569 c 2
 223 569 l 1
 223 424 l 1
 448 424 l 2
 469 424 478 409 478 374 c 2
 478 343 l 2
 478 308 469 293 448 293 c 2
 223 293 l 1
 223 131 l 1
 476 131 l 2
 497 131 506 116 506 81 c 2
 506 50 l 2
 506 15 497 0 476 0 c 2
 109 0 l 2
 81 0 69 12 69 40 c 2
 69 660 l 2
 69 688 81 700 109 700 c 2
 475 700 l 2
EndSplineSet
Position2: "'cpsp' Capital Spacing lookup 3 subtable" dx=5 dy=0 dh=10 dv=0
EndChar

StartChar: Ebreve
Encoding: 276 276 44
Width: 546
Flags: MW
HStem: 0 131<95 476 223 476 223 476> 293 131<223 448 223 448> 569 131<223 475 223 223> 752 91<269.5 322 269.5 338.5>
VStem: 69 154<131 293 424 569>
LayerCount: 2
Fore
SplineSet
407 892 m 0
 429 892 442 882 442 864 c 0
 442 807 382 752 295 752 c 0
 208 752 148 807 148 864 c 0
 148 882 161 892 183 892 c 0
 200 892 207 884 216 874 c 0
 229 860 244 843 295 843 c 0
 349 843 363 862 376 876 c 0
 384 885 391 892 407 892 c 0
475 700 m 2
 496 700 505 685 505 650 c 2
 505 619 l 2
 505 584 496 569 475 569 c 2
 223 569 l 1
 223 424 l 1
 448 424 l 2
 469 424 478 409 478 374 c 2
 478 343 l 2
 478 308 469 293 448 293 c 2
 223 293 l 1
 223 131 l 1
 476 131 l 2
 497 131 506 116 506 81 c 2
 506 50 l 2
 506 15 497 0 476 0 c 2
 109 0 l 2
 81 0 69 12 69 40 c 2
 69 660 l 2
 69 688 81 700 109 700 c 2
 475 700 l 2
EndSplineSet
Position2: "'cpsp' Capital Spacing lookup 3 subtable" dx=5 dy=0 dh=10 dv=0
EndChar

StartChar: Ecaron
Encoding: 282 282 45
Width: 546
Flags: MW
HStem: 0 131<95 476 223 476 223 476> 293 131<223 448 223 448> 569 131<223 475 223 223> 749 146<178 290 178 301>
VStem: 69 154<131 293 424 569>
LayerCount: 2
Fore
SplineSet
413 895 m 2
 426 895 433 892 433 885 c 0
 433 881 431 876 427 870 c 2
 362 768 l 2
 351 750 330 749 301 749 c 2
 290 749 l 2
 261 749 240 750 229 768 c 2
 164 870 l 2
 160 876 158 881 158 885 c 0
 158 892 164 895 178 895 c 2
 200 895 l 2
 229 895 252 891 267 870 c 2
 295 831 l 1
 323 871 l 2
 336 890 362 895 391 895 c 2
 413 895 l 2
475 700 m 2
 496 700 505 685 505 650 c 2
 505 619 l 2
 505 584 496 569 475 569 c 2
 223 569 l 1
 223 424 l 1
 448 424 l 2
 469 424 478 409 478 374 c 2
 478 343 l 2
 478 308 469 293 448 293 c 2
 223 293 l 1
 223 131 l 1
 476 131 l 2
 497 131 506 116 506 81 c 2
 506 50 l 2
 506 15 497 0 476 0 c 2
 109 0 l 2
 81 0 69 12 69 40 c 2
 69 660 l 2
 69 688 81 700 109 700 c 2
 475 700 l 2
EndSplineSet
Position2: "'cpsp' Capital Spacing lookup 3 subtable" dx=5 dy=0 dh=10 dv=0
EndChar

StartChar: Ecircumflex
Encoding: 202 202 46
Width: 546
Flags: MW
HStem: 0 131<95 476 223 476 223 476> 293 131<223 448 223 448> 569 131<223 475 223 223> 749 146<171 301 178 301 290 391 290 413>
VStem: 69 154<131 293 424 569>
LayerCount: 2
Fore
SplineSet
301 895 m 2
 330 895 351 894 362 876 c 2
 427 774 l 2
 431 768 433 763 433 759 c 0
 433 752 426 749 413 749 c 2
 391 749 l 2
 362 749 336 754 323 773 c 2
 295 813 l 1
 267 774 l 2
 252 753 229 749 200 749 c 2
 178 749 l 2
 164 749 158 752 158 759 c 0
 158 763 160 768 164 774 c 2
 229 876 l 2
 240 894 261 895 290 895 c 2
 301 895 l 2
475 700 m 2
 496 700 505 685 505 650 c 2
 505 619 l 2
 505 584 496 569 475 569 c 2
 223 569 l 1
 223 424 l 1
 448 424 l 2
 469 424 478 409 478 374 c 2
 478 343 l 2
 478 308 469 293 448 293 c 2
 223 293 l 1
 223 131 l 1
 476 131 l 2
 497 131 506 116 506 81 c 2
 506 50 l 2
 506 15 497 0 476 0 c 2
 109 0 l 2
 81 0 69 12 69 40 c 2
 69 660 l 2
 69 688 81 700 109 700 c 2
 475 700 l 2
EndSplineSet
Position2: "'cpsp' Capital Spacing lookup 3 subtable" dx=5 dy=0 dh=10 dv=0
EndChar

StartChar: Ecircumflexacute
Encoding: 7870 7870 47
Width: 546
Flags: MW
HStem: 0 131<95 476 223 476 223 476> 293 131<223 448 223 448> 569 131<223 475 223 223> 840 55
VStem: 69 154<131 293 424 569>
LayerCount: 2
Fore
SplineSet
498 964 m 0
 524 964 538 959 538 940 c 0
 538 930 525 914 464 840 c 1
 456 832 444 825 409 825 c 0
 393 825 388 829 388 840 c 0
 388 849 398 870 423 937 c 1
 434 958 463 964 498 964 c 0
301 895 m 2
 325 895 342 894 352 876 c 2
 412 774 l 2
 416 768 418 763 418 759 c 0
 418 752 411 749 398 749 c 2
 376 749 l 2
 347 749 315 752 308 773 c 2
 295 813 l 1
 267 774 l 2
 252 753 229 749 200 749 c 2
 178 749 l 2
 164 749 158 752 158 759 c 0
 158 763 160 768 164 774 c 2
 229 876 l 2
 240 894 261 895 290 895 c 2
 301 895 l 2
475 700 m 2
 496 700 505 685 505 650 c 2
 505 619 l 2
 505 584 496 569 475 569 c 2
 223 569 l 1
 223 424 l 1
 448 424 l 2
 469 424 478 409 478 374 c 2
 478 343 l 2
 478 308 469 293 448 293 c 2
 223 293 l 1
 223 131 l 1
 476 131 l 2
 497 131 506 116 506 81 c 2
 506 50 l 2
 506 15 497 0 476 0 c 2
 109 0 l 2
 81 0 69 12 69 40 c 2
 69 660 l 2
 69 688 81 700 109 700 c 2
 475 700 l 2
EndSplineSet
Position2: "'cpsp' Capital Spacing lookup 3 subtable" dx=5 dy=0 dh=10 dv=0
EndChar

StartChar: Ecircumflexdotbelow
Encoding: 7878 7878 48
Width: 546
Flags: MW
HStem: -204 124<268 310> 0 131<95 476 223 476 223 476> 293 131<223 448 223 448> 569 131<223 475 223 223> 749 146<171 301 178 301 290 391 290 413>
VStem: 69 154<131 293 424 569> 229 120<-172 -112 -182.5 -101.5>
LayerCount: 2
Fore
SplineSet
301 895 m 2
 330 895 351 894 362 876 c 2
 427 774 l 2
 431 768 433 763 433 759 c 0
 433 752 426 749 413 749 c 2
 391 749 l 2
 362 749 336 754 323 773 c 2
 295 813 l 1
 267 774 l 2
 252 753 229 749 200 749 c 2
 178 749 l 2
 164 749 158 752 158 759 c 0
 158 763 160 768 164 774 c 2
 229 876 l 2
 240 894 261 895 290 895 c 2
 301 895 l 2
475 700 m 2
 496 700 505 685 505 650 c 2
 505 619 l 2
 505 584 496 569 475 569 c 2
 223 569 l 1
 223 424 l 1
 448 424 l 2
 469 424 478 409 478 374 c 2
 478 343 l 2
 478 308 469 293 448 293 c 2
 223 293 l 1
 223 131 l 1
 476 131 l 2
 497 131 506 116 506 81 c 2
 506 50 l 2
 506 15 497 0 476 0 c 2
 109 0 l 2
 81 0 69 12 69 40 c 2
 69 660 l 2
 69 688 81 700 109 700 c 2
 475 700 l 2
229 -112 m 2xfa
 229 -91 247 -80 289 -80 c 0
 331 -80 349 -91 349 -112 c 2
 349 -172 l 2
 349 -193 331 -204 289 -204 c 0
 247 -204 229 -193 229 -172 c 2
 229 -112 l 2xfa
EndSplineSet
Position2: "'cpsp' Capital Spacing lookup 3 subtable" dx=5 dy=0 dh=10 dv=0
EndChar

StartChar: Ecircumflexgrave
Encoding: 7872 7872 49
Width: 546
Flags: MW
HStem: 0 131<95 476 223 476 223 476> 293 131<223 448 223 448> 569 131<223 475 223 223> 749 146<171 301 178 301 290 376 290 398> 824 139<347 461>
VStem: 69 154<131 293 424 569>
LayerCount: 2
Fore
SplineSet
362 963 m 0xec
 402 963 438 957 447 936 c 0
 473 871 480 848 480 839 c 0
 480 828 473 824 449 824 c 0
 411 824 397 837 387 849 c 0
 319 937 315 939 315 949 c 0
 315 960 332 963 362 963 c 0xec
301 895 m 2xf4
 325 895 342 894 352 876 c 2
 412 774 l 2
 416 768 418 763 418 759 c 0
 418 752 411 749 398 749 c 2
 376 749 l 2
 347 749 315 752 308 773 c 2
 295 813 l 1
 267 774 l 2
 252 753 229 749 200 749 c 2
 178 749 l 2
 164 749 158 752 158 759 c 0
 158 763 160 768 164 774 c 2
 229 876 l 2
 240 894 261 895 290 895 c 2
 301 895 l 2xf4
475 700 m 2
 496 700 505 685 505 650 c 2
 505 619 l 2
 505 584 496 569 475 569 c 2
 223 569 l 1
 223 424 l 1
 448 424 l 2
 469 424 478 409 478 374 c 2
 478 343 l 2
 478 308 469 293 448 293 c 2
 223 293 l 1
 223 131 l 1
 476 131 l 2
 497 131 506 116 506 81 c 2
 506 50 l 2
 506 15 497 0 476 0 c 2
 109 0 l 2
 81 0 69 12 69 40 c 2
 69 660 l 2
 69 688 81 700 109 700 c 2
 475 700 l 2
EndSplineSet
Position2: "'cpsp' Capital Spacing lookup 3 subtable" dx=5 dy=0 dh=10 dv=0
EndChar

StartChar: Ecircumflexhookabove
Encoding: 7874 7874 50
Width: 546
Flags: MW
HStem: 0 131<95 476 223 476 223 476> 293 131<223 448 223 448> 569 131<223 475 223 223> 749 146<171 301 178 301 361.5 369.5 290 376 290 398> 895 70<361 444>
VStem: 69 154<131 293 424 569> 439 69<891 900.5>
LayerCount: 2
Fore
SplineSet
439 895 m 0xee
 439 906 428 912 418 912 c 0
 385 912 374 895 365 895 c 0
 357 895 335 922 335 937 c 0
 335 950 380 965 415 965 c 0
 473 965 508 939 508 899 c 0
 508 883 502 868 482 852 c 0
 472 844 450 830 433 830 c 0
 406 830 389 840 389 851 c 0
 389 855 398 862 408 867 c 0
 427 876 439 881 439 895 c 0xee
301 895 m 2xf6
 325 895 342 894 352 876 c 2
 412 774 l 2
 416 768 418 763 418 759 c 0
 418 752 411 749 398 749 c 2
 376 749 l 2
 347 749 315 752 308 773 c 2
 295 813 l 1
 267 774 l 2
 252 753 229 749 200 749 c 2
 178 749 l 2
 164 749 158 752 158 759 c 0
 158 763 160 768 164 774 c 2
 229 876 l 2
 240 894 261 895 290 895 c 2
 301 895 l 2xf6
475 700 m 2
 496 700 505 685 505 650 c 2
 505 619 l 2
 505 584 496 569 475 569 c 2
 223 569 l 1
 223 424 l 1
 448 424 l 2
 469 424 478 409 478 374 c 2
 478 343 l 2
 478 308 469 293 448 293 c 2
 223 293 l 1
 223 131 l 1
 476 131 l 2
 497 131 506 116 506 81 c 2
 506 50 l 2
 506 15 497 0 476 0 c 2
 109 0 l 2
 81 0 69 12 69 40 c 2
 69 660 l 2
 69 688 81 700 109 700 c 2
 475 700 l 2
EndSplineSet
Position2: "'cpsp' Capital Spacing lookup 3 subtable" dx=5 dy=0 dh=10 dv=0
EndChar

StartChar: Ecircumflextilde
Encoding: 7876 7876 51
Width: 546
Flags: MW
HStem: 0 131<95 476 223 476 223 476> 293 131<223 448 223 448> 569 131<223 475 223 223> 749 122<171 301 178 301 290 391 290 413> 902 86<350.5 363.5> 929 86<228.5 243>
VStem: 69 154<131 293 424 569>
LayerCount: 2
Fore
SplineSet
408 1003 m 0xea
 413 1007 420 1009 426 1009 c 0
 433 1009 441 1006 448 997 c 0
 453 990 456 984 456 977 c 0
 456 967 452 957 441 943 c 1
 418 918 382 902 345 902 c 0xea
 313 902 296 910 279 918 c 0
 266 924 253 929 233 929 c 0
 213 929 200 922 187 915 c 0
 184 913 180 912 176 912 c 0
 167 912 157 918 149 929 c 0
 145 935 143 941 143 948 c 0
 143 957 147 966 154 974 c 1
 180 997 210 1015 247 1015 c 0xe6
 282 1015 301 1006 318 999 c 0
 331 993 342 988 359 988 c 0
 379 988 393 993 408 1003 c 0xea
301 871 m 2xfa
 330 871 347 868 362 852 c 1
 427 774 l 2
 431 768 433 763 433 759 c 0
 433 752 426 749 413 749 c 2
 391 749 l 2
 362 749 344 760 323 773 c 1
 295 800 l 1
 267 774 l 1
 243 760 229 749 200 749 c 2
 178 749 l 2
 164 749 158 752 158 759 c 0
 158 763 160 768 164 774 c 2
 229 852 l 1
 244 868 261 871 290 871 c 2
 301 871 l 2xfa
475 700 m 2
 496 700 505 685 505 650 c 2
 505 619 l 2
 505 584 496 569 475 569 c 2
 223 569 l 1
 223 424 l 1
 448 424 l 2
 469 424 478 409 478 374 c 2
 478 343 l 2
 478 308 469 293 448 293 c 2
 223 293 l 1
 223 131 l 1
 476 131 l 2
 497 131 506 116 506 81 c 2
 506 50 l 2
 506 15 497 0 476 0 c 2
 109 0 l 2
 81 0 69 12 69 40 c 2
 69 660 l 2
 69 688 81 700 109 700 c 2
 475 700 l 2
EndSplineSet
Position2: "'cpsp' Capital Spacing lookup 3 subtable" dx=5 dy=0 dh=10 dv=0
EndChar

StartChar: Edieresis
Encoding: 203 203 52
Width: 546
Flags: MW
HStem: 0 131<95 476 223 476 223 476> 293 131<223 448 223 448> 569 131<223 475 223 223> 755 124<184 226 364 406>
VStem: 69 154<131 293 424 569> 145 120<787 847 776.5 857.5> 325 120<787 847 776.5 857.5>
LayerCount: 2
Fore
SplineSet
145 847 m 2xf6
 145 868 163 879 205 879 c 0
 247 879 265 868 265 847 c 2
 265 787 l 2
 265 766 247 755 205 755 c 0
 163 755 145 766 145 787 c 2
 145 847 l 2xf6
325 847 m 2
 325 868 343 879 385 879 c 0
 427 879 445 868 445 847 c 2
 445 787 l 2
 445 766 427 755 385 755 c 0
 343 755 325 766 325 787 c 2
 325 847 l 2
475 700 m 2
 496 700 505 685 505 650 c 2
 505 619 l 2
 505 584 496 569 475 569 c 2
 223 569 l 1
 223 424 l 1
 448 424 l 2
 469 424 478 409 478 374 c 2
 478 343 l 2
 478 308 469 293 448 293 c 2
 223 293 l 1
 223 131 l 1
 476 131 l 2
 497 131 506 116 506 81 c 2
 506 50 l 2
 506 15 497 0 476 0 c 2
 109 0 l 2
 81 0 69 12 69 40 c 2
 69 660 l 2
 69 688 81 700 109 700 c 2xea
 475 700 l 2
EndSplineSet
Position2: "'cpsp' Capital Spacing lookup 3 subtable" dx=5 dy=0 dh=10 dv=0
EndChar

StartChar: Edotaccent
Encoding: 278 278 53
Width: 546
Flags: MW
HStem: 0 131<95 476 223 476 223 476> 293 131<223 448 223 448> 569 131<223 475 223 223> 755 124<274 316>
VStem: 69 154<131 293 424 569> 235 120<787 847 776.5 857.5>
LayerCount: 2
Fore
SplineSet
235 847 m 2
 235 868 253 879 295 879 c 0
 337 879 355 868 355 847 c 2
 355 787 l 2
 355 766 337 755 295 755 c 0
 253 755 235 766 235 787 c 2
 235 847 l 2
475 700 m 2
 496 700 505 685 505 650 c 2
 505 619 l 2
 505 584 496 569 475 569 c 2
 223 569 l 1
 223 424 l 1
 448 424 l 2
 469 424 478 409 478 374 c 2
 478 343 l 2
 478 308 469 293 448 293 c 2
 223 293 l 1
 223 131 l 1
 476 131 l 2
 497 131 506 116 506 81 c 2
 506 50 l 2
 506 15 497 0 476 0 c 2
 109 0 l 2
 81 0 69 12 69 40 c 2
 69 660 l 2
 69 688 81 700 109 700 c 2xe8
 475 700 l 2
EndSplineSet
Position2: "'cpsp' Capital Spacing lookup 3 subtable" dx=5 dy=0 dh=10 dv=0
EndChar

StartChar: Edotbelow
Encoding: 7864 7864 54
Width: 546
Flags: MW
HStem: -204 124<268 310> 0 131<95 476 223 476 223 476> 293 131<223 448 223 448> 569 131<223 475 223 223>
VStem: 69 154<131 293 424 569> 229 120<-172 -112 -182.5 -101.5>
LayerCount: 2
Fore
SplineSet
475 700 m 2
 496 700 505 685 505 650 c 2
 505 619 l 2
 505 584 496 569 475 569 c 2
 223 569 l 1
 223 424 l 1
 448 424 l 2
 469 424 478 409 478 374 c 2
 478 343 l 2
 478 308 469 293 448 293 c 2
 223 293 l 1
 223 131 l 1
 476 131 l 2
 497 131 506 116 506 81 c 2
 506 50 l 2
 506 15 497 0 476 0 c 2
 109 0 l 2
 81 0 69 12 69 40 c 2
 69 660 l 2
 69 688 81 700 109 700 c 2
 475 700 l 2
229 -112 m 2xf4
 229 -91 247 -80 289 -80 c 0
 331 -80 349 -91 349 -112 c 2
 349 -172 l 2
 349 -193 331 -204 289 -204 c 0
 247 -204 229 -193 229 -172 c 2
 229 -112 l 2xf4
EndSplineSet
Position2: "'cpsp' Capital Spacing lookup 3 subtable" dx=5 dy=0 dh=10 dv=0
EndChar

StartChar: Egrave
Encoding: 200 200 55
Width: 546
Flags: MW
HStem: 0 131<95 476 223 476 223 476> 293 131<223 448 223 448> 569 131<223 475 223 223> 752 159<201 352>
VStem: 69 154<131 293 424 569>
LayerCount: 2
Fore
SplineSet
221 911 m 0
 261 911 294 905 306 884 c 0
 352 803 371 778 371 767 c 0
 371 756 364 752 340 752 c 0
 293 752 276 765 265 777 c 0
 168 883 161 885 161 897 c 0
 161 908 181 911 221 911 c 0
475 700 m 2
 496 700 505 685 505 650 c 2
 505 619 l 2
 505 584 496 569 475 569 c 2
 223 569 l 1
 223 424 l 1
 448 424 l 2
 469 424 478 409 478 374 c 2
 478 343 l 2
 478 308 469 293 448 293 c 2
 223 293 l 1
 223 131 l 1
 476 131 l 2
 497 131 506 116 506 81 c 2
 506 50 l 2
 506 15 497 0 476 0 c 2
 109 0 l 2
 81 0 69 12 69 40 c 2
 69 660 l 2
 69 688 81 700 109 700 c 2
 475 700 l 2
EndSplineSet
Position2: "'cpsp' Capital Spacing lookup 3 subtable" dx=5 dy=0 dh=10 dv=0
EndChar

StartChar: Ehookabove
Encoding: 7866 7866 56
Width: 546
Flags: MW
HStem: 0 131<95 476 223 476 223 476> 293 131<223 448 223 448> 569 131<223 475 223 223> 867 61<290.5 308>
VStem: 69 154<131 293 424 569> 332 87<830 852>
LayerCount: 2
Fore
SplineSet
332 845 m 0
 332 859 316 867 300 867 c 0
 278 867 267 855 258 855 c 0
 250 855 228 882 228 897 c 0
 228 910 273 928 308 928 c 0
 380 928 419 898 419 849 c 0
 419 796 337 747 319 747 c 0
 295 747 265 762 265 770 c 0
 265 787 332 815 332 845 c 0
475 700 m 2
 496 700 505 685 505 650 c 2
 505 619 l 2
 505 584 496 569 475 569 c 2
 223 569 l 1
 223 424 l 1
 448 424 l 2
 469 424 478 409 478 374 c 2
 478 343 l 2
 478 308 469 293 448 293 c 2
 223 293 l 1
 223 131 l 1
 476 131 l 2
 497 131 506 116 506 81 c 2
 506 50 l 2
 506 15 497 0 476 0 c 2
 109 0 l 2
 81 0 69 12 69 40 c 2
 69 660 l 2
 69 688 81 700 109 700 c 2
 475 700 l 2
EndSplineSet
Position2: "'cpsp' Capital Spacing lookup 3 subtable" dx=5 dy=0 dh=10 dv=0
EndChar

StartChar: Emacron
Encoding: 274 274 57
Width: 546
Flags: MW
HStem: 0 131<95 476 223 476 223 476> 293 131<223 448 223 448> 569 131<223 475 223 223> 774 95<177.5 403 188 403>
VStem: 69 154<131 293 424 569>
LayerCount: 2
Fore
SplineSet
403 869 m 2
 424 869 433 857 433 829 c 2
 433 814 l 2
 433 786 424 774 403 774 c 2
 188 774 l 2
 167 774 158 786 158 814 c 2
 158 829 l 2
 158 857 167 869 188 869 c 2
 403 869 l 2
475 700 m 2
 496 700 505 685 505 650 c 2
 505 619 l 2
 505 584 496 569 475 569 c 2
 223 569 l 1
 223 424 l 1
 448 424 l 2
 469 424 478 409 478 374 c 2
 478 343 l 2
 478 308 469 293 448 293 c 2
 223 293 l 1
 223 131 l 1
 476 131 l 2
 497 131 506 116 506 81 c 2
 506 50 l 2
 506 15 497 0 476 0 c 2
 109 0 l 2
 81 0 69 12 69 40 c 2
 69 660 l 2
 69 688 81 700 109 700 c 2
 475 700 l 2
EndSplineSet
Position2: "'cpsp' Capital Spacing lookup 3 subtable" dx=5 dy=0 dh=10 dv=0
EndChar

StartChar: Eogonek
Encoding: 280 280 58
Width: 546
Flags: MW
HStem: -183 70<512.5 532> 0 131<95 476 223 420 473 476 473 473> 293 131<223 448 223 448> 569 131<223 475 223 223>
VStem: 69 154<131 293 424 569> 395 67<-86 -72.5>
LayerCount: 2
Fore
SplineSet
473 0 m 1
 473 -5 l 2
 473 -20 462 -33 462 -62 c 0
 462 -110 501 -113 524 -113 c 0
 549 -113 555 -105 573 -105 c 0
 587 -105 595 -114 595 -133 c 0
 595 -175 551 -183 513 -183 c 0
 406 -183 395 -110 395 -81 c 0
 395 -64 399 -22 420 0 c 1
 109 0 l 2
 81 0 69 12 69 40 c 2
 69 660 l 2
 69 688 81 700 109 700 c 2
 475 700 l 2
 496 700 505 685 505 650 c 2
 505 619 l 2
 505 584 496 569 475 569 c 2
 223 569 l 1
 223 424 l 1
 448 424 l 2
 469 424 478 409 478 374 c 2
 478 343 l 2
 478 308 469 293 448 293 c 2
 223 293 l 1
 223 131 l 1
 476 131 l 2
 497 131 506 116 506 81 c 2
 506 50 l 2
 506 15 497 0 476 0 c 2
 473 0 l 1
EndSplineSet
Position2: "'cpsp' Capital Spacing lookup 3 subtable" dx=5 dy=0 dh=10 dv=0
EndChar

StartChar: Etilde
Encoding: 7868 7868 59
Width: 546
Flags: MW
HStem: 0 131<95 476 223 476 223 476> 293 131<223 448 223 448> 569 131<223 475 223 223> 757 86<350.5 364.5> 784 86<216.5 232>
VStem: 69 154<131 293 424 569>
LayerCount: 2
Fore
SplineSet
414 858 m 0xf4
 420 862 427 864 433 864 c 0
 441 864 450 861 458 852 c 0
 464 845 467 839 467 832 c 0
 467 823 462 812 450 798 c 1
 425 773 385 757 344 757 c 0xf4
 309 757 291 765 272 773 c 0
 258 779 243 784 221 784 c 0
 199 784 185 777 171 770 c 0
 167 768 163 767 159 767 c 0
 148 767 138 773 129 784 c 0
 124 790 122 797 122 803 c 0
 122 812 126 821 134 829 c 1
 163 852 196 870 237 870 c 0xec
 275 870 296 861 315 854 c 0
 329 848 341 843 360 843 c 0
 382 843 397 848 414 858 c 0xf4
475 700 m 2
 496 700 505 685 505 650 c 2
 505 619 l 2
 505 584 496 569 475 569 c 2
 223 569 l 1
 223 424 l 1
 448 424 l 2
 469 424 478 409 478 374 c 2
 478 343 l 2
 478 308 469 293 448 293 c 2
 223 293 l 1
 223 131 l 1
 476 131 l 2
 497 131 506 116 506 81 c 2
 506 50 l 2
 506 15 497 0 476 0 c 2
 109 0 l 2
 81 0 69 12 69 40 c 2
 69 660 l 2
 69 688 81 700 109 700 c 2
 475 700 l 2
EndSplineSet
Position2: "'cpsp' Capital Spacing lookup 3 subtable" dx=5 dy=0 dh=10 dv=0
EndChar

StartChar: F
Encoding: 70 70 60
Width: 503
Flags: MW
HStem: -2 21G<108 129 129 163> 292 131<223 436 223 436> 569 131<223 443 223 223>
VStem: 69 154<30 292 423 569>
LayerCount: 2
Fore
SplineSet
443 700 m 2
 464 700 473 685 473 650 c 2
 473 619 l 2
 473 584 464 569 443 569 c 2
 223 569 l 1
 223 423 l 1
 436 423 l 2
 457 423 466 408 466 373 c 2
 466 342 l 2
 466 307 457 292 436 292 c 2
 223 292 l 1
 223 30 l 2
 223 9 205 -2 163 -2 c 2
 129 -2 l 2
 87 -2 69 9 69 30 c 2
 69 660 l 2
 69 688 81 700 109 700 c 2
 443 700 l 2
EndSplineSet
Position2: "'cpsp' Capital Spacing lookup 3 subtable" dx=5 dy=0 dh=10 dv=0
EndChar

StartChar: G
Encoding: 71 71 61
Width: 672
Flags: MW
HStem: -8 131<316.5 388 316.5 409.5> 257 132<353.5 567 364 452> 576 132<317 423 268 423.5>
VStem: 45 158<276 426 276 471> 452 155<130 257 257 257>
LayerCount: 2
Fore
SplineSet
607 71 m 2
 607 2 445 -8 374 -8 c 0
 150 -8 45 105 45 352 c 0
 45 590 157 708 379 708 c 0
 467 708 593 680 593 638 c 0
 593 610 553 544 528 544 c 0
 516 544 471 576 376 576 c 0
 258 576 203 501 203 351 c 0
 203 201 259 123 374 123 c 0
 402 123 425 125 452 130 c 1
 452 257 l 1
 364 257 l 2
 343 257 334 272 334 307 c 2
 334 339 l 2
 334 374 343 389 364 389 c 2
 567 389 l 2
 595 389 607 377 607 349 c 2
 607 71 l 2
EndSplineSet
Position2: "'cpsp' Capital Spacing lookup 3 subtable" dx=5 dy=0 dh=10 dv=0
EndChar

StartChar: Gbreve
Encoding: 286 286 62
Width: 672
Flags: MW
HStem: -8 131<316.5 388 316.5 409.5> 257 132<353.5 567 364 452> 576 132<317 423 268 423.5> 752 91<324.5 377 324.5 393.5>
VStem: 45 158<276 426 276 471> 452 155<130 257 257 257>
LayerCount: 2
Fore
SplineSet
462 892 m 0
 484 892 497 882 497 864 c 0
 497 807 437 752 350 752 c 0
 263 752 203 807 203 864 c 0
 203 882 216 892 238 892 c 0
 255 892 262 884 271 874 c 0
 284 860 299 843 350 843 c 0
 404 843 418 862 431 876 c 0
 439 885 446 892 462 892 c 0
607 71 m 2
 607 2 445 -8 374 -8 c 0
 150 -8 45 105 45 352 c 0
 45 590 157 708 379 708 c 0
 467 708 593 680 593 638 c 0
 593 610 553 544 528 544 c 0
 516 544 471 576 376 576 c 0
 258 576 203 501 203 351 c 0
 203 201 259 123 374 123 c 0
 402 123 425 125 452 130 c 1
 452 257 l 1
 364 257 l 2
 343 257 334 272 334 307 c 2
 334 339 l 2
 334 374 343 389 364 389 c 2
 567 389 l 2
 595 389 607 377 607 349 c 2
 607 71 l 2
EndSplineSet
Position2: "'cpsp' Capital Spacing lookup 3 subtable" dx=5 dy=0 dh=10 dv=0
EndChar

StartChar: Gcircumflex
Encoding: 284 284 63
Width: 672
Flags: MW
HStem: -8 131<316.5 388 316.5 409.5> 257 132<353.5 567 364 452> 576 132<317 423 268 423.5> 749 146<226 356 233 356 345 446 345 468>
VStem: 45 158<276 426 276 471> 452 155<130 257 257 257>
LayerCount: 2
Fore
SplineSet
356 895 m 2
 385 895 406 894 417 876 c 2
 482 774 l 2
 486 768 488 763 488 759 c 0
 488 752 481 749 468 749 c 2
 446 749 l 2
 417 749 391 754 378 773 c 2
 350 813 l 1
 322 774 l 2
 307 753 284 749 255 749 c 2
 233 749 l 2
 219 749 213 752 213 759 c 0
 213 763 215 768 219 774 c 2
 284 876 l 2
 295 894 316 895 345 895 c 2
 356 895 l 2
607 71 m 2
 607 2 445 -8 374 -8 c 0
 150 -8 45 105 45 352 c 0
 45 590 157 708 379 708 c 0
 467 708 593 680 593 638 c 0
 593 610 553 544 528 544 c 0
 516 544 471 576 376 576 c 0
 258 576 203 501 203 351 c 0
 203 201 259 123 374 123 c 0
 402 123 425 125 452 130 c 1
 452 257 l 1
 364 257 l 2
 343 257 334 272 334 307 c 2
 334 339 l 2
 334 374 343 389 364 389 c 2
 567 389 l 2
 595 389 607 377 607 349 c 2
 607 71 l 2
EndSplineSet
Position2: "'cpsp' Capital Spacing lookup 3 subtable" dx=5 dy=0 dh=10 dv=0
EndChar

StartChar: Gcommaaccent
Encoding: 290 290 64
Width: 672
Flags: MW
HStem: -240 21G<300 326.5> -8 131<316.5 388 316.5 409.5> 257 132<353.5 567 364 452> 576 132<317 423 268 423.5>
VStem: 45 158<276 426 276 471> 288 129<-128.5 -82.5 -128.5 -81.5> 452 155<130 257 257 257>
LayerCount: 2
Fore
SplineSet
607 71 m 2
 607 2 445 -8 374 -8 c 0
 150 -8 45 105 45 352 c 0
 45 590 157 708 379 708 c 0
 467 708 593 680 593 638 c 0
 593 610 553 544 528 544 c 0
 516 544 471 576 376 576 c 0
 258 576 203 501 203 351 c 0
 203 201 259 123 374 123 c 0
 402 123 425 125 452 130 c 1
 452 257 l 1
 364 257 l 2
 343 257 334 272 334 307 c 2
 334 339 l 2
 334 374 343 389 364 389 c 2
 567 389 l 2
 595 389 607 377 607 349 c 2
 607 71 l 2
367 -51 m 2
 402 -51 417 -70 417 -95 c 0
 417 -162 344 -240 309 -240 c 0
 291 -240 264 -234 264 -218 c 0
 264 -200 288 -175 288 -95 c 0
 288 -68 306 -51 348 -51 c 2
 367 -51 l 2
EndSplineSet
Position2: "'cpsp' Capital Spacing lookup 3 subtable" dx=5 dy=0 dh=10 dv=0
EndChar

StartChar: Gdotaccent
Encoding: 288 288 65
Width: 672
Flags: MW
HStem: -8 131<316.5 388 316.5 409.5> 257 132<353.5 567 364 452> 576 132<317 423 268 423.5> 755 124<329 371>
VStem: 45 158<276 426 276 471> 290 120<787 847 776.5 857.5> 452 155<130 257 257 257>
LayerCount: 2
Fore
SplineSet
290 847 m 2
 290 868 308 879 350 879 c 0
 392 879 410 868 410 847 c 2
 410 787 l 2
 410 766 392 755 350 755 c 0
 308 755 290 766 290 787 c 2
 290 847 l 2
607 71 m 2
 607 2 445 -8 374 -8 c 0
 150 -8 45 105 45 352 c 0
 45 590 157 708 379 708 c 0
 467 708 593 680 593 638 c 0
 593 610 553 544 528 544 c 0
 516 544 471 576 376 576 c 0
 258 576 203 501 203 351 c 0
 203 201 259 123 374 123 c 0
 402 123 425 125 452 130 c 1
 452 257 l 1
 364 257 l 2
 343 257 334 272 334 307 c 2
 334 339 l 2
 334 374 343 389 364 389 c 2
 567 389 l 2
 595 389 607 377 607 349 c 2
 607 71 l 2
EndSplineSet
Position2: "'cpsp' Capital Spacing lookup 3 subtable" dx=5 dy=0 dh=10 dv=0
EndChar

StartChar: H
Encoding: 72 72 66
Width: 733
Flags: MW
HStem: -2 21G<123 144 144 179 548 569 569 604> 291 132<239 509 239 509> 682 20G<144 179 179 200 569 604 604 625>
VStem: 84 155<30 291 423 670> 509 155<30 291 291 291 423 670>
LayerCount: 2
Fore
SplineSet
604 702 m 2
 646 702 664 691 664 670 c 2
 664 30 l 2
 664 9 646 -2 604 -2 c 2
 569 -2 l 2
 527 -2 509 9 509 30 c 2
 509 291 l 1
 239 291 l 1
 239 30 l 2
 239 9 221 -2 179 -2 c 2
 144 -2 l 2
 102 -2 84 9 84 30 c 2
 84 670 l 2
 84 691 102 702 144 702 c 2
 179 702 l 2
 221 702 239 691 239 670 c 2
 239 423 l 1
 509 423 l 1
 509 670 l 2
 509 691 527 702 569 702 c 2
 604 702 l 2
EndSplineSet
Position2: "'cpsp' Capital Spacing lookup 3 subtable" dx=5 dy=0 dh=10 dv=0
EndChar

StartChar: Hbar
Encoding: 294 294 67
Width: 733
Flags: MW
HStem: -2 21G<123 144 144 179 548 569 569 604> 291 132<239 509 239 509> 476 95<49.5 84 60 84 239 509 664 675> 682 20G<144 179 179 200 569 604 604 625>
VStem: 84 155<30 291 423 476 571 670> 509 155<30 291 291 291 423 476 571 670>
LayerCount: 2
Fore
SplineSet
675 571 m 2
 696 571 705 559 705 531 c 2
 705 516 l 2
 705 488 696 476 675 476 c 2
 664 476 l 1
 664 30 l 2
 664 9 646 -2 604 -2 c 2
 569 -2 l 2
 527 -2 509 9 509 30 c 2
 509 291 l 1
 239 291 l 1
 239 30 l 2
 239 9 221 -2 179 -2 c 2
 144 -2 l 2
 102 -2 84 9 84 30 c 2
 84 476 l 1
 60 476 l 2
 39 476 30 488 30 516 c 2
 30 531 l 2
 30 559 39 571 60 571 c 2
 84 571 l 1
 84 670 l 2
 84 691 102 702 144 702 c 2
 179 702 l 2
 221 702 239 691 239 670 c 2
 239 571 l 1
 509 571 l 1
 509 670 l 2
 509 691 527 702 569 702 c 2
 604 702 l 2
 646 702 664 691 664 670 c 2
 664 571 l 1
 675 571 l 2
509 476 m 1
 239 476 l 1
 239 423 l 1
 509 423 l 1
 509 476 l 1
EndSplineSet
Position2: "'cpsp' Capital Spacing lookup 3 subtable" dx=5 dy=0 dh=10 dv=0
EndChar

StartChar: Hcircumflex
Encoding: 292 292 68
Width: 733
Flags: MW
HStem: -2 21G<123 144 144 179 548 569 569 604> 291 132<239 509 239 509> 682 20G<144 179 179 200 569 604 604 625> 749 146<243 373 250 373 362 463 362 485>
VStem: 84 155<30 291 423 670> 509 155<30 291 291 291 423 670>
LayerCount: 2
Fore
SplineSet
373 895 m 2
 402 895 423 894 434 876 c 2
 499 774 l 2
 503 768 505 763 505 759 c 0
 505 752 498 749 485 749 c 2
 463 749 l 2
 434 749 408 754 395 773 c 2
 367 813 l 1
 339 774 l 2
 324 753 301 749 272 749 c 2
 250 749 l 2
 236 749 230 752 230 759 c 0
 230 763 232 768 236 774 c 2
 301 876 l 2
 312 894 333 895 362 895 c 2
 373 895 l 2
604 702 m 2
 646 702 664 691 664 670 c 2
 664 30 l 2
 664 9 646 -2 604 -2 c 2
 569 -2 l 2
 527 -2 509 9 509 30 c 2
 509 291 l 1
 239 291 l 1
 239 30 l 2
 239 9 221 -2 179 -2 c 2
 144 -2 l 2
 102 -2 84 9 84 30 c 2
 84 670 l 2
 84 691 102 702 144 702 c 2
 179 702 l 2
 221 702 239 691 239 670 c 2
 239 423 l 1
 509 423 l 1
 509 670 l 2
 509 691 527 702 569 702 c 2
 604 702 l 2
EndSplineSet
Position2: "'cpsp' Capital Spacing lookup 3 subtable" dx=5 dy=0 dh=10 dv=0
EndChar

StartChar: Hdotbelow
Encoding: 7716 7716 69
Width: 733
Flags: MW
HStem: -204 124<362 404> -2 21G<123 144 144 179 548 569 569 604> 291 132<239 509 239 509> 682 20G<144 179 179 200 569 604 604 625>
VStem: 84 155<30 291 423 670> 323 120<-172 -112 -182.5 -101.5> 509 155<30 291 291 291 423 670>
LayerCount: 2
Fore
SplineSet
604 702 m 2
 646 702 664 691 664 670 c 2
 664 30 l 2
 664 9 646 -2 604 -2 c 2
 569 -2 l 2
 527 -2 509 9 509 30 c 2
 509 291 l 1
 239 291 l 1
 239 30 l 2
 239 9 221 -2 179 -2 c 2
 144 -2 l 2
 102 -2 84 9 84 30 c 2
 84 670 l 2
 84 691 102 702 144 702 c 2
 179 702 l 2
 221 702 239 691 239 670 c 2
 239 423 l 1
 509 423 l 1
 509 670 l 2
 509 691 527 702 569 702 c 2
 604 702 l 2
323 -112 m 2
 323 -91 341 -80 383 -80 c 0
 425 -80 443 -91 443 -112 c 2
 443 -172 l 2
 443 -193 425 -204 383 -204 c 0
 341 -204 323 -193 323 -172 c 2
 323 -112 l 2
EndSplineSet
Position2: "'cpsp' Capital Spacing lookup 3 subtable" dx=5 dy=0 dh=10 dv=0
EndChar

StartChar: I
Encoding: 73 73 70
Width: 282
Flags: MW
HStem: -3 21G<102 123 123 158> 683 20G<123 158 158 179>
VStem: 63 155<30 670>
LayerCount: 2
Fore
SplineSet
158 703 m 2
 200 703 218 691 218 670 c 2
 218 30 l 2
 218 9 200 -3 158 -3 c 2
 123 -3 l 2
 81 -3 63 9 63 30 c 2
 63 670 l 2
 63 691 81 703 123 703 c 2
 158 703 l 2
EndSplineSet
Position2: "'cpsp' Capital Spacing lookup 3 subtable" dx=5 dy=0 dh=10 dv=0
EndChar

StartChar: IJ
Encoding: 306 306 71
Width: 684
Flags: MW
HStem: -8 131<394 409 363 480.5> -3 21G<102 123 123 158> 683 20G<123 158 158 179 523 558 558 579>
VStem: 63 155<30 670> 463 155<227 670>
LayerCount: 2
Fore
SplineSet
158 703 m 2xb8
 200 703 218 691 218 670 c 2
 218 30 l 2
 218 9 200 -3 158 -3 c 2
 123 -3 l 2
 81 -3 63 9 63 30 c 2x78
 63 670 l 2
 63 691 81 703 123 703 c 2
 158 703 l 2xb8
558 703 m 2
 600 703 618 691 618 670 c 2
 618 202 l 2
 618 75 555 -8 406 -8 c 0
 382 -8 282 -5 282 38 c 0
 282 56 292 128 323 131 c 0
 333 131 347 123 379 123 c 0
 439 123 463 154 463 227 c 2
 463 670 l 2
 463 691 481 703 523 703 c 2
 558 703 l 2
EndSplineSet
Position2: "'cpsp' Capital Spacing lookup 3 subtable" dx=5 dy=0 dh=10 dv=0
EndChar

StartChar: Iacute
Encoding: 205 205 72
Width: 282
Flags: MW
HStem: -3 21G<102 123 123 158> 683 20G<123 158 158 179> 752 159<90 241>
VStem: 63 155<30 670>
LayerCount: 2
Fore
SplineSet
221 911 m 0
 261 911 281 908 281 897 c 0
 281 885 274 883 177 777 c 0
 166 765 149 752 102 752 c 0
 78 752 71 756 71 767 c 0
 71 778 90 803 136 884 c 0
 148 905 181 911 221 911 c 0
158 703 m 2
 200 703 218 691 218 670 c 2
 218 30 l 2
 218 9 200 -3 158 -3 c 2
 123 -3 l 2
 81 -3 63 9 63 30 c 2
 63 670 l 2
 63 691 81 703 123 703 c 2
 158 703 l 2
EndSplineSet
Position2: "'cpsp' Capital Spacing lookup 3 subtable" dx=5 dy=0 dh=10 dv=0
EndChar

StartChar: Ibreve
Encoding: 300 300 73
Width: 282
Flags: MW
HStem: -3 21G<102 123 123 158> 683 20G<123 158 158 179> 752 91<115.5 168 115.5 184.5>
VStem: 63 155<30 670>
LayerCount: 2
Fore
SplineSet
253 892 m 0
 275 892 288 882 288 864 c 0
 288 807 228 752 141 752 c 0
 54 752 -6 807 -6 864 c 0
 -6 882 7 892 29 892 c 0
 46 892 53 884 62 874 c 0
 75 860 90 843 141 843 c 0
 195 843 209 862 222 876 c 0
 230 885 237 892 253 892 c 0
158 703 m 2
 200 703 218 691 218 670 c 2
 218 30 l 2
 218 9 200 -3 158 -3 c 2
 123 -3 l 2
 81 -3 63 9 63 30 c 2
 63 670 l 2
 63 691 81 703 123 703 c 2
 158 703 l 2
EndSplineSet
Position2: "'cpsp' Capital Spacing lookup 3 subtable" dx=5 dy=0 dh=10 dv=0
EndChar

StartChar: Icircumflex
Encoding: 206 206 74
Width: 282
Flags: MW
HStem: -3 21G<102 123 123 158> 683 20G<123 158 158 179> 749 146<17 147 24 147 136 237 136 259>
VStem: 63 155<30 670>
LayerCount: 2
Fore
SplineSet
147 895 m 2
 176 895 197 894 208 876 c 2
 273 774 l 2
 277 768 279 763 279 759 c 0
 279 752 272 749 259 749 c 2
 237 749 l 2
 208 749 182 754 169 773 c 2
 141 813 l 1
 113 774 l 2
 98 753 75 749 46 749 c 2
 24 749 l 2
 10 749 4 752 4 759 c 0
 4 763 6 768 10 774 c 2
 75 876 l 2
 86 894 107 895 136 895 c 2
 147 895 l 2
158 703 m 2
 200 703 218 691 218 670 c 2
 218 30 l 2
 218 9 200 -3 158 -3 c 2
 123 -3 l 2
 81 -3 63 9 63 30 c 2
 63 670 l 2
 63 691 81 703 123 703 c 2
 158 703 l 2
EndSplineSet
Position2: "'cpsp' Capital Spacing lookup 3 subtable" dx=5 dy=0 dh=10 dv=0
EndChar

StartChar: Idieresis
Encoding: 207 207 75
Width: 282
Flags: MW
HStem: -3 21G<102 123 123 158> 683 20G<123 158 158 179> 755 124<30 72 210 252>
VStem: -9 120<787 847 776.5 857.5> 63 155<30 670> 171 120<787 847 776.5 857.5>
LayerCount: 2
Fore
SplineSet
-9 847 m 2xf4
 -9 868 9 879 51 879 c 0
 93 879 111 868 111 847 c 2
 111 787 l 2
 111 766 93 755 51 755 c 0
 9 755 -9 766 -9 787 c 2
 -9 847 l 2xf4
171 847 m 2
 171 868 189 879 231 879 c 0
 273 879 291 868 291 847 c 2
 291 787 l 2
 291 766 273 755 231 755 c 0
 189 755 171 766 171 787 c 2
 171 847 l 2
158 703 m 2xe8
 200 703 218 691 218 670 c 2
 218 30 l 2
 218 9 200 -3 158 -3 c 2
 123 -3 l 2
 81 -3 63 9 63 30 c 2
 63 670 l 2
 63 691 81 703 123 703 c 2
 158 703 l 2xe8
EndSplineSet
Position2: "'cpsp' Capital Spacing lookup 3 subtable" dx=5 dy=0 dh=10 dv=0
EndChar

StartChar: Idotaccent
Encoding: 304 304 76
Width: 282
Flags: MW
HStem: -3 21G<102 123 123 158> 683 20G<123 158 158 179> 755 124<120 162>
VStem: 63 155<30 670> 81 120<787 847 776.5 857.5>
LayerCount: 2
Fore
SplineSet
81 847 m 2xe8
 81 868 99 879 141 879 c 0
 183 879 201 868 201 847 c 2
 201 787 l 2
 201 766 183 755 141 755 c 0
 99 755 81 766 81 787 c 2
 81 847 l 2xe8
158 703 m 2xf0
 200 703 218 691 218 670 c 2
 218 30 l 2
 218 9 200 -3 158 -3 c 2
 123 -3 l 2
 81 -3 63 9 63 30 c 2
 63 670 l 2
 63 691 81 703 123 703 c 2
 158 703 l 2xf0
EndSplineSet
Position2: "'cpsp' Capital Spacing lookup 3 subtable" dx=5 dy=0 dh=10 dv=0
EndChar

StartChar: Idotbelow
Encoding: 7882 7882 77
Width: 282
Flags: MW
HStem: -204 124<122 164> -3 21G<102 123 123 158> 683 20G<123 158 158 179>
VStem: 63 155<30 670> 83 120<-172 -112 -182.5 -101.5>
LayerCount: 2
Fore
SplineSet
158 703 m 2xf0
 200 703 218 691 218 670 c 2
 218 30 l 2
 218 9 200 -3 158 -3 c 2
 123 -3 l 2
 81 -3 63 9 63 30 c 2
 63 670 l 2
 63 691 81 703 123 703 c 2
 158 703 l 2xf0
83 -112 m 2xe8
 83 -91 101 -80 143 -80 c 0
 185 -80 203 -91 203 -112 c 2
 203 -172 l 2
 203 -193 185 -204 143 -204 c 0
 101 -204 83 -193 83 -172 c 2
 83 -112 l 2xe8
EndSplineSet
Position2: "'cpsp' Capital Spacing lookup 3 subtable" dx=5 dy=0 dh=10 dv=0
EndChar

StartChar: Igrave
Encoding: 204 204 78
Width: 282
Flags: MW
HStem: -3 21G<102 123 123 158> 683 20G<123 158 158 179> 752 159<47 198>
VStem: 63 155<30 670>
LayerCount: 2
Fore
SplineSet
67 911 m 0
 107 911 140 905 152 884 c 0
 198 803 217 778 217 767 c 0
 217 756 210 752 186 752 c 0
 139 752 122 765 111 777 c 0
 14 883 7 885 7 897 c 0
 7 908 27 911 67 911 c 0
158 703 m 2
 200 703 218 691 218 670 c 2
 218 30 l 2
 218 9 200 -3 158 -3 c 2
 123 -3 l 2
 81 -3 63 9 63 30 c 2
 63 670 l 2
 63 691 81 703 123 703 c 2
 158 703 l 2
EndSplineSet
Position2: "'cpsp' Capital Spacing lookup 3 subtable" dx=5 dy=0 dh=10 dv=0
EndChar

StartChar: Ihookabove
Encoding: 7880 7880 79
Width: 282
Flags: MW
HStem: -3 21G<102 123 123 158> 683 20G<123 158 158 179> 867 61<136.5 154>
VStem: 63 155<30 670> 178 87<830 852>
LayerCount: 2
Fore
SplineSet
178 845 m 0xe8
 178 859 162 867 146 867 c 0
 124 867 113 855 104 855 c 0
 96 855 74 882 74 897 c 0
 74 910 119 928 154 928 c 0
 226 928 265 898 265 849 c 0xe8
 265 796 183 747 165 747 c 0
 141 747 111 762 111 770 c 0xf0
 111 787 178 815 178 845 c 0xe8
158 703 m 2xf0
 200 703 218 691 218 670 c 2
 218 30 l 2
 218 9 200 -3 158 -3 c 2
 123 -3 l 2
 81 -3 63 9 63 30 c 2
 63 670 l 2
 63 691 81 703 123 703 c 2
 158 703 l 2xf0
EndSplineSet
Position2: "'cpsp' Capital Spacing lookup 3 subtable" dx=5 dy=0 dh=10 dv=0
EndChar

StartChar: Imacron
Encoding: 298 298 80
Width: 282
Flags: MW
HStem: -3 21G<102 123 123 158> 683 20G<123 158 158 179> 774 95<23.5 249 34 249>
VStem: 63 155<30 670>
LayerCount: 2
Fore
SplineSet
249 869 m 2
 270 869 279 857 279 829 c 2
 279 814 l 2
 279 786 270 774 249 774 c 2
 34 774 l 2
 13 774 4 786 4 814 c 2
 4 829 l 2
 4 857 13 869 34 869 c 2
 249 869 l 2
158 703 m 2
 200 703 218 691 218 670 c 2
 218 30 l 2
 218 9 200 -3 158 -3 c 2
 123 -3 l 2
 81 -3 63 9 63 30 c 2
 63 670 l 2
 63 691 81 703 123 703 c 2
 158 703 l 2
EndSplineSet
Position2: "'cpsp' Capital Spacing lookup 3 subtable" dx=5 dy=0 dh=10 dv=0
EndChar

StartChar: Iogonek
Encoding: 302 302 81
Width: 282
Flags: MW
HStem: -183 70<221.5 241> -3 21G<102 123 123 126> -1 21G<182 182> 683 20G<123 158 158 179>
VStem: 63 155<30 670>
LayerCount: 2
Fore
SplineSet
218 30 m 2xb8
 218 14 207 3 182 -1 c 1
 182 -5 l 2xb8
 182 -20 171 -33 171 -62 c 0
 171 -110 210 -113 233 -113 c 0
 258 -113 264 -105 282 -105 c 0
 296 -105 304 -114 304 -133 c 0
 304 -175 260 -183 222 -183 c 0
 115 -183 104 -110 104 -81 c 0
 104 -65 108 -26 126 -3 c 1
 123 -3 l 2
 81 -3 63 9 63 30 c 2xd8
 63 670 l 2
 63 691 81 703 123 703 c 2
 158 703 l 2
 200 703 218 691 218 670 c 2
 218 30 l 2xb8
EndSplineSet
Position2: "'cpsp' Capital Spacing lookup 3 subtable" dx=5 dy=0 dh=10 dv=0
EndChar

StartChar: Itilde
Encoding: 296 296 82
Width: 282
Flags: MW
HStem: -3 21G<102 123 123 158> 683 20G<123 158 158 179> 757 86<190.5 203.5> 784 86<70.5 84>
VStem: 63 155<30 670>
LayerCount: 2
Fore
SplineSet
248 858 m 0xe8
 253 862 259 864 266 864 c 0
 273 864 280 861 288 852 c 0
 293 846 295 839 295 832 c 0
 295 823 291 812 280 798 c 0
 258 773 222 757 185 757 c 0xe8
 154 757 137 765 120 773 c 0
 108 779 94 784 74 784 c 0
 55 784 42 777 29 770 c 0
 26 768 22 767 18 767 c 0
 9 767 -1 773 -8 784 c 0
 -13 790 -15 797 -15 804 c 0
 -15 813 -11 822 -4 829 c 0
 22 852 52 870 89 870 c 0xd8
 123 870 142 861 159 854 c 0
 172 848 182 843 199 843 c 0
 219 843 233 848 248 858 c 0xe8
158 703 m 2xd8
 200 703 218 691 218 670 c 2
 218 30 l 2
 218 9 200 -3 158 -3 c 2
 123 -3 l 2
 81 -3 63 9 63 30 c 2
 63 670 l 2
 63 691 81 703 123 703 c 2
 158 703 l 2xd8
EndSplineSet
Position2: "'cpsp' Capital Spacing lookup 3 subtable" dx=5 dy=0 dh=10 dv=0
EndChar

StartChar: J
Encoding: 74 74 83
Width: 402
Flags: MW
HStem: -8 131<112 127 81 198.5> 683 20G<241 276 276 297>
VStem: 181 155<227 670>
LayerCount: 2
Fore
SplineSet
276 703 m 2
 318 703 336 691 336 670 c 2
 336 202 l 2
 336 75 273 -8 124 -8 c 0
 100 -8 0 -5 0 38 c 0
 0 56 10 128 41 131 c 0
 51 131 65 123 97 123 c 0
 157 123 181 154 181 227 c 2
 181 670 l 2
 181 691 199 703 241 703 c 2
 276 703 l 2
EndSplineSet
Position2: "'cpsp' Capital Spacing lookup 3 subtable" dx=5 dy=0 dh=10 dv=0
EndChar

StartChar: Jcircumflex
Encoding: 308 308 84
Width: 402
Flags: MW
HStem: -8 131<112 127 81 198.5> 683 20G<241 276 276 297> 749 146<137 267 144 267 256 357 256 379>
VStem: 181 155<227 670>
LayerCount: 2
Fore
SplineSet
267 895 m 2
 296 895 317 894 328 876 c 2
 393 774 l 2
 397 768 399 763 399 759 c 0
 399 752 392 749 379 749 c 2
 357 749 l 2
 328 749 302 754 289 773 c 2
 261 813 l 1
 233 774 l 2
 218 753 195 749 166 749 c 2
 144 749 l 2
 130 749 124 752 124 759 c 0
 124 763 126 768 130 774 c 2
 195 876 l 2
 206 894 227 895 256 895 c 2
 267 895 l 2
276 703 m 2
 318 703 336 691 336 670 c 2
 336 202 l 2
 336 75 273 -8 124 -8 c 0
 100 -8 0 -5 0 38 c 0
 0 56 10 128 41 131 c 0
 51 131 65 123 97 123 c 0
 157 123 181 154 181 227 c 2
 181 670 l 2
 181 691 199 703 241 703 c 2
 276 703 l 2
EndSplineSet
Position2: "'cpsp' Capital Spacing lookup 3 subtable" dx=5 dy=0 dh=10 dv=0
EndChar

StartChar: K
Encoding: 75 75 85
Width: 576
Flags: MW
HStem: -2 21G<108 129 129 164 462.5 477 477 535> 682 20G<129 164 164 185 462 509 509 528.5>
VStem: 69 155<30 320 402 670>
LayerCount: 2
Fore
SplineSet
509 702 m 2
 548 702 565 696 565 687 c 0
 565 682 563 675 557 666 c 2
 364 370 l 1
 583 34 l 2
 589 25 591 18 591 13 c 0
 591 4 574 -2 535 -2 c 2
 477 -2 l 2
 448 -2 425 2 416 17 c 2
 228 321 l 1
 224 320 l 1
 224 30 l 2
 224 9 206 -2 164 -2 c 2
 129 -2 l 2
 87 -2 69 9 69 30 c 2
 69 670 l 2
 69 691 87 702 129 702 c 2
 164 702 l 2
 206 702 224 691 224 670 c 2
 224 402 l 1
 228 401 l 1
 402 683 l 2
 411 698 433 702 462 702 c 2
 509 702 l 2
EndSplineSet
Position2: "'cpsp' Capital Spacing lookup 3 subtable" dx=5 dy=0 dh=10 dv=0
EndChar

StartChar: Kcommaaccent
Encoding: 310 310 86
Width: 576
Flags: MW
HStem: -240 21G<243 269.5> -2 21G<108 129 129 164 462.5 477 477 535> 682 20G<129 164 164 185 462 509 509 528.5>
VStem: 69 155<30 320 402 670> 231 129<-128.5 -82.5 -128.5 -81.5>
LayerCount: 2
Fore
SplineSet
509 702 m 2
 548 702 565 696 565 687 c 0
 565 682 563 675 557 666 c 2
 364 370 l 1
 583 34 l 2
 589 25 591 18 591 13 c 0
 591 4 574 -2 535 -2 c 2
 477 -2 l 2
 448 -2 425 2 416 17 c 2
 228 321 l 1
 224 320 l 1
 224 30 l 2
 224 9 206 -2 164 -2 c 2
 129 -2 l 2
 87 -2 69 9 69 30 c 2
 69 670 l 2
 69 691 87 702 129 702 c 2
 164 702 l 2
 206 702 224 691 224 670 c 2
 224 402 l 1
 228 401 l 1
 402 683 l 2
 411 698 433 702 462 702 c 2
 509 702 l 2
310 -51 m 2xe8
 345 -51 360 -70 360 -95 c 0
 360 -162 287 -240 252 -240 c 0
 234 -240 207 -234 207 -218 c 0
 207 -200 231 -175 231 -95 c 0
 231 -68 249 -51 291 -51 c 2
 310 -51 l 2xe8
EndSplineSet
Position2: "'cpsp' Capital Spacing lookup 3 subtable" dx=5 dy=0 dh=10 dv=0
EndChar

StartChar: L
Encoding: 76 76 87
Width: 484
Flags: MW
HStem: 0 131<95 446 223 446 223 446> 682 20G<129 163 163 184>
VStem: 69 154<131 670 131 670 131 680.5>
LayerCount: 2
Fore
SplineSet
163 702 m 2
 205 702 223 691 223 670 c 2
 223 131 l 1
 446 131 l 2
 467 131 476 116 476 81 c 2
 476 50 l 2
 476 15 467 0 446 0 c 2
 109 0 l 2
 81 0 69 12 69 40 c 2
 69 670 l 2
 69 691 87 702 129 702 c 2
 163 702 l 2
EndSplineSet
Position2: "'cpsp' Capital Spacing lookup 3 subtable" dx=5 dy=0 dh=10 dv=0
EndChar

StartChar: LJ
Encoding: 455 455 88
Width: 718
Flags: MW
HStem: -181 131<436 451 405 522.5> 0 131<95 376 223 376 223 376> 682 20G<129 163 163 184> 683 20G<565 600 600 621>
VStem: 69 154<131 670 131 670 131 680.5> 505 155<54 670>
LayerCount: 2
Fore
SplineSet
600 703 m 2xdc
 642 703 660 691 660 670 c 2
 660 42 l 2
 660 -85 597 -181 448 -181 c 0
 424 -181 324 -178 324 -135 c 0
 324 -117 334 -45 365 -42 c 0
 375 -42 389 -50 421 -50 c 0
 481 -50 505 -19 505 54 c 2
 505 670 l 2
 505 691 523 703 565 703 c 2
 600 703 l 2xdc
163 702 m 2xec
 205 702 223 691 223 670 c 2
 223 131 l 1
 376 131 l 2
 397 131 406 116 406 81 c 2
 406 50 l 2
 406 15 397 0 376 0 c 2
 109 0 l 2
 81 0 69 12 69 40 c 2
 69 670 l 2
 69 691 87 702 129 702 c 2
 163 702 l 2xec
EndSplineSet
Position2: "'cpsp' Capital Spacing lookup 3 subtable" dx=5 dy=0 dh=10 dv=0
EndChar

StartChar: Lacute
Encoding: 313 313 89
Width: 484
Flags: MW
HStem: 0 131<95 446 223 446 223 446> 682 20G<129 163 163 184> 752 159<99 250>
VStem: 69 154<131 670 131 670 131 680.5>
LayerCount: 2
Fore
SplineSet
230 911 m 0
 270 911 290 908 290 897 c 0
 290 885 283 883 186 777 c 0
 175 765 158 752 111 752 c 0
 87 752 80 756 80 767 c 0
 80 778 99 803 145 884 c 0
 157 905 190 911 230 911 c 0
163 702 m 2
 205 702 223 691 223 670 c 2
 223 131 l 1
 446 131 l 2
 467 131 476 116 476 81 c 2
 476 50 l 2
 476 15 467 0 446 0 c 2
 109 0 l 2
 81 0 69 12 69 40 c 2
 69 670 l 2
 69 691 87 702 129 702 c 2
 163 702 l 2
EndSplineSet
Position2: "'cpsp' Capital Spacing lookup 3 subtable" dx=5 dy=0 dh=10 dv=0
EndChar

StartChar: Lcaron
Encoding: 317 317 90
Width: 484
Flags: MW
HStem: 0 131<95 446 223 446 223 446> 680 20G<379 398 398 415.5> 682 20G<129 163 163 184>
VStem: 69 154<131 670 131 670 131 680.5> 315 133<525 668.5>
LayerCount: 2
Fore
SplineSet
163 702 m 2xb0
 205 702 223 691 223 670 c 2
 223 131 l 1
 446 131 l 2
 467 131 476 116 476 81 c 2
 476 50 l 2
 476 15 467 0 446 0 c 2
 109 0 l 2
 81 0 69 12 69 40 c 2
 69 670 l 2
 69 691 87 702 129 702 c 2
 163 702 l 2xb0
398 700 m 2xd8
 433 700 448 681 448 656 c 0
 448 589 389 513 360 511 c 1
 342 511 315 517 315 533 c 0
 315 584 319 621 319 656 c 0
 319 683 337 700 379 700 c 2
 398 700 l 2xd8
EndSplineSet
Position2: "'cpsp' Capital Spacing lookup 3 subtable" dx=5 dy=0 dh=10 dv=0
EndChar

StartChar: Lcommaaccent
Encoding: 315 315 91
Width: 484
Flags: MW
HStem: -240 21G<187 213.5> 0 131<95 446 223 446 223 446> 682 20G<129 163 163 184>
VStem: 69 154<131 670 131 670 131 680.5> 175 129<-128.5 -82.5 -128.5 -81.5>
LayerCount: 2
Fore
SplineSet
163 702 m 2xf0
 205 702 223 691 223 670 c 2
 223 131 l 1
 446 131 l 2
 467 131 476 116 476 81 c 2
 476 50 l 2
 476 15 467 0 446 0 c 2
 109 0 l 2
 81 0 69 12 69 40 c 2
 69 670 l 2
 69 691 87 702 129 702 c 2
 163 702 l 2xf0
254 -51 m 2xe8
 289 -51 304 -70 304 -95 c 0
 304 -162 231 -240 196 -240 c 0
 178 -240 151 -234 151 -218 c 0
 151 -200 175 -175 175 -95 c 0
 175 -68 193 -51 235 -51 c 2
 254 -51 l 2xe8
EndSplineSet
Position2: "'cpsp' Capital Spacing lookup 3 subtable" dx=5 dy=0 dh=10 dv=0
EndChar

StartChar: Ldot
Encoding: 319 319 92
Width: 484
Flags: MW
HStem: 0 131<95 446 223 446 223 446> 289 140<311.5 350.5> 682 20G<129 163 163 184>
VStem: 69 154<131 670 131 670 131 680.5> 261 140<339.5 378.5>
LayerCount: 2
Fore
SplineSet
163 702 m 2
 205 702 223 691 223 670 c 2
 223 131 l 1
 446 131 l 2
 467 131 476 116 476 81 c 2
 476 50 l 2
 476 15 467 0 446 0 c 2
 109 0 l 2
 81 0 69 12 69 40 c 2
 69 670 l 2
 69 691 87 702 129 702 c 2
 163 702 l 2
331 429 m 0
 370 429 401 398 401 359 c 0
 401 320 370 289 331 289 c 0
 292 289 261 320 261 359 c 0
 261 398 292 429 331 429 c 0
EndSplineSet
Ligature2: "Ligature Substitution lookup 20 subtable" L periodcentered
Position2: "'cpsp' Capital Spacing lookup 3 subtable" dx=5 dy=0 dh=10 dv=0
EndChar

StartChar: Lj
Encoding: 456 456 93
Width: 760
Flags: MW
HStem: -212 117<516.5 531 512.5 597.5> 0 131<95 446 223 446 223 446> 609 145<593 642 614 642> 682 20G<129 163 163 184>
VStem: 69 154<131 670 131 670 131 680.5> 554 148<-52 -50 -50 493 641 722>
LayerCount: 2
Fore
SplineSet
642 754 m 2xec
 684 754 702 743 702 722 c 2
 702 641 l 2
 702 620 684 609 642 609 c 2
 614 609 l 2
 572 609 554 620 554 641 c 2
 554 722 l 2
 554 743 572 754 614 754 c 2
 642 754 l 2xec
163 702 m 2xdc
 205 702 223 691 223 670 c 2
 223 131 l 1
 446 131 l 2
 467 131 476 116 476 81 c 2
 476 50 l 2
 476 15 467 0 446 0 c 2
 109 0 l 2
 81 0 69 12 69 40 c 2
 69 670 l 2
 69 691 87 702 129 702 c 2
 163 702 l 2xdc
642 525 m 2
 684 525 702 514 702 493 c 2
 702 -50 l 2
 702 -159 639 -212 556 -212 c 0
 477 -212 452 -199 452 -160 c 0
 452 -137 467 -91 488 -91 c 0
 494 -91 507 -95 518 -95 c 0
 544 -95 554 -82 554 -52 c 2
 554 493 l 2
 554 514 572 525 614 525 c 2
 642 525 l 2
EndSplineSet
Position2: "'cpsp' Capital Spacing lookup 3 subtable" dx=5 dy=0 dh=10 dv=0
EndChar

StartChar: Lslash
Encoding: 321 321 94
Width: 486
Flags: MW
HStem: 0 131<97 448 225 448 225 448> 682 20G<131 165 165 186>
VStem: 71 154<131 301 301 301 381 395 475 670>
LayerCount: 2
Fore
SplineSet
165 702 m 2
 207 702 225 691 225 670 c 2
 225 475 l 1
 312 528 l 2
 318 532 323 534 327 534 c 0
 334 534 338 527 338 514 c 2
 338 494 l 2
 338 473 330 459 312 448 c 2
 225 395 l 1
 225 131 l 1
 448 131 l 2
 469 131 478 116 478 81 c 2
 478 50 l 2
 478 15 469 0 448 0 c 2
 111 0 l 2
 83 0 71 12 71 40 c 2
 71 301 l 1
 52 289 l 2
 46 285 41 284 37 284 c 0
 29 284 26 290 26 304 c 2
 26 324 l 2
 26 346 34 358 52 369 c 2
 71 381 l 1
 71 670 l 2
 71 691 89 702 131 702 c 2
 165 702 l 2
EndSplineSet
Position2: "'cpsp' Capital Spacing lookup 3 subtable" dx=5 dy=0 dh=10 dv=0
EndChar

StartChar: M
Encoding: 77 77 95
Width: 843
Flags: MW
HStem: -2 21G<108 129 129 158 664 685 685 714> 682 20G<129 182 182 196.5 662 714 714 735>
VStem: 69 149<30 444> 625 149<30 444 444 444>
LayerCount: 2
Fore
SplineSet
714 702 m 2
 756 702 774 691 774 670 c 2
 774 30 l 2
 774 9 756 -2 714 -2 c 2
 685 -2 l 2
 643 -2 625 9 625 30 c 2
 625 444 l 1
 621 445 l 1
 476 186 l 1
 467 174 455 167 436 167 c 2
 407 167 l 2
 388 167 376 174 367 186 c 1
 222 445 l 1
 218 444 l 1
 218 30 l 2
 218 9 200 -2 158 -2 c 2
 129 -2 l 2
 87 -2 69 9 69 30 c 2
 69 670 l 2
 69 691 87 702 129 702 c 2
 182 702 l 2
 211 702 234 695 245 675 c 2
 413 376 l 1
 421 362 l 1
 430 379 l 1
 599 675 l 2
 610 695 633 702 662 702 c 2
 714 702 l 2
EndSplineSet
Position2: "'cpsp' Capital Spacing lookup 3 subtable" dx=5 dy=0 dh=10 dv=0
EndChar

StartChar: N
Encoding: 78 78 96
Width: 719
Flags: MW
HStem: -2 21G<108 129 129 158 537.5 552 552 590> 682 20G<129 172 172 186.5 561 590 590 611>
VStem: 69 149<30 435> 501 149<270 670>
LayerCount: 2
Fore
SplineSet
590 702 m 2
 632 702 650 691 650 670 c 2
 650 30 l 2
 650 9 632 -2 590 -2 c 2
 552 -2 l 2
 523 -2 501 2 486 25 c 2
 218 435 l 1
 218 30 l 2
 218 9 200 -2 158 -2 c 2
 129 -2 l 2
 87 -2 69 9 69 30 c 2
 69 670 l 2
 69 691 87 702 129 702 c 2
 172 702 l 2
 201 702 223 698 238 675 c 2
 474 311 l 1
 501 270 l 1
 501 670 l 2
 501 691 519 702 561 702 c 2
 590 702 l 2
EndSplineSet
Position2: "'cpsp' Capital Spacing lookup 3 subtable" dx=5 dy=0 dh=10 dv=0
EndChar

StartChar: NJ
Encoding: 458 458 97
Width: 1121
Flags: MW
HStem: -8 131<831 846 800 917.5> -2 21G<108 129 129 158 537.5 552 552 590> 682 20G<129 172 172 186.5 561 590 590 611> 683 20G<960 995 995 1016>
VStem: 69 149<30 435> 501 149<270 670> 900 155<227 670>
LayerCount: 2
Fore
SplineSet
995 703 m 2x9e
 1037 703 1055 691 1055 670 c 2
 1055 202 l 2
 1055 75 992 -8 843 -8 c 0
 819 -8 719 -5 719 38 c 0
 719 56 729 128 760 131 c 0
 770 131 784 123 816 123 c 0
 876 123 900 154 900 227 c 2
 900 670 l 2
 900 691 918 703 960 703 c 2
 995 703 l 2x9e
590 702 m 2x6e
 632 702 650 691 650 670 c 2
 650 30 l 2
 650 9 632 -2 590 -2 c 2
 552 -2 l 2
 523 -2 501 2 486 25 c 2
 218 435 l 1
 218 30 l 2
 218 9 200 -2 158 -2 c 2
 129 -2 l 2
 87 -2 69 9 69 30 c 2
 69 670 l 2
 69 691 87 702 129 702 c 2
 172 702 l 2
 201 702 223 698 238 675 c 2
 474 311 l 1
 501 270 l 1
 501 670 l 2
 501 691 519 702 561 702 c 2
 590 702 l 2x6e
EndSplineSet
Position2: "'cpsp' Capital Spacing lookup 3 subtable" dx=5 dy=0 dh=10 dv=0
EndChar

StartChar: Nacute
Encoding: 323 323 98
Width: 719
Flags: MW
HStem: -2 21G<108 129 129 158 537.5 552 552 590> 682 20G<129 172 172 186.5 561 590 590 611> 752 159<309 460>
VStem: 69 149<30 435> 501 149<270 670>
LayerCount: 2
Fore
SplineSet
440 911 m 0
 480 911 500 908 500 897 c 0
 500 885 493 883 396 777 c 0
 385 765 368 752 321 752 c 0
 297 752 290 756 290 767 c 0
 290 778 309 803 355 884 c 0
 367 905 400 911 440 911 c 0
590 702 m 2
 632 702 650 691 650 670 c 2
 650 30 l 2
 650 9 632 -2 590 -2 c 2
 552 -2 l 2
 523 -2 501 2 486 25 c 2
 218 435 l 1
 218 30 l 2
 218 9 200 -2 158 -2 c 2
 129 -2 l 2
 87 -2 69 9 69 30 c 2
 69 670 l 2
 69 691 87 702 129 702 c 2
 172 702 l 2
 201 702 223 698 238 675 c 2
 474 311 l 1
 501 270 l 1
 501 670 l 2
 501 691 519 702 561 702 c 2
 590 702 l 2
EndSplineSet
Substitution2: "'locl' Localized Forms in Latin lookup 12 subtable" Nacute.loclPLK
Substitution2: "'aalt' Access All Alternates lookup 0 subtable" Nacute.loclPLK
Position2: "'cpsp' Capital Spacing lookup 3 subtable" dx=5 dy=0 dh=10 dv=0
EndChar

StartChar: Ncaron
Encoding: 327 327 99
Width: 719
Flags: MW
HStem: -2 21G<108 129 129 158 537.5 552 552 590> 682 20G<129 172 172 186.5 561 590 590 611> 749 146<243 355 243 366>
VStem: 69 149<30 435> 501 149<270 670>
LayerCount: 2
Fore
SplineSet
478 895 m 2
 491 895 498 892 498 885 c 0
 498 881 496 876 492 870 c 2
 427 768 l 2
 416 750 395 749 366 749 c 2
 355 749 l 2
 326 749 305 750 294 768 c 2
 229 870 l 2
 225 876 223 881 223 885 c 0
 223 892 229 895 243 895 c 2
 265 895 l 2
 294 895 317 891 332 870 c 2
 360 831 l 1
 388 871 l 2
 401 890 427 895 456 895 c 2
 478 895 l 2
590 702 m 2
 632 702 650 691 650 670 c 2
 650 30 l 2
 650 9 632 -2 590 -2 c 2
 552 -2 l 2
 523 -2 501 2 486 25 c 2
 218 435 l 1
 218 30 l 2
 218 9 200 -2 158 -2 c 2
 129 -2 l 2
 87 -2 69 9 69 30 c 2
 69 670 l 2
 69 691 87 702 129 702 c 2
 172 702 l 2
 201 702 223 698 238 675 c 2
 474 311 l 1
 501 270 l 1
 501 670 l 2
 501 691 519 702 561 702 c 2
 590 702 l 2
EndSplineSet
Position2: "'cpsp' Capital Spacing lookup 3 subtable" dx=5 dy=0 dh=10 dv=0
EndChar

StartChar: Ncommaaccent
Encoding: 325 325 100
Width: 719
Flags: MW
HStem: -240 21G<305 331.5> -2 21G<108 129 129 158 537.5 552 552 590> 682 20G<129 172 172 186.5 561 590 590 611>
VStem: 69 149<30 435> 293 129<-128.5 -82.5 -128.5 -81.5> 501 149<270 670>
LayerCount: 2
Fore
SplineSet
590 702 m 2
 632 702 650 691 650 670 c 2
 650 30 l 2
 650 9 632 -2 590 -2 c 2
 552 -2 l 2
 523 -2 501 2 486 25 c 2
 218 435 l 1
 218 30 l 2
 218 9 200 -2 158 -2 c 2
 129 -2 l 2
 87 -2 69 9 69 30 c 2
 69 670 l 2
 69 691 87 702 129 702 c 2
 172 702 l 2
 201 702 223 698 238 675 c 2
 474 311 l 1
 501 270 l 1
 501 670 l 2
 501 691 519 702 561 702 c 2
 590 702 l 2
372 -51 m 2
 407 -51 422 -70 422 -95 c 0
 422 -162 349 -240 314 -240 c 0
 296 -240 269 -234 269 -218 c 0
 269 -200 293 -175 293 -95 c 0
 293 -68 311 -51 353 -51 c 2
 372 -51 l 2
EndSplineSet
Position2: "'cpsp' Capital Spacing lookup 3 subtable" dx=5 dy=0 dh=10 dv=0
EndChar

StartChar: Ndotaccent
Encoding: 7748 7748 101
Width: 719
Flags: MW
HStem: -2 21G<108 129 129 158 537.5 552 552 590> 682 20G<129 172 172 186.5 561 590 590 611> 755 124<339 381>
VStem: 69 149<30 435> 300 120<787 847 776.5 857.5> 501 149<270 670>
LayerCount: 2
Fore
SplineSet
300 847 m 2
 300 868 318 879 360 879 c 0
 402 879 420 868 420 847 c 2
 420 787 l 2
 420 766 402 755 360 755 c 0
 318 755 300 766 300 787 c 2
 300 847 l 2
590 702 m 2
 632 702 650 691 650 670 c 2
 650 30 l 2
 650 9 632 -2 590 -2 c 2
 552 -2 l 2
 523 -2 501 2 486 25 c 2
 218 435 l 1
 218 30 l 2
 218 9 200 -2 158 -2 c 2
 129 -2 l 2
 87 -2 69 9 69 30 c 2
 69 670 l 2
 69 691 87 702 129 702 c 2
 172 702 l 2
 201 702 223 698 238 675 c 2
 474 311 l 1
 501 270 l 1
 501 670 l 2
 501 691 519 702 561 702 c 2
 590 702 l 2
EndSplineSet
Position2: "'cpsp' Capital Spacing lookup 3 subtable" dx=5 dy=0 dh=10 dv=0
EndChar

StartChar: Eng
Encoding: 330 330 102
Width: 719
Flags: MW
HStem: -212 117<464.5 479 460.5 545.5> -2 21G<108 129 129 158> 682 20G<129 172 172 186.5 561 590 590 611>
VStem: 69 149<30 435> 501 149<270 670>
LayerCount: 2
Fore
SplineSet
590 702 m 2
 632 702 650 691 650 670 c 2
 650 -50 l 2
 650 -159 587 -212 504 -212 c 0
 425 -212 400 -199 400 -160 c 0
 400 -137 415 -91 436 -91 c 0
 442 -91 455 -95 466 -95 c 0
 492 -95 502 -82 502 -52 c 2
 502 1 l 1
 243 396 l 1
 218 435 l 1
 218 30 l 2
 218 9 200 -2 158 -2 c 2
 129 -2 l 2
 87 -2 69 9 69 30 c 2
 69 670 l 2
 69 691 87 702 129 702 c 2
 172 702 l 2
 201 702 223 698 238 675 c 2
 501 270 l 1
 501 670 l 2
 501 691 519 702 561 702 c 2
 590 702 l 2
EndSplineSet
Position2: "'cpsp' Capital Spacing lookup 3 subtable" dx=5 dy=0 dh=10 dv=0
EndChar

StartChar: Nj
Encoding: 459 459 103
Width: 995
Flags: MW
HStem: -212 117<751.5 766 747.5 832.5> -2 21G<108 129 129 158 537.5 552 552 590> 609 145<828 877 849 877> 682 20G<129 172 172 186.5 561 590 590 611>
VStem: 69 149<30 435> 501 149<270 670> 789 148<-52 -50 -50 493 641 722>
LayerCount: 2
Fore
SplineSet
877 754 m 2xee
 919 754 937 743 937 722 c 2
 937 641 l 2
 937 620 919 609 877 609 c 2
 849 609 l 2
 807 609 789 620 789 641 c 2
 789 722 l 2
 789 743 807 754 849 754 c 2
 877 754 l 2xee
590 702 m 2xde
 632 702 650 691 650 670 c 2
 650 30 l 2
 650 9 632 -2 590 -2 c 2
 552 -2 l 2
 523 -2 501 2 486 25 c 2
 218 435 l 1
 218 30 l 2
 218 9 200 -2 158 -2 c 2
 129 -2 l 2
 87 -2 69 9 69 30 c 2
 69 670 l 2
 69 691 87 702 129 702 c 2
 172 702 l 2
 201 702 223 698 238 675 c 2
 474 311 l 1
 501 270 l 1
 501 670 l 2
 501 691 519 702 561 702 c 2
 590 702 l 2xde
877 525 m 2
 919 525 937 514 937 493 c 2
 937 -50 l 2
 937 -159 874 -212 791 -212 c 0
 712 -212 687 -199 687 -160 c 0
 687 -137 702 -91 723 -91 c 0
 729 -91 742 -95 753 -95 c 0
 779 -95 789 -82 789 -52 c 2
 789 493 l 2
 789 514 807 525 849 525 c 2
 877 525 l 2
EndSplineSet
Position2: "'cpsp' Capital Spacing lookup 3 subtable" dx=5 dy=0 dh=10 dv=0
EndChar

StartChar: Ntilde
Encoding: 209 209 104
Width: 719
Flags: MW
HStem: -2 21G<108 129 129 158 537.5 552 552 590> 682 20G<129 172 172 186.5 561 590 590 611> 757 86<415.5 429.5> 784 86<281.5 297>
VStem: 69 149<30 435> 501 149<270 670>
LayerCount: 2
Fore
SplineSet
479 858 m 0xec
 485 862 492 864 498 864 c 0
 506 864 515 861 523 852 c 0
 529 845 532 839 532 832 c 0
 532 823 527 812 515 798 c 1
 490 773 450 757 409 757 c 0xec
 374 757 356 765 337 773 c 0
 323 779 308 784 286 784 c 0
 264 784 250 777 236 770 c 0
 232 768 228 767 224 767 c 0
 213 767 203 773 194 784 c 0
 189 790 187 797 187 803 c 0
 187 812 191 821 199 829 c 1
 228 852 261 870 302 870 c 0xdc
 340 870 361 861 380 854 c 0
 394 848 406 843 425 843 c 0
 447 843 462 848 479 858 c 0xec
590 702 m 2xdc
 632 702 650 691 650 670 c 2
 650 30 l 2
 650 9 632 -2 590 -2 c 2
 552 -2 l 2
 523 -2 501 2 486 25 c 2
 218 435 l 1
 218 30 l 2
 218 9 200 -2 158 -2 c 2
 129 -2 l 2
 87 -2 69 9 69 30 c 2
 69 670 l 2
 69 691 87 702 129 702 c 2
 172 702 l 2
 201 702 223 698 238 675 c 2
 474 311 l 1
 501 270 l 1
 501 670 l 2
 501 691 519 702 561 702 c 2
 590 702 l 2xdc
EndSplineSet
Position2: "'cpsp' Capital Spacing lookup 3 subtable" dx=5 dy=0 dh=10 dv=0
EndChar

StartChar: O
Encoding: 79 79 105
Width: 731
Flags: MW
HStem: -8 131<312.5 419.5 312.5 469> 576 132<312.5 419.5>
VStem: 45 158<276.5 423.5 276.5 465.5> 528 158<276.5 423.5>
LayerCount: 2
Fore
SplineSet
366 708 m 0
 572 708 686 581 686 350 c 0
 686 119 572 -8 366 -8 c 0
 160 -8 45 119 45 350 c 0
 45 581 160 708 366 708 c 0
366 576 m 0
 259 576 203 497 203 350 c 0
 203 203 259 123 366 123 c 0
 473 123 528 203 528 350 c 0
 528 497 473 576 366 576 c 0
EndSplineSet
Substitution2: "Single Substitution lookup 21 subtable" ordmasculine
Substitution2: "'aalt' Access All Alternates lookup 0 subtable" ordmasculine
Position2: "'cpsp' Capital Spacing lookup 3 subtable" dx=5 dy=0 dh=10 dv=0
EndChar

StartChar: Oacute
Encoding: 211 211 106
Width: 731
Flags: MW
HStem: -8 131<312.5 419.5 312.5 469> 576 132<312.5 419.5> 752 159<315 466>
VStem: 45 158<276.5 423.5 276.5 465.5> 528 158<276.5 423.5>
LayerCount: 2
Fore
SplineSet
446 911 m 0
 486 911 506 908 506 897 c 0
 506 885 499 883 402 777 c 0
 391 765 374 752 327 752 c 0
 303 752 296 756 296 767 c 0
 296 778 315 803 361 884 c 0
 373 905 406 911 446 911 c 0
366 708 m 0
 572 708 686 581 686 350 c 0
 686 119 572 -8 366 -8 c 0
 160 -8 45 119 45 350 c 0
 45 581 160 708 366 708 c 0
366 576 m 0
 259 576 203 497 203 350 c 0
 203 203 259 123 366 123 c 0
 473 123 528 203 528 350 c 0
 528 497 473 576 366 576 c 0
EndSplineSet
Substitution2: "'locl' Localized Forms in Latin lookup 12 subtable" Oacute.loclPLK
Substitution2: "'aalt' Access All Alternates lookup 0 subtable" Oacute.loclPLK
Position2: "'cpsp' Capital Spacing lookup 3 subtable" dx=5 dy=0 dh=10 dv=0
EndChar

StartChar: Obreve
Encoding: 334 334 107
Width: 731
Flags: MW
HStem: -8 131<312.5 419.5 312.5 469> 576 132<312.5 419.5> 752 91<340.5 393 340.5 409.5>
VStem: 45 158<276.5 423.5 276.5 465.5> 528 158<276.5 423.5>
LayerCount: 2
Fore
SplineSet
478 892 m 0
 500 892 513 882 513 864 c 0
 513 807 453 752 366 752 c 0
 279 752 219 807 219 864 c 0
 219 882 232 892 254 892 c 0
 271 892 278 884 287 874 c 0
 300 860 315 843 366 843 c 0
 420 843 434 862 447 876 c 0
 455 885 462 892 478 892 c 0
366 708 m 0
 572 708 686 581 686 350 c 0
 686 119 572 -8 366 -8 c 0
 160 -8 45 119 45 350 c 0
 45 581 160 708 366 708 c 0
366 576 m 0
 259 576 203 497 203 350 c 0
 203 203 259 123 366 123 c 0
 473 123 528 203 528 350 c 0
 528 497 473 576 366 576 c 0
EndSplineSet
Position2: "'cpsp' Capital Spacing lookup 3 subtable" dx=5 dy=0 dh=10 dv=0
EndChar

StartChar: Ocircumflex
Encoding: 212 212 108
Width: 731
Flags: MW
HStem: -8 131<312.5 419.5 312.5 469> 576 132<312.5 419.5> 749 146<242 372 249 372 361 462 361 484>
VStem: 45 158<276.5 423.5 276.5 465.5> 528 158<276.5 423.5>
LayerCount: 2
Fore
SplineSet
372 895 m 2
 401 895 422 894 433 876 c 2
 498 774 l 2
 502 768 504 763 504 759 c 0
 504 752 497 749 484 749 c 2
 462 749 l 2
 433 749 407 754 394 773 c 2
 366 813 l 1
 338 774 l 2
 323 753 300 749 271 749 c 2
 249 749 l 2
 235 749 229 752 229 759 c 0
 229 763 231 768 235 774 c 2
 300 876 l 2
 311 894 332 895 361 895 c 2
 372 895 l 2
366 708 m 0
 572 708 686 581 686 350 c 0
 686 119 572 -8 366 -8 c 0
 160 -8 45 119 45 350 c 0
 45 581 160 708 366 708 c 0
366 576 m 0
 259 576 203 497 203 350 c 0
 203 203 259 123 366 123 c 0
 473 123 528 203 528 350 c 0
 528 497 473 576 366 576 c 0
EndSplineSet
Position2: "'cpsp' Capital Spacing lookup 3 subtable" dx=5 dy=0 dh=10 dv=0
EndChar

StartChar: Ocircumflexacute
Encoding: 7888 7888 109
Width: 731
Flags: MW
HStem: -8 131<312.5 419.5 312.5 469> 576 132<312.5 419.5> 840 55
VStem: 45 158<276.5 423.5 276.5 465.5> 528 158<276.5 423.5>
LayerCount: 2
Fore
SplineSet
569 964 m 0
 595 964 609 959 609 940 c 0
 609 930 596 914 535 840 c 1
 527 832 515 825 480 825 c 0
 464 825 459 829 459 840 c 0
 459 849 469 870 494 937 c 1
 505 958 534 964 569 964 c 0
372 895 m 2
 396 895 413 894 423 876 c 2
 483 774 l 2
 487 768 489 763 489 759 c 0
 489 752 482 749 469 749 c 2
 447 749 l 2
 418 749 386 752 379 773 c 2
 366 813 l 1
 338 774 l 2
 323 753 300 749 271 749 c 2
 249 749 l 2
 235 749 229 752 229 759 c 0
 229 763 231 768 235 774 c 2
 300 876 l 2
 311 894 332 895 361 895 c 2
 372 895 l 2
366 708 m 0
 572 708 686 581 686 350 c 0
 686 119 572 -8 366 -8 c 0
 160 -8 45 119 45 350 c 0
 45 581 160 708 366 708 c 0
366 576 m 0
 259 576 203 497 203 350 c 0
 203 203 259 123 366 123 c 0
 473 123 528 203 528 350 c 0
 528 497 473 576 366 576 c 0
EndSplineSet
Position2: "'cpsp' Capital Spacing lookup 3 subtable" dx=5 dy=0 dh=10 dv=0
EndChar

StartChar: Ocircumflexdotbelow
Encoding: 7896 7896 110
Width: 731
Flags: MW
HStem: -204 124<348 390> -8 131<312.5 419.5 312.5 469> 576 132<312.5 419.5> 749 146<242 372 249 372 361 462 361 484>
VStem: 45 158<276.5 423.5 276.5 465.5> 309 120<-172 -112 -182.5 -101.5> 528 158<276.5 423.5>
LayerCount: 2
Fore
SplineSet
366 708 m 0
 572 708 686 581 686 350 c 0
 686 119 572 -8 366 -8 c 0
 160 -8 45 119 45 350 c 0
 45 581 160 708 366 708 c 0
366 576 m 0
 259 576 203 497 203 350 c 0
 203 203 259 123 366 123 c 0
 473 123 528 203 528 350 c 0
 528 497 473 576 366 576 c 0
372 895 m 2
 401 895 422 894 433 876 c 2
 498 774 l 2
 502 768 504 763 504 759 c 0
 504 752 497 749 484 749 c 2
 462 749 l 2
 433 749 407 754 394 773 c 2
 366 813 l 1
 338 774 l 2
 323 753 300 749 271 749 c 2
 249 749 l 2
 235 749 229 752 229 759 c 0
 229 763 231 768 235 774 c 2
 300 876 l 2
 311 894 332 895 361 895 c 2
 372 895 l 2
309 -112 m 2
 309 -91 327 -80 369 -80 c 0
 411 -80 429 -91 429 -112 c 2
 429 -172 l 2
 429 -193 411 -204 369 -204 c 0
 327 -204 309 -193 309 -172 c 2
 309 -112 l 2
EndSplineSet
Position2: "'cpsp' Capital Spacing lookup 3 subtable" dx=5 dy=0 dh=10 dv=0
EndChar

StartChar: Ocircumflexgrave
Encoding: 7890 7890 111
Width: 731
Flags: MW
HStem: -8 131<312.5 419.5 312.5 469> 576 132<312.5 419.5> 749 146<242 372 249 372 361 447 361 469> 824 139<418 532>
VStem: 45 158<276.5 423.5 276.5 465.5> 528 158<276.5 423.5>
LayerCount: 2
Fore
SplineSet
366 708 m 0xec
 572 708 686 581 686 350 c 0
 686 119 572 -8 366 -8 c 0
 160 -8 45 119 45 350 c 0
 45 581 160 708 366 708 c 0xec
366 576 m 0
 259 576 203 497 203 350 c 0
 203 203 259 123 366 123 c 0
 473 123 528 203 528 350 c 0
 528 497 473 576 366 576 c 0
433 963 m 0xdc
 473 963 509 957 518 936 c 0
 544 871 551 848 551 839 c 0
 551 828 544 824 520 824 c 0
 482 824 468 837 458 849 c 0
 390 937 386 939 386 949 c 0
 386 960 403 963 433 963 c 0xdc
372 895 m 2xec
 396 895 413 894 423 876 c 2
 483 774 l 2
 487 768 489 763 489 759 c 0
 489 752 482 749 469 749 c 2
 447 749 l 2
 418 749 386 752 379 773 c 2
 366 813 l 1
 338 774 l 2
 323 753 300 749 271 749 c 2
 249 749 l 2
 235 749 229 752 229 759 c 0
 229 763 231 768 235 774 c 2
 300 876 l 2
 311 894 332 895 361 895 c 2
 372 895 l 2xec
EndSplineSet
Position2: "'cpsp' Capital Spacing lookup 3 subtable" dx=5 dy=0 dh=10 dv=0
EndChar

StartChar: Ocircumflexhookabove
Encoding: 7892 7892 112
Width: 731
Flags: MW
HStem: -8 131<312.5 419.5 312.5 469> 576 132<312.5 419.5> 749 146<242 372 249 372 432.5 440.5 361 447 361 469> 895 70<432 515>
VStem: 45 158<276.5 423.5 276.5 465.5> 510 69<891 900.5> 528 158<276.5 423.5>
LayerCount: 2
Fore
SplineSet
366 708 m 0xda
 572 708 686 581 686 350 c 0
 686 119 572 -8 366 -8 c 0
 160 -8 45 119 45 350 c 0
 45 581 160 708 366 708 c 0xda
366 576 m 0
 259 576 203 497 203 350 c 0
 203 203 259 123 366 123 c 0
 473 123 528 203 528 350 c 0
 528 497 473 576 366 576 c 0
510 895 m 0xdc
 510 906 499 912 489 912 c 0
 456 912 445 895 436 895 c 0
 428 895 406 922 406 937 c 0
 406 950 451 965 486 965 c 0
 544 965 579 939 579 899 c 0
 579 883 573 868 553 852 c 0
 543 844 521 830 504 830 c 0
 477 830 460 840 460 851 c 0
 460 855 469 862 479 867 c 0
 498 876 510 881 510 895 c 0xdc
372 895 m 2xea
 396 895 413 894 423 876 c 2
 483 774 l 2
 487 768 489 763 489 759 c 0
 489 752 482 749 469 749 c 2
 447 749 l 2
 418 749 386 752 379 773 c 2
 366 813 l 1
 338 774 l 2
 323 753 300 749 271 749 c 2
 249 749 l 2
 235 749 229 752 229 759 c 0
 229 763 231 768 235 774 c 2
 300 876 l 2
 311 894 332 895 361 895 c 2
 372 895 l 2xea
EndSplineSet
Position2: "'cpsp' Capital Spacing lookup 3 subtable" dx=5 dy=0 dh=10 dv=0
EndChar

StartChar: Ocircumflextilde
Encoding: 7894 7894 113
Width: 731
Flags: MW
HStem: -8 131<312.5 419.5 312.5 469> 576 132<312.5 419.5> 749 122<242 372 249 372 361 462 361 484> 902 86<421.5 434.5> 929 86<299.5 314>
VStem: 45 158<276.5 423.5 276.5 465.5> 528 158<276.5 423.5>
LayerCount: 2
Fore
SplineSet
366 708 m 0xee
 572 708 686 581 686 350 c 0
 686 119 572 -8 366 -8 c 0
 160 -8 45 119 45 350 c 0
 45 581 160 708 366 708 c 0xee
366 576 m 0
 259 576 203 497 203 350 c 0
 203 203 259 123 366 123 c 0
 473 123 528 203 528 350 c 0
 528 497 473 576 366 576 c 0
479 1003 m 0xf6
 484 1007 491 1009 497 1009 c 0
 504 1009 512 1006 519 997 c 0
 524 990 527 984 527 977 c 0
 527 967 523 957 512 943 c 1
 489 918 453 902 416 902 c 0xf6
 384 902 367 910 350 918 c 0
 337 924 324 929 304 929 c 0
 284 929 271 922 258 915 c 0
 255 913 251 912 247 912 c 0
 238 912 228 918 220 929 c 0
 216 935 214 941 214 948 c 0
 214 957 218 966 225 974 c 1
 251 997 281 1015 318 1015 c 0xee
 353 1015 372 1006 389 999 c 0
 402 993 413 988 430 988 c 0
 450 988 464 993 479 1003 c 0xf6
372 871 m 2xee
 401 871 418 868 433 852 c 1
 498 774 l 2
 502 768 504 763 504 759 c 0
 504 752 497 749 484 749 c 2
 462 749 l 2
 433 749 415 760 394 773 c 1
 366 800 l 1
 338 774 l 1
 314 760 300 749 271 749 c 2
 249 749 l 2
 235 749 229 752 229 759 c 0
 229 763 231 768 235 774 c 2
 300 852 l 1
 315 868 332 871 361 871 c 2
 372 871 l 2xee
EndSplineSet
Position2: "'cpsp' Capital Spacing lookup 3 subtable" dx=5 dy=0 dh=10 dv=0
EndChar

StartChar: Odieresis
Encoding: 214 214 114
Width: 731
Flags: MW
HStem: -8 131<312.5 419.5 312.5 469> 576 132<312.5 419.5> 755 124<255 297 435 477>
VStem: 45 158<276.5 423.5 276.5 465.5> 216 120<787 847 776.5 857.5> 396 120<787 847 776.5 857.5> 528 158<276.5 423.5>
LayerCount: 2
Fore
SplineSet
366 708 m 0
 572 708 686 581 686 350 c 0
 686 119 572 -8 366 -8 c 0
 160 -8 45 119 45 350 c 0
 45 581 160 708 366 708 c 0
366 576 m 0
 259 576 203 497 203 350 c 0
 203 203 259 123 366 123 c 0
 473 123 528 203 528 350 c 0
 528 497 473 576 366 576 c 0
216 847 m 2xfe
 216 868 234 879 276 879 c 0
 318 879 336 868 336 847 c 2
 336 787 l 2
 336 766 318 755 276 755 c 0
 234 755 216 766 216 787 c 2
 216 847 l 2xfe
396 847 m 2
 396 868 414 879 456 879 c 0
 498 879 516 868 516 847 c 2
 516 787 l 2
 516 766 498 755 456 755 c 0
 414 755 396 766 396 787 c 2
 396 847 l 2
EndSplineSet
Position2: "'cpsp' Capital Spacing lookup 3 subtable" dx=5 dy=0 dh=10 dv=0
EndChar

StartChar: Odotbelow
Encoding: 7884 7884 115
Width: 731
Flags: MW
HStem: -204 124<348 390> -8 131<312.5 419.5 312.5 469> 576 132<312.5 419.5>
VStem: 45 158<276.5 423.5 276.5 465.5> 309 120<-172 -112 -182.5 -101.5> 528 158<276.5 423.5>
LayerCount: 2
Fore
SplineSet
366 708 m 0
 572 708 686 581 686 350 c 0
 686 119 572 -8 366 -8 c 0
 160 -8 45 119 45 350 c 0
 45 581 160 708 366 708 c 0
366 576 m 0
 259 576 203 497 203 350 c 0
 203 203 259 123 366 123 c 0
 473 123 528 203 528 350 c 0
 528 497 473 576 366 576 c 0
309 -112 m 2
 309 -91 327 -80 369 -80 c 0
 411 -80 429 -91 429 -112 c 2
 429 -172 l 2
 429 -193 411 -204 369 -204 c 0
 327 -204 309 -193 309 -172 c 2
 309 -112 l 2
EndSplineSet
Position2: "'cpsp' Capital Spacing lookup 3 subtable" dx=5 dy=0 dh=10 dv=0
EndChar

StartChar: Ograve
Encoding: 210 210 116
Width: 731
Flags: MW
HStem: -8 131<312.5 419.5 312.5 469> 576 132<312.5 419.5> 752 159<272 423>
VStem: 45 158<276.5 423.5 276.5 465.5> 528 158<276.5 423.5>
LayerCount: 2
Fore
SplineSet
292 911 m 0
 332 911 365 905 377 884 c 0
 423 803 442 778 442 767 c 0
 442 756 435 752 411 752 c 0
 364 752 347 765 336 777 c 0
 239 883 232 885 232 897 c 0
 232 908 252 911 292 911 c 0
366 708 m 0
 572 708 686 581 686 350 c 0
 686 119 572 -8 366 -8 c 0
 160 -8 45 119 45 350 c 0
 45 581 160 708 366 708 c 0
366 576 m 0
 259 576 203 497 203 350 c 0
 203 203 259 123 366 123 c 0
 473 123 528 203 528 350 c 0
 528 497 473 576 366 576 c 0
EndSplineSet
Position2: "'cpsp' Capital Spacing lookup 3 subtable" dx=5 dy=0 dh=10 dv=0
EndChar

StartChar: Ohookabove
Encoding: 7886 7886 117
Width: 731
Flags: MW
HStem: -8 131<312.5 419.5 312.5 469> 576 132<312.5 419.5> 867 61<361.5 379>
VStem: 45 158<276.5 423.5 276.5 465.5> 403 87<830 852> 528 158<276.5 423.5>
LayerCount: 2
Fore
SplineSet
403 845 m 0
 403 859 387 867 371 867 c 0
 349 867 338 855 329 855 c 0
 321 855 299 882 299 897 c 0
 299 910 344 928 379 928 c 0
 451 928 490 898 490 849 c 0
 490 796 408 747 390 747 c 0
 366 747 336 762 336 770 c 0
 336 787 403 815 403 845 c 0
366 708 m 0
 572 708 686 581 686 350 c 0
 686 119 572 -8 366 -8 c 0
 160 -8 45 119 45 350 c 0
 45 581 160 708 366 708 c 0
366 576 m 0
 259 576 203 497 203 350 c 0
 203 203 259 123 366 123 c 0
 473 123 528 203 528 350 c 0
 528 497 473 576 366 576 c 0
EndSplineSet
Position2: "'cpsp' Capital Spacing lookup 3 subtable" dx=5 dy=0 dh=10 dv=0
EndChar

StartChar: Ohorn
Encoding: 416 416 118
Width: 731
Flags: MW
HStem: -8 131<312.5 419.5 312.5 469> 576 106<312.5 532> 576 132<312.5 393 263 419.5>
VStem: 45 158<276.5 423.5 276.5 465.5> 528 158<276.5 417 234.5 423.5> 579 80<710 729>
LayerCount: 2
Fore
SplineSet
596 811 m 2xd4
 601 815 606 816 612 816 c 0
 638 816 659 763 659 733 c 0xb4
 659 687 633 654 575 643 c 1
 647 584 686 484 686 350 c 0
 686 119 572 -8 366 -8 c 0
 160 -8 45 119 45 350 c 0
 45 581 160 708 366 708 c 0xb8
 420 708 468 699 509 682 c 1
 532 682 l 2
 566 682 579 695 579 718 c 0
 579 740 553 757 553 770 c 0
 553 777 556 784 564 789 c 2
 596 811 l 2xd4
366 123 m 0xb8
 473 123 528 203 528 350 c 0
 528 497 473 576 366 576 c 0
 259 576 203 497 203 350 c 0
 203 203 259 123 366 123 c 0xb8
EndSplineSet
Position2: "'cpsp' Capital Spacing lookup 3 subtable" dx=5 dy=0 dh=10 dv=0
EndChar

StartChar: Ohornacute
Encoding: 7898 7898 119
Width: 731
Flags: MW
HStem: -8 131<312.5 419.5 312.5 469> 576 106<312.5 532> 576 132<312.5 393 263 419.5> 752 159<315 466>
VStem: 45 158<276.5 423.5 276.5 465.5> 528 158<276.5 417 234.5 423.5> 579 80<710 729>
LayerCount: 2
Fore
SplineSet
327 752 m 0xbc
 303 752 296 756 296 767 c 0
 296 778 315 803 361 884 c 0
 373 905 406 911 446 911 c 0
 486 911 506 908 506 897 c 0
 506 885 499 883 402 777 c 0
 391 765 374 752 327 752 c 0xbc
596 811 m 2xda
 601 815 606 816 612 816 c 0
 638 816 659 763 659 733 c 0xba
 659 687 633 654 575 643 c 1
 647 584 686 484 686 350 c 0
 686 119 572 -8 366 -8 c 0
 160 -8 45 119 45 350 c 0
 45 581 160 708 366 708 c 0xbc
 420 708 468 699 509 682 c 1
 532 682 l 2
 566 682 579 695 579 718 c 0
 579 740 553 757 553 770 c 0
 553 777 556 784 564 789 c 2
 596 811 l 2xda
366 123 m 0xbc
 473 123 528 203 528 350 c 0
 528 497 473 576 366 576 c 0
 259 576 203 497 203 350 c 0
 203 203 259 123 366 123 c 0xbc
EndSplineSet
Position2: "'cpsp' Capital Spacing lookup 3 subtable" dx=5 dy=0 dh=10 dv=0
EndChar

StartChar: Ohorndotbelow
Encoding: 7906 7906 120
Width: 731
Flags: MW
HStem: -204 124<348 390> -8 131<312.5 419.5 312.5 469> 576 106<312.5 532> 576 132<312.5 393 263 419.5>
VStem: 45 158<276.5 423.5 276.5 465.5> 309 120<-172 -112 -182.5 -101.5> 528 158<276.5 417 234.5 423.5> 579 80<710 729>
LayerCount: 2
Fore
SplineSet
596 811 m 2xed
 601 815 606 816 612 816 c 0
 638 816 659 763 659 733 c 0xdd
 659 687 633 654 575 643 c 1
 647 584 686 484 686 350 c 0
 686 119 572 -8 366 -8 c 0
 160 -8 45 119 45 350 c 0
 45 581 160 708 366 708 c 0xde
 420 708 468 699 509 682 c 1
 532 682 l 2
 566 682 579 695 579 718 c 0
 579 740 553 757 553 770 c 0
 553 777 556 784 564 789 c 2
 596 811 l 2xed
366 123 m 0xde
 473 123 528 203 528 350 c 0
 528 497 473 576 366 576 c 0
 259 576 203 497 203 350 c 0
 203 203 259 123 366 123 c 0xde
309 -112 m 2
 309 -91 327 -80 369 -80 c 0
 411 -80 429 -91 429 -112 c 2
 429 -172 l 2
 429 -193 411 -204 369 -204 c 0
 327 -204 309 -193 309 -172 c 2
 309 -112 l 2
EndSplineSet
Position2: "'cpsp' Capital Spacing lookup 3 subtable" dx=5 dy=0 dh=10 dv=0
EndChar

StartChar: Ohorngrave
Encoding: 7900 7900 121
Width: 731
Flags: MW
HStem: -8 131<312.5 419.5 312.5 469> 576 106<312.5 532> 576 132<312.5 393 263 419.5> 752 159<272 423>
VStem: 45 158<276.5 423.5 276.5 465.5> 528 158<276.5 417 234.5 423.5> 579 80<710 729>
LayerCount: 2
Fore
SplineSet
411 752 m 0xbc
 364 752 347 765 336 777 c 0
 239 883 232 885 232 897 c 0
 232 908 252 911 292 911 c 0
 332 911 365 905 377 884 c 0
 423 803 442 778 442 767 c 0
 442 756 435 752 411 752 c 0xbc
596 811 m 2xda
 601 815 606 816 612 816 c 0
 638 816 659 763 659 733 c 0xba
 659 687 633 654 575 643 c 1
 647 584 686 484 686 350 c 0
 686 119 572 -8 366 -8 c 0
 160 -8 45 119 45 350 c 0
 45 581 160 708 366 708 c 0xbc
 420 708 468 699 509 682 c 1
 532 682 l 2
 566 682 579 695 579 718 c 0
 579 740 553 757 553 770 c 0
 553 777 556 784 564 789 c 2
 596 811 l 2xda
366 123 m 0xbc
 473 123 528 203 528 350 c 0
 528 497 473 576 366 576 c 0
 259 576 203 497 203 350 c 0
 203 203 259 123 366 123 c 0xbc
EndSplineSet
Position2: "'cpsp' Capital Spacing lookup 3 subtable" dx=5 dy=0 dh=10 dv=0
EndChar

StartChar: Ohornhookabove
Encoding: 7902 7902 122
Width: 731
Flags: MW
HStem: -8 131<312.5 419.5 312.5 469> 576 106<312.5 532> 576 132<312.5 393 263 419.5> 867 61<361.5 379>
VStem: 45 158<276.5 423.5 276.5 465.5> 403 87<830 852> 528 158<276.5 417 234.5 423.5> 579 80<710 729>
LayerCount: 2
Fore
SplineSet
329 855 m 0xbe
 321 855 299 882 299 897 c 0
 299 910 344 928 379 928 c 0
 451 928 490 898 490 849 c 0
 490 796 408 747 390 747 c 0
 366 747 336 762 336 770 c 0
 336 787 403 815 403 845 c 0
 403 859 387 867 371 867 c 0
 349 867 338 855 329 855 c 0xbe
596 811 m 2xdd
 601 815 606 816 612 816 c 0
 638 816 659 763 659 733 c 0xbd
 659 687 633 654 575 643 c 1
 647 584 686 484 686 350 c 0
 686 119 572 -8 366 -8 c 0
 160 -8 45 119 45 350 c 0
 45 581 160 708 366 708 c 0xbe
 420 708 468 699 509 682 c 1
 532 682 l 2
 566 682 579 695 579 718 c 0
 579 740 553 757 553 770 c 0
 553 777 556 784 564 789 c 2
 596 811 l 2xdd
366 123 m 0xbe
 473 123 528 203 528 350 c 0
 528 497 473 576 366 576 c 0
 259 576 203 497 203 350 c 0
 203 203 259 123 366 123 c 0xbe
EndSplineSet
Position2: "'cpsp' Capital Spacing lookup 3 subtable" dx=5 dy=0 dh=10 dv=0
EndChar

StartChar: Ohorntilde
Encoding: 7904 7904 123
Width: 731
Flags: MW
HStem: -8 131<312.5 419.5 312.5 469> 576 106<312.5 532> 576 132<312.5 393 263 419.5> 757 86<397.5 410.5> 784 86<277 291>
VStem: 45 158<276.5 423.5 276.5 465.5> 528 158<276.5 417 234.5 423.5> 579 80<710 729>
LayerCount: 2
Fore
SplineSet
236 770 m 0xae
 232 768 228 767 225 767 c 0
 215 767 206 773 198 784 c 0
 194 790 192 796 192 803 c 0
 192 812 196 821 203 829 c 1
 229 852 259 870 295 870 c 0xae
 330 870 349 861 366 854 c 0
 378 848 389 843 406 843 c 0
 426 843 439 848 455 858 c 0
 460 862 466 864 472 864 c 0
 479 864 487 861 494 852 c 0
 499 845 502 839 502 832 c 0
 502 822 498 812 487 798 c 0
 465 773 429 757 392 757 c 0xb6
 360 757 344 765 327 773 c 0
 314 779 301 784 281 784 c 0
 261 784 249 777 236 770 c 0xae
596 811 m 2xcd
 601 815 606 816 612 816 c 0
 638 816 659 763 659 733 c 0xad
 659 687 633 654 575 643 c 1
 647 584 686 484 686 350 c 0
 686 119 572 -8 366 -8 c 0
 160 -8 45 119 45 350 c 0
 45 581 160 708 366 708 c 0xae
 420 708 468 699 509 682 c 1
 532 682 l 2
 566 682 579 695 579 718 c 0
 579 740 553 757 553 770 c 0
 553 777 556 784 564 789 c 2
 596 811 l 2xcd
366 123 m 0xae
 473 123 528 203 528 350 c 0
 528 497 473 576 366 576 c 0
 259 576 203 497 203 350 c 0
 203 203 259 123 366 123 c 0xae
EndSplineSet
Position2: "'cpsp' Capital Spacing lookup 3 subtable" dx=5 dy=0 dh=10 dv=0
EndChar

StartChar: Ohungarumlaut
Encoding: 336 336 124
Width: 731
Flags: MW
HStem: -8 131<312.5 419.5 312.5 469> 576 132<312.5 419.5> 752 159<231 382 342 449.5>
VStem: 45 158<276.5 423.5 276.5 465.5> 528 158<276.5 423.5>
LayerCount: 2
Fore
SplineSet
362 911 m 0
 402 911 422 908 422 897 c 0
 422 885 415 883 318 777 c 0
 307 765 290 752 243 752 c 0
 219 752 212 756 212 767 c 0
 212 778 231 803 277 884 c 0
 289 905 322 911 362 911 c 0
545 911 m 0
 585 911 605 908 605 897 c 0
 605 885 598 883 501 777 c 0
 490 765 473 752 426 752 c 0
 402 752 395 756 395 767 c 0
 395 778 414 803 460 884 c 0
 472 905 505 911 545 911 c 0
366 708 m 0
 572 708 686 581 686 350 c 0
 686 119 572 -8 366 -8 c 0
 160 -8 45 119 45 350 c 0
 45 581 160 708 366 708 c 0
366 576 m 0
 259 576 203 497 203 350 c 0
 203 203 259 123 366 123 c 0
 473 123 528 203 528 350 c 0
 528 497 473 576 366 576 c 0
EndSplineSet
Position2: "'cpsp' Capital Spacing lookup 3 subtable" dx=5 dy=0 dh=10 dv=0
EndChar

StartChar: Omacron
Encoding: 332 332 125
Width: 731
Flags: MW
HStem: -8 131<312.5 419.5 312.5 469> 576 132<312.5 419.5> 774 95<248.5 474 259 474>
VStem: 45 158<276.5 423.5 276.5 465.5> 528 158<276.5 423.5>
LayerCount: 2
Fore
SplineSet
474 869 m 2
 495 869 504 857 504 829 c 2
 504 814 l 2
 504 786 495 774 474 774 c 2
 259 774 l 2
 238 774 229 786 229 814 c 2
 229 829 l 2
 229 857 238 869 259 869 c 2
 474 869 l 2
366 708 m 0
 572 708 686 581 686 350 c 0
 686 119 572 -8 366 -8 c 0
 160 -8 45 119 45 350 c 0
 45 581 160 708 366 708 c 0
366 576 m 0
 259 576 203 497 203 350 c 0
 203 203 259 123 366 123 c 0
 473 123 528 203 528 350 c 0
 528 497 473 576 366 576 c 0
EndSplineSet
Position2: "'cpsp' Capital Spacing lookup 3 subtable" dx=5 dy=0 dh=10 dv=0
EndChar

StartChar: Oogonek
Encoding: 490 490 126
Width: 731
Flags: MW
HStem: -183 70<482.5 502> -8 131<312.5 366 366 384> -1 21G<443 443> 576 132<312.5 419.5>
VStem: 45 158<276.5 423.5 276.5 465.5> 365 67<-86 -73.5> 528 158<276.5 423.5>
LayerCount: 2
Fore
SplineSet
686 350 m 0xde
 686 150 600 27 443 -1 c 1
 443 -5 l 2xbe
 443 -20 432 -33 432 -62 c 0
 432 -110 471 -113 494 -113 c 0
 519 -113 525 -105 543 -105 c 0
 557 -105 565 -114 565 -133 c 0
 565 -175 521 -183 483 -183 c 0
 376 -183 365 -110 365 -81 c 0
 365 -66 368 -31 384 -8 c 1
 366 -8 l 2
 160 -8 45 119 45 350 c 0
 45 581 160 708 366 708 c 0
 572 708 686 581 686 350 c 0xde
366 123 m 0
 473 123 528 203 528 350 c 0
 528 497 473 576 366 576 c 0
 259 576 203 497 203 350 c 0
 203 203 259 123 366 123 c 0
EndSplineSet
Position2: "'cpsp' Capital Spacing lookup 3 subtable" dx=5 dy=0 dh=10 dv=0
EndChar

StartChar: Oslash
Encoding: 216 216 127
Width: 731
Flags: MW
HStem: -8 131<340 419.5 340 469> 576 132<312.5 385.5>
VStem: 45 158<333 423.5 333 465.5> 528 158<276.5 374.5>
LayerCount: 2
Fore
SplineSet
95 129 m 1
 62 186 45 260 45 350 c 0
 45 581 160 708 366 708 c 0
 444 708 510 689 560 653 c 1
 612 712 l 2
 619 720 626 724 634 724 c 0
 651 724 682 696 682 678 c 0
 682 672 679 665 672 658 c 2
 618 597 l 1
 662 537 686 454 686 350 c 0
 686 119 572 -8 366 -8 c 0
 274 -8 200 17 147 66 c 1
 89 0 l 2
 82 -8 74 -12 67 -12 c 0
 51 -12 19 15 19 34 c 0
 19 40 22 47 29 54 c 2
 95 129 l 1
463 544 m 1
 438 565 405 576 366 576 c 0
 259 576 203 497 203 350 c 0
 203 316 206 287 211 260 c 1
 463 544 l 1
247 178 m 1
 274 142 314 123 366 123 c 0
 473 123 528 203 528 350 c 0
 528 399 521 441 509 474 c 1
 247 178 l 1
EndSplineSet
Position2: "'cpsp' Capital Spacing lookup 3 subtable" dx=5 dy=0 dh=10 dv=0
EndChar

StartChar: Oslashacute
Encoding: 510 510 128
Width: 731
Flags: MW
HStem: -8 131<340 419.5 340 469> 576 132<312.5 385.5> 752 159<315 466>
VStem: 45 158<333 423.5 333 465.5> 528 158<276.5 374.5>
LayerCount: 2
Fore
SplineSet
95 129 m 1
 62 186 45 260 45 350 c 0
 45 581 160 708 366 708 c 0
 444 708 510 689 560 653 c 1
 612 712 l 2
 619 720 626 724 634 724 c 0
 651 724 682 696 682 678 c 0
 682 672 679 665 672 658 c 2
 618 597 l 1
 662 537 686 454 686 350 c 0
 686 119 572 -8 366 -8 c 0
 274 -8 200 17 147 66 c 1
 89 0 l 2
 82 -8 74 -12 67 -12 c 0
 51 -12 19 15 19 34 c 0
 19 40 22 47 29 54 c 2
 95 129 l 1
463 544 m 1
 438 565 405 576 366 576 c 0
 259 576 203 497 203 350 c 0
 203 316 206 287 211 260 c 1
 463 544 l 1
247 178 m 1
 274 142 314 123 366 123 c 0
 473 123 528 203 528 350 c 0
 528 399 521 441 509 474 c 1
 247 178 l 1
446 911 m 0
 486 911 506 908 506 897 c 0
 506 885 499 883 402 777 c 0
 391 765 374 752 327 752 c 0
 303 752 296 756 296 767 c 0
 296 778 315 803 361 884 c 0
 373 905 406 911 446 911 c 0
EndSplineSet
Position2: "'cpsp' Capital Spacing lookup 3 subtable" dx=5 dy=0 dh=10 dv=0
EndChar

StartChar: Otilde
Encoding: 213 213 129
Width: 731
Flags: MW
HStem: -8 131<312.5 419.5 312.5 469> 576 132<312.5 419.5> 757 86<421.5 435.5> 784 86<287.5 303>
VStem: 45 158<276.5 423.5 276.5 465.5> 528 158<276.5 423.5>
LayerCount: 2
Fore
SplineSet
485 858 m 0xec
 491 862 498 864 504 864 c 0
 512 864 521 861 529 852 c 0
 535 845 538 839 538 832 c 0
 538 823 533 812 521 798 c 1
 496 773 456 757 415 757 c 0xec
 380 757 362 765 343 773 c 0
 329 779 314 784 292 784 c 0
 270 784 256 777 242 770 c 0
 238 768 234 767 230 767 c 0
 219 767 209 773 200 784 c 0
 195 790 193 797 193 803 c 0
 193 812 197 821 205 829 c 1
 234 852 267 870 308 870 c 0xdc
 346 870 367 861 386 854 c 0
 400 848 412 843 431 843 c 0
 453 843 468 848 485 858 c 0xec
366 708 m 0
 572 708 686 581 686 350 c 0
 686 119 572 -8 366 -8 c 0
 160 -8 45 119 45 350 c 0
 45 581 160 708 366 708 c 0
366 576 m 0
 259 576 203 497 203 350 c 0
 203 203 259 123 366 123 c 0
 473 123 528 203 528 350 c 0
 528 497 473 576 366 576 c 0
EndSplineSet
Position2: "'cpsp' Capital Spacing lookup 3 subtable" dx=5 dy=0 dh=10 dv=0
EndChar

StartChar: OE
Encoding: 338 338 130
Width: 1021
Flags: MW
HStem: -8 131<312.5 389.5> 0 131<556.5 937 684 937 684 937> 293 131<684 909 684 909> 569 131<684 936 684 684> 576 132<312.5 390 256 419.5>
VStem: 45 158<276.5 423.5 276.5 465.5> 528 156<276.5 293 131 423.5>
LayerCount: 2
Fore
SplineSet
937 131 m 2x76
 958 131 967 116 967 81 c 2
 967 50 l 2
 967 15 958 0 937 0 c 2
 570 0 l 2x76
 543 0 531 11 530 37 c 1
 481 7 423 -8 356 -8 c 0
 156 -8 45 119 45 350 c 0
 45 581 156 708 356 708 c 0xae
 424 708 481 693 530 662 c 1
 530 688 542 700 570 700 c 2
 936 700 l 2
 957 700 966 685 966 650 c 2
 966 619 l 2
 966 584 957 569 936 569 c 2
 684 569 l 1
 684 424 l 1
 909 424 l 2
 930 424 939 409 939 374 c 2
 939 343 l 2
 939 308 930 293 909 293 c 2
 684 293 l 1
 684 131 l 1
 937 131 l 2x76
366 123 m 0xae
 473 123 528 203 528 350 c 0
 528 497 473 576 366 576 c 0
 259 576 203 497 203 350 c 0
 203 203 259 123 366 123 c 0xae
EndSplineSet
Position2: "'cpsp' Capital Spacing lookup 3 subtable" dx=5 dy=0 dh=10 dv=0
EndChar

StartChar: P
Encoding: 80 80 131
Width: 570
Flags: MW
HStem: -2 21G<108 129 129 163> 262 132<223 312 312 329 223 312> 569 131<223 223 223 312>
VStem: 69 154<30 262 394 569> 399 158<445 517>
LayerCount: 2
Fore
SplineSet
319 700 m 2
 408 700 557 674 557 481 c 0
 557 288 383 262 329 262 c 2
 223 262 l 1
 223 30 l 2
 223 9 205 -2 163 -2 c 2
 129 -2 l 2
 87 -2 69 9 69 30 c 2
 69 660 l 2
 69 688 81 700 109 700 c 2
 319 700 l 2
223 569 m 1
 223 394 l 1
 312 394 l 2
 350 394 399 409 399 481 c 0
 399 553 350 569 312 569 c 2
 223 569 l 1
EndSplineSet
Position2: "'cpsp' Capital Spacing lookup 3 subtable" dx=5 dy=0 dh=10 dv=0
EndChar

StartChar: Thorn
Encoding: 222 222 132
Width: 567
Flags: MW
HStem: -2 21G<107 128 128 162> 155 132<222 318 318 335 222 318> 462 131<222 325 222 318> 682 20G<128 162 162 183>
VStem: 68 154<30 155 287 462 593 670> 405 158<338 410>
LayerCount: 2
Fore
SplineSet
162 702 m 2
 204 702 222 691 222 670 c 2
 222 593 l 1
 325 593 l 2
 414 593 563 567 563 374 c 0
 563 181 389 155 335 155 c 2
 222 155 l 1
 222 30 l 2
 222 9 204 -2 162 -2 c 2
 128 -2 l 2
 86 -2 68 9 68 30 c 2
 68 670 l 2
 68 691 86 702 128 702 c 2
 162 702 l 2
222 462 m 1
 222 287 l 1
 318 287 l 2
 356 287 405 302 405 374 c 0
 405 446 356 462 318 462 c 2
 222 462 l 1
EndSplineSet
Position2: "'cpsp' Capital Spacing lookup 3 subtable" dx=5 dy=0 dh=10 dv=0
EndChar

StartChar: Q
Encoding: 81 81 133
Width: 731
Flags: MW
HStem: 576 132<312.5 419.5>
VStem: 45 158<275 423.5 275 465.5> 528 158<275 423.5>
LayerCount: 2
Fore
SplineSet
682 -28 m 2
 691 -31 696 -37 696 -44 c 0
 696 -60 673 -146 641 -146 c 0
 631 -146 634 -145 227 16 c 0
 109 62 45 177 45 350 c 0
 45 581 160 708 366 708 c 0
 572 708 686 581 686 350 c 0
 686 192 630 83 529 31 c 1
 529 27 l 1
 682 -28 l 2
366 576 m 0
 259 576 203 497 203 350 c 0
 203 200 259 119 366 119 c 0
 473 119 528 200 528 350 c 0
 528 497 473 576 366 576 c 0
EndSplineSet
Position2: "'cpsp' Capital Spacing lookup 3 subtable" dx=5 dy=0 dh=10 dv=0
EndChar

StartChar: R
Encoding: 82 82 134
Width: 610
Flags: MW
HStem: -2 21G 274 133<223 262 223 318> 569 131<223 223 223 304 304 311>
VStem: 69 154<30 274 407 569> 395 158<473.5 516>
LayerCount: 2
Fore
SplineSet
304 700 m 2
 477 700 553 632 553 512 c 0
 553 435 505 379 436 353 c 1
 436 349 l 1
 461 339 491 300 508 257 c 2
 596 37 l 2
 599 29 601 23 601 18 c 0
 601 6 582 -2 541 -2 c 2
 500 -2 l 2
 471 -2 448 3 442 19 c 2
 363 214 l 1
 343 254 327 274 262 274 c 2
 223 274 l 1
 223 30 l 2
 223 9 205 -2 163 -2 c 2
 129 -2 l 2
 87 -2 69 9 69 30 c 2
 69 660 l 2
 69 688 81 700 109 700 c 2
 304 700 l 2
223 569 m 1
 223 407 l 1
 318 407 l 2
 359 407 395 445 395 493 c 0
 395 539 363 569 311 569 c 2
 223 569 l 1
EndSplineSet
Position2: "'cpsp' Capital Spacing lookup 3 subtable" dx=5 dy=0 dh=10 dv=0
EndChar

StartChar: Racute
Encoding: 340 340 135
Width: 610
Flags: MW
HStem: -2 21G 274 133<223 262 223 318> 569 131<223 304 304 311 223 223> 752 159<254 405>
VStem: 69 154<30 274 407 569> 395 158<473.5 516>
LayerCount: 2
Fore
SplineSet
385 911 m 0
 425 911 445 908 445 897 c 0
 445 885 438 883 341 777 c 0
 330 765 313 752 266 752 c 0
 242 752 235 756 235 767 c 0
 235 778 254 803 300 884 c 0
 312 905 345 911 385 911 c 0
304 700 m 2
 477 700 553 632 553 512 c 0
 553 435 505 379 436 353 c 1
 436 349 l 1
 461 339 491 300 508 257 c 2
 596 37 l 2
 599 29 601 23 601 18 c 0
 601 6 582 -2 541 -2 c 2
 500 -2 l 2
 471 -2 448 3 442 19 c 2
 363 214 l 1
 343 254 327 274 262 274 c 2
 223 274 l 1
 223 30 l 2
 223 9 205 -2 163 -2 c 2
 129 -2 l 2
 87 -2 69 9 69 30 c 2
 69 660 l 2
 69 688 81 700 109 700 c 2
 304 700 l 2
223 407 m 1
 318 407 l 2
 359 407 395 445 395 493 c 0
 395 539 363 569 311 569 c 2
 223 569 l 1
 223 407 l 1
EndSplineSet
Position2: "'cpsp' Capital Spacing lookup 3 subtable" dx=5 dy=0 dh=10 dv=0
EndChar

StartChar: Rcaron
Encoding: 344 344 136
Width: 610
Flags: MW
HStem: -2 21G 274 133<223 262 223 318> 569 131<223 304 304 311 223 223> 749 146<188 300 188 311>
VStem: 69 154<30 274 407 569> 395 158<473.5 516>
LayerCount: 2
Fore
SplineSet
423 895 m 2
 436 895 443 892 443 885 c 0
 443 881 441 876 437 870 c 2
 372 768 l 2
 361 750 340 749 311 749 c 2
 300 749 l 2
 271 749 250 750 239 768 c 2
 174 870 l 2
 170 876 168 881 168 885 c 0
 168 892 174 895 188 895 c 2
 210 895 l 2
 239 895 262 891 277 870 c 2
 305 831 l 1
 333 871 l 2
 346 890 372 895 401 895 c 2
 423 895 l 2
304 700 m 2
 477 700 553 632 553 512 c 0
 553 435 505 379 436 353 c 1
 436 349 l 1
 461 339 491 300 508 257 c 2
 596 37 l 2
 599 29 601 23 601 18 c 0
 601 6 582 -2 541 -2 c 2
 500 -2 l 2
 471 -2 448 3 442 19 c 2
 363 214 l 1
 343 254 327 274 262 274 c 2
 223 274 l 1
 223 30 l 2
 223 9 205 -2 163 -2 c 2
 129 -2 l 2
 87 -2 69 9 69 30 c 2
 69 660 l 2
 69 688 81 700 109 700 c 2
 304 700 l 2
223 407 m 1
 318 407 l 2
 359 407 395 445 395 493 c 0
 395 539 363 569 311 569 c 2
 223 569 l 1
 223 407 l 1
EndSplineSet
Position2: "'cpsp' Capital Spacing lookup 3 subtable" dx=5 dy=0 dh=10 dv=0
EndChar

StartChar: Rcommaaccent
Encoding: 342 342 137
Width: 610
Flags: MW
HStem: -240 21G<250 276.5> -2 21G 274 133<223 262 223 318> 569 131<223 304 304 311 223 223>
VStem: 69 154<30 274 407 569> 238 129<-128.5 -82.5 -128.5 -81.5> 395 158<473.5 516>
LayerCount: 2
Fore
SplineSet
304 700 m 2
 477 700 553 632 553 512 c 0
 553 435 505 379 436 353 c 1
 436 349 l 1
 461 339 491 300 508 257 c 2
 596 37 l 2
 599 29 601 23 601 18 c 0
 601 6 582 -2 541 -2 c 2
 500 -2 l 2
 471 -2 448 3 442 19 c 2
 363 214 l 1
 343 254 327 274 262 274 c 2
 223 274 l 1
 223 30 l 2
 223 9 205 -2 163 -2 c 2
 129 -2 l 2
 87 -2 69 9 69 30 c 2
 69 660 l 2
 69 688 81 700 109 700 c 2
 304 700 l 2
223 407 m 1
 318 407 l 2
 359 407 395 445 395 493 c 0
 395 539 363 569 311 569 c 2
 223 569 l 1
 223 407 l 1
317 -51 m 2xfe
 352 -51 367 -70 367 -95 c 0
 367 -162 294 -240 259 -240 c 0
 241 -240 214 -234 214 -218 c 0
 214 -200 238 -175 238 -95 c 0
 238 -68 256 -51 298 -51 c 2
 317 -51 l 2xfe
EndSplineSet
Position2: "'cpsp' Capital Spacing lookup 3 subtable" dx=5 dy=0 dh=10 dv=0
EndChar

StartChar: Rdotbelow
Encoding: 7770 7770 138
Width: 610
Flags: MW
HStem: -204 124<286 328> -2 21G 274 133<223 262 223 318> 569 131<223 304 304 311 223 223>
VStem: 69 154<30 274 407 569> 247 120<-172 -112 -182.5 -101.5> 395 158<473.5 516>
LayerCount: 2
Fore
SplineSet
304 700 m 2
 477 700 553 632 553 512 c 0
 553 435 505 379 436 353 c 1
 436 349 l 1
 461 339 491 300 508 257 c 2
 596 37 l 2
 599 29 601 23 601 18 c 0
 601 6 582 -2 541 -2 c 2
 500 -2 l 2
 471 -2 448 3 442 19 c 2
 363 214 l 1
 343 254 327 274 262 274 c 2
 223 274 l 1
 223 30 l 2
 223 9 205 -2 163 -2 c 2
 129 -2 l 2
 87 -2 69 9 69 30 c 2
 69 660 l 2
 69 688 81 700 109 700 c 2
 304 700 l 2
223 407 m 1
 318 407 l 2
 359 407 395 445 395 493 c 0
 395 539 363 569 311 569 c 2
 223 569 l 1
 223 407 l 1
247 -112 m 2xfe
 247 -91 265 -80 307 -80 c 0
 349 -80 367 -91 367 -112 c 2
 367 -172 l 2
 367 -193 349 -204 307 -204 c 0
 265 -204 247 -193 247 -172 c 2
 247 -112 l 2xfe
EndSplineSet
Position2: "'cpsp' Capital Spacing lookup 3 subtable" dx=5 dy=0 dh=10 dv=0
EndChar

StartChar: S
Encoding: 83 83 139
Width: 500
Flags: MW
HStem: -8 131<191 252.5 191 311.5> 576 132<248 320.5>
VStem: 36 158<492.5 531.5 492.5 578> 325 158<164.5 223>
LayerCount: 2
Fore
SplineSet
273 708 m 0
 379 708 453 671 453 638 c 0
 453 611 422 551 398 551 c 0
 385 551 354 576 287 576 c 0
 209 576 194 543 194 520 c 0
 194 465 243 445 301 422 c 0
 383 388 483 347 483 211 c 0
 483 48 366 -8 257 -8 c 0
 105 -8 22 46 22 80 c 0
 22 111 63 169 84 169 c 0
 102 169 151 123 231 123 c 0
 274 123 325 136 325 193 c 0
 325 253 246 270 171 305 c 0
 102 338 36 386 36 506 c 0
 36 650 156 708 273 708 c 0
EndSplineSet
Position2: "'cpsp' Capital Spacing lookup 3 subtable" dx=5 dy=0 dh=10 dv=0
EndChar

StartChar: Sacute
Encoding: 346 346 140
Width: 500
Flags: MW
HStem: -8 131<191 252.5 191 311.5> 576 132<248 320.5> 752 159<199 350>
VStem: 36 158<492.5 531.5 492.5 578> 325 158<164.5 223>
LayerCount: 2
Fore
SplineSet
330 911 m 0
 370 911 390 908 390 897 c 0
 390 885 383 883 286 777 c 0
 275 765 258 752 211 752 c 0
 187 752 180 756 180 767 c 0
 180 778 199 803 245 884 c 0
 257 905 290 911 330 911 c 0
273 708 m 0
 379 708 453 671 453 638 c 0
 453 611 422 551 398 551 c 0
 385 551 354 576 287 576 c 0
 209 576 194 543 194 520 c 0
 194 465 243 445 301 422 c 0
 383 388 483 347 483 211 c 0
 483 48 366 -8 257 -8 c 0
 105 -8 22 46 22 80 c 0
 22 111 63 169 84 169 c 0
 102 169 151 123 231 123 c 0
 274 123 325 136 325 193 c 0
 325 253 246 270 171 305 c 0
 102 338 36 386 36 506 c 0
 36 650 156 708 273 708 c 0
EndSplineSet
Substitution2: "'locl' Localized Forms in Latin lookup 12 subtable" Sacute.loclPLK
Substitution2: "'aalt' Access All Alternates lookup 0 subtable" Sacute.loclPLK
Position2: "'cpsp' Capital Spacing lookup 3 subtable" dx=5 dy=0 dh=10 dv=0
EndChar

StartChar: Scaron
Encoding: 352 352 141
Width: 500
Flags: MW
HStem: -8 131<191 252.5 191 311.5> 576 132<248 320.5> 749 146<133 245 133 256>
VStem: 36 158<492.5 531.5 492.5 578> 325 158<164.5 223>
LayerCount: 2
Fore
SplineSet
368 895 m 2
 381 895 388 892 388 885 c 0
 388 881 386 876 382 870 c 2
 317 768 l 2
 306 750 285 749 256 749 c 2
 245 749 l 2
 216 749 195 750 184 768 c 2
 119 870 l 2
 115 876 113 881 113 885 c 0
 113 892 119 895 133 895 c 2
 155 895 l 2
 184 895 207 891 222 870 c 2
 250 831 l 1
 278 871 l 2
 291 890 317 895 346 895 c 2
 368 895 l 2
273 708 m 0
 379 708 453 671 453 638 c 0
 453 611 422 551 398 551 c 0
 385 551 354 576 287 576 c 0
 209 576 194 543 194 520 c 0
 194 465 243 445 301 422 c 0
 383 388 483 347 483 211 c 0
 483 48 366 -8 257 -8 c 0
 105 -8 22 46 22 80 c 0
 22 111 63 169 84 169 c 0
 102 169 151 123 231 123 c 0
 274 123 325 136 325 193 c 0
 325 253 246 270 171 305 c 0
 102 338 36 386 36 506 c 0
 36 650 156 708 273 708 c 0
EndSplineSet
Position2: "'cpsp' Capital Spacing lookup 3 subtable" dx=5 dy=0 dh=10 dv=0
EndChar

StartChar: Scedilla
Encoding: 350 350 142
Width: 500
Flags: MW
HStem: -212 73<204 233 203 271.5> -7 130<191 281> 576 132<248 320.5>
VStem: 36 158<492.5 531.5 492.5 578> 248 103<-127.5 -109.5> 325 158<164.5 223>
LayerCount: 2
Fore
SplineSet
274 -36 m 1xf8
 309 -41 351 -61 351 -112 c 0
 351 -180 311 -212 232 -212 c 0
 176 -212 101 -194 101 -162 c 0
 101 -128 126 -118 133 -118 c 0
 156 -118 182 -139 224 -139 c 0
 242 -139 248 -133 248 -122 c 0
 248 -97 195 -98 195 -74 c 0
 195 -70 196 -65 215 -7 c 1xf8
 90 2 22 49 22 80 c 0
 22 111 63 169 84 169 c 0
 102 169 151 123 231 123 c 0
 274 123 325 136 325 193 c 0
 325 253 246 270 171 305 c 0
 102 338 36 386 36 506 c 0
 36 650 156 708 273 708 c 0
 379 708 453 671 453 638 c 0
 453 611 422 551 398 551 c 0
 385 551 354 576 287 576 c 0
 209 576 194 543 194 520 c 0
 194 465 243 445 301 422 c 0
 383 388 483 347 483 211 c 0xf4
 483 60 383 1 281 -7 c 1
 274 -36 l 1xf8
EndSplineSet
Substitution2: "'locl' Localized Forms in Latin lookup 11 subtable" Scommaaccent
Substitution2: "'locl' Localized Forms in Latin lookup 10 subtable" Scommaaccent
Substitution2: "'aalt' Access All Alternates lookup 0 subtable" Scommaaccent
Position2: "'cpsp' Capital Spacing lookup 3 subtable" dx=5 dy=0 dh=10 dv=0
EndChar

StartChar: Scircumflex
Encoding: 348 348 143
Width: 500
Flags: MW
HStem: -8 131<191 252.5 191 311.5> 576 132<248 320.5> 749 146<126 256 133 256 245 346 245 368>
VStem: 36 158<492.5 531.5 492.5 578> 325 158<164.5 223>
LayerCount: 2
Fore
SplineSet
256 895 m 2
 285 895 306 894 317 876 c 2
 382 774 l 2
 386 768 388 763 388 759 c 0
 388 752 381 749 368 749 c 2
 346 749 l 2
 317 749 291 754 278 773 c 2
 250 813 l 1
 222 774 l 2
 207 753 184 749 155 749 c 2
 133 749 l 2
 119 749 113 752 113 759 c 0
 113 763 115 768 119 774 c 2
 184 876 l 2
 195 894 216 895 245 895 c 2
 256 895 l 2
273 708 m 0
 379 708 453 671 453 638 c 0
 453 611 422 551 398 551 c 0
 385 551 354 576 287 576 c 0
 209 576 194 543 194 520 c 0
 194 465 243 445 301 422 c 0
 383 388 483 347 483 211 c 0
 483 48 366 -8 257 -8 c 0
 105 -8 22 46 22 80 c 0
 22 111 63 169 84 169 c 0
 102 169 151 123 231 123 c 0
 274 123 325 136 325 193 c 0
 325 253 246 270 171 305 c 0
 102 338 36 386 36 506 c 0
 36 650 156 708 273 708 c 0
EndSplineSet
Position2: "'cpsp' Capital Spacing lookup 3 subtable" dx=5 dy=0 dh=10 dv=0
EndChar

StartChar: Scommaaccent
Encoding: 536 536 144
Width: 500
Flags: MW
HStem: -240 21G<195 221.5> -8 131<191 252.5 191 311.5> 576 132<248 320.5>
VStem: 36 158<492.5 531.5 492.5 578> 183 129<-128.5 -82.5 -128.5 -81.5> 325 158<164.5 223>
LayerCount: 2
Fore
SplineSet
273 708 m 0xf4
 379 708 453 671 453 638 c 0
 453 611 422 551 398 551 c 0
 385 551 354 576 287 576 c 0
 209 576 194 543 194 520 c 0
 194 465 243 445 301 422 c 0
 383 388 483 347 483 211 c 0
 483 48 366 -8 257 -8 c 0
 105 -8 22 46 22 80 c 0
 22 111 63 169 84 169 c 0
 102 169 151 123 231 123 c 0
 274 123 325 136 325 193 c 0
 325 253 246 270 171 305 c 0
 102 338 36 386 36 506 c 0
 36 650 156 708 273 708 c 0xf4
262 -51 m 2xec
 297 -51 312 -70 312 -95 c 0
 312 -162 239 -240 204 -240 c 0
 186 -240 159 -234 159 -218 c 0
 159 -200 183 -175 183 -95 c 0
 183 -68 201 -51 243 -51 c 2
 262 -51 l 2xec
EndSplineSet
Position2: "'cpsp' Capital Spacing lookup 3 subtable" dx=5 dy=0 dh=10 dv=0
EndChar

StartChar: Sdotbelow
Encoding: 7778 7778 145
Width: 500
Flags: MW
HStem: -204 124<231 273> -8 131<191 252.5 191 311.5> 576 132<248 320.5>
VStem: 36 158<492.5 531.5 492.5 578> 192 120<-172 -112 -182.5 -101.5> 325 158<164.5 223>
LayerCount: 2
Fore
SplineSet
273 708 m 0xe8
 379 708 453 671 453 638 c 0
 453 611 422 551 398 551 c 0
 385 551 354 576 287 576 c 0
 209 576 194 543 194 520 c 0
 194 465 243 445 301 422 c 0
 383 388 483 347 483 211 c 0
 483 48 366 -8 257 -8 c 0
 105 -8 22 46 22 80 c 0
 22 111 63 169 84 169 c 0
 102 169 151 123 231 123 c 0
 274 123 325 136 325 193 c 0
 325 253 246 270 171 305 c 0
 102 338 36 386 36 506 c 0xf4
 36 650 156 708 273 708 c 0xe8
192 -112 m 2
 192 -91 210 -80 252 -80 c 0
 294 -80 312 -91 312 -112 c 2
 312 -172 l 2
 312 -193 294 -204 252 -204 c 0
 210 -204 192 -193 192 -172 c 2
 192 -112 l 2
EndSplineSet
Position2: "'cpsp' Capital Spacing lookup 3 subtable" dx=5 dy=0 dh=10 dv=0
EndChar

StartChar: uni1E9E
Encoding: 7838 7838 146
Width: 700
Flags: MW
HStem: -8 117<426.5 462.5 404.5 522.5> -2 21G<105 126 126 161> 576 132<304 368>
VStem: 66 155<30 431> 525 150<175 239>
LayerCount: 2
Fore
SplineSet
522 410 m 1xb8
 598 380 675 334 675 204 c 0
 675 71 586 -8 459 -8 c 0
 394 -8 272 12 272 74 c 0
 272 93 298 150 321 150 c 0
 336 150 373 109 436 109 c 0
 489 109 525 144 525 206 c 0xb8
 525 272 487 308 418 308 c 2
 391 308 l 2
 374 308 352 370 352 397 c 0
 352 401 353 405 354 407 c 2
 453 571 l 1
 424 574 389 576 347 576 c 0
 261 576 221 524 221 431 c 2
 221 30 l 2
 221 9 203 -2 161 -2 c 2
 126 -2 l 2
 84 -2 66 9 66 30 c 2x78
 66 432 l 2
 66 614 163 708 350 708 c 0
 436 708 532 700 598 690 c 0
 614 688 635 624 635 598 c 0
 635 594 635 592 634 590 c 2
 522 410 l 1xb8
EndSplineSet
Position2: "'cpsp' Capital Spacing lookup 3 subtable" dx=5 dy=0 dh=10 dv=0
EndChar

StartChar: Schwa
Encoding: 399 399 147
Width: 672
Flags: MW
HStem: -1 117<261.5 337.5 261.5 390.5> 277 99<182 182 182 444> 591 117<259 333.5>
VStem: 38 144<232.5 277 230 325.5> 444 153<277 277 376 376>
LayerCount: 2
Fore
SplineSet
444 376 m 1
 433 544 378 591 289 591 c 0
 196 591 128 540 108 540 c 0
 86 540 56 596 56 616 c 0
 56 680 222 708 296 708 c 0
 505 708 597 559 597 332 c 0
 597 93 477 -1 304 -1 c 0
 112 -1 38 148 38 317 c 0
 38 334 76 376 89 376 c 2
 444 376 l 1
182 277 m 1
 182 183 219 116 304 116 c 0
 371 116 427 152 444 277 c 1
 182 277 l 1
EndSplineSet
Position2: "'cpsp' Capital Spacing lookup 3 subtable" dx=5 dy=0 dh=10 dv=0
EndChar

StartChar: T
Encoding: 84 84 148
Width: 549
Flags: MW
HStem: -2 21G<236 257 257 292> 569 131<27.5 511 38 197 352 511 352 352>
VStem: 197 155<30 569>
LayerCount: 2
Fore
SplineSet
511 700 m 2
 532 700 541 685 541 650 c 2
 541 619 l 2
 541 584 532 569 511 569 c 2
 352 569 l 1
 352 30 l 2
 352 9 334 -2 292 -2 c 2
 257 -2 l 2
 215 -2 197 9 197 30 c 2
 197 569 l 1
 38 569 l 2
 17 569 8 584 8 619 c 2
 8 650 l 2
 8 685 17 700 38 700 c 2
 511 700 l 2
EndSplineSet
Position2: "'cpsp' Capital Spacing lookup 3 subtable" dx=5 dy=0 dh=10 dv=0
EndChar

StartChar: Tbar
Encoding: 358 358 149
Width: 549
Flags: MW
HStem: -2 21G<236 257 257 292> 303 95<90.5 197 101 197 352 456> 569 131<27.5 511 38 197 352 511 352 352>
VStem: 197 155<30 303 398 569>
LayerCount: 2
Fore
SplineSet
511 700 m 2
 532 700 541 685 541 650 c 2
 541 619 l 2
 541 584 532 569 511 569 c 2
 352 569 l 1
 352 398 l 1
 456 398 l 2
 477 398 486 386 486 358 c 2
 486 343 l 2
 486 315 477 303 456 303 c 2
 352 303 l 1
 352 30 l 2
 352 9 334 -2 292 -2 c 2
 257 -2 l 2
 215 -2 197 9 197 30 c 2
 197 303 l 1
 101 303 l 2
 80 303 71 315 71 343 c 2
 71 358 l 2
 71 386 80 398 101 398 c 2
 197 398 l 1
 197 569 l 1
 38 569 l 2
 17 569 8 584 8 619 c 2
 8 650 l 2
 8 685 17 700 38 700 c 2
 511 700 l 2
EndSplineSet
Position2: "'cpsp' Capital Spacing lookup 3 subtable" dx=5 dy=0 dh=10 dv=0
EndChar

StartChar: Tcaron
Encoding: 356 356 150
Width: 549
Flags: MW
HStem: -2 21G<236 257 257 292> 569 131<27.5 511 38 197 352 511 352 352> 749 146<158 270 158 281>
VStem: 197 155<30 569>
LayerCount: 2
Fore
SplineSet
393 895 m 2
 406 895 413 892 413 885 c 0
 413 881 411 876 407 870 c 2
 342 768 l 2
 331 750 310 749 281 749 c 2
 270 749 l 2
 241 749 220 750 209 768 c 2
 144 870 l 2
 140 876 138 881 138 885 c 0
 138 892 144 895 158 895 c 2
 180 895 l 2
 209 895 232 891 247 870 c 2
 275 831 l 1
 303 871 l 2
 316 890 342 895 371 895 c 2
 393 895 l 2
511 700 m 2
 532 700 541 685 541 650 c 2
 541 619 l 2
 541 584 532 569 511 569 c 2
 352 569 l 1
 352 30 l 2
 352 9 334 -2 292 -2 c 2
 257 -2 l 2
 215 -2 197 9 197 30 c 2
 197 569 l 1
 38 569 l 2
 17 569 8 584 8 619 c 2
 8 650 l 2
 8 685 17 700 38 700 c 2
 511 700 l 2
EndSplineSet
Position2: "'cpsp' Capital Spacing lookup 3 subtable" dx=5 dy=0 dh=10 dv=0
EndChar

StartChar: Tcedilla
Encoding: 354 354 151
Width: 549
Flags: MW
HStem: -212 73<229 258 228 296.5> -1 21G<308 308> 569 131<27.5 511 38 197 352 511 352 352>
VStem: 197 155<30 569> 273 103<-127.5 -109.5>
LayerCount: 2
Fore
SplineSet
511 700 m 2xf0
 532 700 541 685 541 650 c 2
 541 619 l 2
 541 584 532 569 511 569 c 2
 352 569 l 1
 352 30 l 2
 352 12 339 1 308 -1 c 1xf0
 299 -36 l 1
 334 -41 376 -61 376 -112 c 0
 376 -180 336 -212 257 -212 c 0
 201 -212 126 -194 126 -162 c 0
 126 -128 151 -118 158 -118 c 0
 181 -118 207 -139 249 -139 c 0xe8
 267 -139 273 -133 273 -122 c 0
 273 -97 220 -98 220 -74 c 0
 220 -70 221 -65 241 -1 c 1
 210 1 197 12 197 30 c 2
 197 569 l 1
 38 569 l 2
 17 569 8 584 8 619 c 2
 8 650 l 2
 8 685 17 700 38 700 c 2
 511 700 l 2xf0
EndSplineSet
Substitution2: "'locl' Localized Forms in Latin lookup 11 subtable" uni021A
Substitution2: "'locl' Localized Forms in Latin lookup 10 subtable" uni021A
Substitution2: "'aalt' Access All Alternates lookup 0 subtable" uni021A
Position2: "'cpsp' Capital Spacing lookup 3 subtable" dx=5 dy=0 dh=10 dv=0
EndChar

StartChar: uni021A
Encoding: 538 538 152
Width: 549
Flags: MW
HStem: -240 21G<220 246.5> -2 21G<236 257 257 292> 569 131<27.5 511 38 197 352 511 352 352>
VStem: 197 155<30 569> 208 129<-128.5 -82.5 -128.5 -81.5>
LayerCount: 2
Fore
SplineSet
511 700 m 2xf0
 532 700 541 685 541 650 c 2
 541 619 l 2
 541 584 532 569 511 569 c 2
 352 569 l 1
 352 30 l 2
 352 9 334 -2 292 -2 c 2
 257 -2 l 2
 215 -2 197 9 197 30 c 2
 197 569 l 1
 38 569 l 2
 17 569 8 584 8 619 c 2
 8 650 l 2
 8 685 17 700 38 700 c 2
 511 700 l 2xf0
287 -51 m 2
 322 -51 337 -70 337 -95 c 0xe8
 337 -162 264 -240 229 -240 c 0
 211 -240 184 -234 184 -218 c 0
 184 -200 208 -175 208 -95 c 0
 208 -68 226 -51 268 -51 c 2
 287 -51 l 2
EndSplineSet
Position2: "'cpsp' Capital Spacing lookup 3 subtable" dx=5 dy=0 dh=10 dv=0
EndChar

StartChar: Tdotbelow
Encoding: 7788 7788 153
Width: 549
Flags: MW
HStem: -204 124<256 298> -2 21G<236 257 257 292> 569 131<27.5 511 38 197 352 511 352 352>
VStem: 197 155<30 569> 217 120<-172 -112 -182.5 -101.5>
LayerCount: 2
Fore
SplineSet
511 700 m 2xf0
 532 700 541 685 541 650 c 2
 541 619 l 2
 541 584 532 569 511 569 c 2
 352 569 l 1
 352 30 l 2
 352 9 334 -2 292 -2 c 2
 257 -2 l 2
 215 -2 197 9 197 30 c 2
 197 569 l 1
 38 569 l 2
 17 569 8 584 8 619 c 2
 8 650 l 2
 8 685 17 700 38 700 c 2
 511 700 l 2xf0
217 -112 m 2xe8
 217 -91 235 -80 277 -80 c 0
 319 -80 337 -91 337 -112 c 2
 337 -172 l 2
 337 -193 319 -204 277 -204 c 0
 235 -204 217 -193 217 -172 c 2
 217 -112 l 2xe8
EndSplineSet
Position2: "'cpsp' Capital Spacing lookup 3 subtable" dx=5 dy=0 dh=10 dv=0
EndChar

StartChar: U
Encoding: 85 85 154
Width: 712
Flags: MW
HStem: -8 131<315.5 396.5 315.5 447.5> 682 20G<126 160 160 181 553 586 586 607>
VStem: 66 154<234 244 244 670> 493 153<244 670>
LayerCount: 2
Fore
SplineSet
586 702 m 2
 628 702 646 691 646 670 c 2
 646 234 l 2
 646 80 539 -8 356 -8 c 0
 173 -8 66 80 66 234 c 2
 66 670 l 2
 66 691 84 702 126 702 c 2
 160 702 l 2
 202 702 220 691 220 670 c 2
 220 244 l 2
 220 174 275 123 356 123 c 0
 437 123 493 174 493 244 c 2
 493 670 l 2
 493 691 511 702 553 702 c 2
 586 702 l 2
EndSplineSet
Position2: "'cpsp' Capital Spacing lookup 3 subtable" dx=5 dy=0 dh=10 dv=0
EndChar

StartChar: Uacute
Encoding: 218 218 155
Width: 712
Flags: MW
HStem: -8 131<315.5 396.5 315.5 447.5> 682 20G<126 160 160 181 553 586 586 607> 752 159<305 456>
VStem: 66 154<234 244 244 670> 493 153<244 670>
LayerCount: 2
Fore
SplineSet
436 911 m 0
 476 911 496 908 496 897 c 0
 496 885 489 883 392 777 c 0
 381 765 364 752 317 752 c 0
 293 752 286 756 286 767 c 0
 286 778 305 803 351 884 c 0
 363 905 396 911 436 911 c 0
586 702 m 2
 628 702 646 691 646 670 c 2
 646 234 l 2
 646 80 539 -8 356 -8 c 0
 173 -8 66 80 66 234 c 2
 66 670 l 2
 66 691 84 702 126 702 c 2
 160 702 l 2
 202 702 220 691 220 670 c 2
 220 244 l 2
 220 174 275 123 356 123 c 0
 437 123 493 174 493 244 c 2
 493 670 l 2
 493 691 511 702 553 702 c 2
 586 702 l 2
EndSplineSet
Position2: "'cpsp' Capital Spacing lookup 3 subtable" dx=5 dy=0 dh=10 dv=0
EndChar

StartChar: Ubreve
Encoding: 364 364 156
Width: 712
Flags: MW
HStem: -8 131<315.5 396.5 315.5 447.5> 682 20G<126 160 160 181 553 586 586 607> 752 91<330.5 383 330.5 399.5>
VStem: 66 154<234 244 244 670> 493 153<244 670>
LayerCount: 2
Fore
SplineSet
468 892 m 0
 490 892 503 882 503 864 c 0
 503 807 443 752 356 752 c 0
 269 752 209 807 209 864 c 0
 209 882 222 892 244 892 c 0
 261 892 268 884 277 874 c 0
 290 860 305 843 356 843 c 0
 410 843 424 862 437 876 c 0
 445 885 452 892 468 892 c 0
586 702 m 2
 628 702 646 691 646 670 c 2
 646 234 l 2
 646 80 539 -8 356 -8 c 0
 173 -8 66 80 66 234 c 2
 66 670 l 2
 66 691 84 702 126 702 c 2
 160 702 l 2
 202 702 220 691 220 670 c 2
 220 244 l 2
 220 174 275 123 356 123 c 0
 437 123 493 174 493 244 c 2
 493 670 l 2
 493 691 511 702 553 702 c 2
 586 702 l 2
EndSplineSet
Position2: "'cpsp' Capital Spacing lookup 3 subtable" dx=5 dy=0 dh=10 dv=0
EndChar

StartChar: Ucircumflex
Encoding: 219 219 157
Width: 712
Flags: MW
HStem: -8 131<315.5 396.5 315.5 447.5> 682 20G<126 160 160 181 553 586 586 607> 749 146<232 362 239 362 351 452 351 474>
VStem: 66 154<234 244 244 670> 493 153<244 670>
LayerCount: 2
Fore
SplineSet
362 895 m 2
 391 895 412 894 423 876 c 2
 488 774 l 2
 492 768 494 763 494 759 c 0
 494 752 487 749 474 749 c 2
 452 749 l 2
 423 749 397 754 384 773 c 2
 356 813 l 1
 328 774 l 2
 313 753 290 749 261 749 c 2
 239 749 l 2
 225 749 219 752 219 759 c 0
 219 763 221 768 225 774 c 2
 290 876 l 2
 301 894 322 895 351 895 c 2
 362 895 l 2
586 702 m 2
 628 702 646 691 646 670 c 2
 646 234 l 2
 646 80 539 -8 356 -8 c 0
 173 -8 66 80 66 234 c 2
 66 670 l 2
 66 691 84 702 126 702 c 2
 160 702 l 2
 202 702 220 691 220 670 c 2
 220 244 l 2
 220 174 275 123 356 123 c 0
 437 123 493 174 493 244 c 2
 493 670 l 2
 493 691 511 702 553 702 c 2
 586 702 l 2
EndSplineSet
Position2: "'cpsp' Capital Spacing lookup 3 subtable" dx=5 dy=0 dh=10 dv=0
EndChar

StartChar: Udieresis
Encoding: 220 220 158
Width: 712
Flags: MW
HStem: -8 131<315.5 396.5 315.5 447.5> 682 20G<126 160 160 181 553 586 586 607> 755 124<245 287 425 467>
VStem: 66 154<234 244 244 670> 206 120<787 847 776.5 857.5> 386 120<787 847 776.5 857.5> 493 153<244 670>
LayerCount: 2
Fore
SplineSet
206 847 m 2xec
 206 868 224 879 266 879 c 0
 308 879 326 868 326 847 c 2
 326 787 l 2
 326 766 308 755 266 755 c 0
 224 755 206 766 206 787 c 2
 206 847 l 2xec
386 847 m 2
 386 868 404 879 446 879 c 0
 488 879 506 868 506 847 c 2
 506 787 l 2
 506 766 488 755 446 755 c 0
 404 755 386 766 386 787 c 2
 386 847 l 2
586 702 m 2xf2
 628 702 646 691 646 670 c 2
 646 234 l 2
 646 80 539 -8 356 -8 c 0
 173 -8 66 80 66 234 c 2
 66 670 l 2
 66 691 84 702 126 702 c 2
 160 702 l 2
 202 702 220 691 220 670 c 2
 220 244 l 2
 220 174 275 123 356 123 c 0
 437 123 493 174 493 244 c 2
 493 670 l 2
 493 691 511 702 553 702 c 2
 586 702 l 2xf2
EndSplineSet
Position2: "'cpsp' Capital Spacing lookup 3 subtable" dx=5 dy=0 dh=10 dv=0
EndChar

StartChar: Udotbelow
Encoding: 7908 7908 159
Width: 712
Flags: MW
HStem: -204 124<337 379> -8 131<315.5 396.5 315.5 447.5> 682 20G<126 160 160 181 553 586 586 607>
VStem: 66 154<234 244 244 670> 298 120<-172 -112 -182.5 -101.5> 493 153<244 670>
LayerCount: 2
Fore
SplineSet
586 702 m 2
 628 702 646 691 646 670 c 2
 646 234 l 2
 646 80 539 -8 356 -8 c 0
 173 -8 66 80 66 234 c 2
 66 670 l 2
 66 691 84 702 126 702 c 2
 160 702 l 2
 202 702 220 691 220 670 c 2
 220 244 l 2
 220 174 275 123 356 123 c 0
 437 123 493 174 493 244 c 2
 493 670 l 2
 493 691 511 702 553 702 c 2
 586 702 l 2
298 -112 m 2
 298 -91 316 -80 358 -80 c 0
 400 -80 418 -91 418 -112 c 2
 418 -172 l 2
 418 -193 400 -204 358 -204 c 0
 316 -204 298 -193 298 -172 c 2
 298 -112 l 2
EndSplineSet
Position2: "'cpsp' Capital Spacing lookup 3 subtable" dx=5 dy=0 dh=10 dv=0
EndChar

StartChar: Ugrave
Encoding: 217 217 160
Width: 712
Flags: MW
HStem: -8 131<315.5 396.5 315.5 447.5> 682 20G<126 160 160 181 553 586 586 607> 752 159<262 413>
VStem: 66 154<234 244 244 670> 493 153<244 670>
LayerCount: 2
Fore
SplineSet
282 911 m 0
 322 911 355 905 367 884 c 0
 413 803 432 778 432 767 c 0
 432 756 425 752 401 752 c 0
 354 752 337 765 326 777 c 0
 229 883 222 885 222 897 c 0
 222 908 242 911 282 911 c 0
586 702 m 2
 628 702 646 691 646 670 c 2
 646 234 l 2
 646 80 539 -8 356 -8 c 0
 173 -8 66 80 66 234 c 2
 66 670 l 2
 66 691 84 702 126 702 c 2
 160 702 l 2
 202 702 220 691 220 670 c 2
 220 244 l 2
 220 174 275 123 356 123 c 0
 437 123 493 174 493 244 c 2
 493 670 l 2
 493 691 511 702 553 702 c 2
 586 702 l 2
EndSplineSet
Position2: "'cpsp' Capital Spacing lookup 3 subtable" dx=5 dy=0 dh=10 dv=0
EndChar

StartChar: Uhookabove
Encoding: 7910 7910 161
Width: 712
Flags: MW
HStem: -8 131<315.5 396.5 315.5 447.5> 682 20G<126 160 160 181 553 586 586 607> 867 61<351.5 369>
VStem: 66 154<234 244 244 670> 393 87<830 852> 493 153<244 670>
LayerCount: 2
Fore
SplineSet
393 845 m 0
 393 859 377 867 361 867 c 0
 339 867 328 855 319 855 c 0
 311 855 289 882 289 897 c 0
 289 910 334 928 369 928 c 0
 441 928 480 898 480 849 c 0
 480 796 398 747 380 747 c 0
 356 747 326 762 326 770 c 0
 326 787 393 815 393 845 c 0
586 702 m 2xf4
 628 702 646 691 646 670 c 2
 646 234 l 2
 646 80 539 -8 356 -8 c 0
 173 -8 66 80 66 234 c 2
 66 670 l 2
 66 691 84 702 126 702 c 2
 160 702 l 2
 202 702 220 691 220 670 c 2
 220 244 l 2
 220 174 275 123 356 123 c 0
 437 123 493 174 493 244 c 2
 493 670 l 2
 493 691 511 702 553 702 c 2
 586 702 l 2xf4
EndSplineSet
Position2: "'cpsp' Capital Spacing lookup 3 subtable" dx=5 dy=0 dh=10 dv=0
EndChar

StartChar: Uhorn
Encoding: 431 431 162
Width: 712
Flags: MW
HStem: -8 131<315.5 396.5 315.5 447.5> 662 40
VStem: 66 154<234 244 244 670> 493 153<244 662> 658 80<729 749>
LayerCount: 2
Fore
SplineSet
675 831 m 2
 680 835 685 836 691 836 c 0
 717 836 738 783 738 753 c 0xf8
 738 705 710 671 646 662 c 1
 646 234 l 2
 646 80 539 -8 356 -8 c 0
 173 -8 66 80 66 234 c 2
 66 670 l 2
 66 691 84 702 126 702 c 2
 160 702 l 2
 202 702 220 691 220 670 c 2
 220 244 l 2
 220 174 275 123 356 123 c 0
 437 123 493 174 493 244 c 2
 493 670 l 2
 493 691 511 702 553 702 c 2xf0
 611 702 l 2
 645 702 658 715 658 738 c 0
 658 760 632 777 632 790 c 0
 632 797 635 804 643 809 c 2
 675 831 l 2
EndSplineSet
Position2: "'cpsp' Capital Spacing lookup 3 subtable" dx=5 dy=0 dh=10 dv=0
EndChar

StartChar: Uhornacute
Encoding: 7912 7912 163
Width: 712
Flags: MW
HStem: -8 131<315.5 396.5 315.5 447.5> 662 40 752 159<305 456>
VStem: 66 154<234 244 244 670> 493 153<244 662> 658 80<729 749>
LayerCount: 2
Fore
SplineSet
317 752 m 0
 293 752 286 756 286 767 c 0
 286 778 305 803 351 884 c 0
 363 905 396 911 436 911 c 0
 476 911 496 908 496 897 c 0
 496 885 489 883 392 777 c 0
 381 765 364 752 317 752 c 0
675 831 m 2xfc
 680 835 685 836 691 836 c 0
 717 836 738 783 738 753 c 0xfc
 738 705 710 671 646 662 c 1
 646 234 l 2
 646 80 539 -8 356 -8 c 0
 173 -8 66 80 66 234 c 2
 66 670 l 2
 66 691 84 702 126 702 c 2
 160 702 l 2
 202 702 220 691 220 670 c 2
 220 244 l 2
 220 174 275 123 356 123 c 0
 437 123 493 174 493 244 c 2
 493 670 l 2
 493 691 511 702 553 702 c 2xf8
 611 702 l 2
 645 702 658 715 658 738 c 0
 658 760 632 777 632 790 c 0
 632 797 635 804 643 809 c 2
 675 831 l 2xfc
EndSplineSet
Position2: "'cpsp' Capital Spacing lookup 3 subtable" dx=5 dy=0 dh=10 dv=0
EndChar

StartChar: Uhorndotbelow
Encoding: 7920 7920 164
Width: 712
Flags: MW
HStem: -204 124<337 379> -8 131<315.5 396.5 315.5 447.5> 662 40
VStem: 66 154<234 244 244 670> 298 120<-172 -112 -182.5 -101.5> 493 153<244 662> 658 80<729 749>
LayerCount: 2
Fore
SplineSet
675 831 m 2
 680 835 685 836 691 836 c 0
 717 836 738 783 738 753 c 0xfe
 738 705 710 671 646 662 c 1
 646 234 l 2
 646 80 539 -8 356 -8 c 0
 173 -8 66 80 66 234 c 2
 66 670 l 2
 66 691 84 702 126 702 c 2
 160 702 l 2
 202 702 220 691 220 670 c 2
 220 244 l 2
 220 174 275 123 356 123 c 0
 437 123 493 174 493 244 c 2
 493 670 l 2
 493 691 511 702 553 702 c 2xfc
 611 702 l 2
 645 702 658 715 658 738 c 0
 658 760 632 777 632 790 c 0
 632 797 635 804 643 809 c 2
 675 831 l 2
298 -112 m 2xfc
 298 -91 316 -80 358 -80 c 0
 400 -80 418 -91 418 -112 c 2
 418 -172 l 2
 418 -193 400 -204 358 -204 c 0
 316 -204 298 -193 298 -172 c 2
 298 -112 l 2xfc
EndSplineSet
Position2: "'cpsp' Capital Spacing lookup 3 subtable" dx=5 dy=0 dh=10 dv=0
EndChar

StartChar: Uhorngrave
Encoding: 7914 7914 165
Width: 712
Flags: MW
HStem: -8 131<315.5 396.5 315.5 447.5> 662 40 752 159<262 413>
VStem: 66 154<234 244 244 670> 493 153<244 662> 658 80<729 749>
LayerCount: 2
Fore
SplineSet
401 752 m 0
 354 752 337 765 326 777 c 0
 229 883 222 885 222 897 c 0
 222 908 242 911 282 911 c 0
 322 911 355 905 367 884 c 0
 413 803 432 778 432 767 c 0
 432 756 425 752 401 752 c 0
675 831 m 2xfc
 680 835 685 836 691 836 c 0
 717 836 738 783 738 753 c 0xfc
 738 705 710 671 646 662 c 1
 646 234 l 2
 646 80 539 -8 356 -8 c 0
 173 -8 66 80 66 234 c 2
 66 670 l 2
 66 691 84 702 126 702 c 2
 160 702 l 2
 202 702 220 691 220 670 c 2
 220 244 l 2
 220 174 275 123 356 123 c 0
 437 123 493 174 493 244 c 2
 493 670 l 2
 493 691 511 702 553 702 c 2xf8
 611 702 l 2
 645 702 658 715 658 738 c 0
 658 760 632 777 632 790 c 0
 632 797 635 804 643 809 c 2
 675 831 l 2xfc
EndSplineSet
Position2: "'cpsp' Capital Spacing lookup 3 subtable" dx=5 dy=0 dh=10 dv=0
EndChar

StartChar: Uhornhookabove
Encoding: 7916 7916 166
Width: 712
Flags: MW
HStem: -8 131<315.5 396.5 315.5 447.5> 662 40 867 61<351.5 369>
VStem: 66 154<234 244 244 670> 393 87<830 852> 493 153<244 662> 658 80<729 749>
LayerCount: 2
Fore
SplineSet
319 855 m 0
 311 855 289 882 289 897 c 0
 289 910 334 928 369 928 c 0
 441 928 480 898 480 849 c 0
 480 796 398 747 380 747 c 0
 356 747 326 762 326 770 c 0
 326 787 393 815 393 845 c 0
 393 859 377 867 361 867 c 0
 339 867 328 855 319 855 c 0
675 831 m 2
 680 835 685 836 691 836 c 0
 717 836 738 783 738 753 c 0xf6
 738 705 710 671 646 662 c 1
 646 234 l 2
 646 80 539 -8 356 -8 c 0
 173 -8 66 80 66 234 c 2
 66 670 l 2
 66 691 84 702 126 702 c 2
 160 702 l 2
 202 702 220 691 220 670 c 2
 220 244 l 2
 220 174 275 123 356 123 c 0
 437 123 493 174 493 244 c 2
 493 670 l 2
 493 691 511 702 553 702 c 2xf4
 611 702 l 2
 645 702 658 715 658 738 c 0
 658 760 632 777 632 790 c 0
 632 797 635 804 643 809 c 2
 675 831 l 2
EndSplineSet
Position2: "'cpsp' Capital Spacing lookup 3 subtable" dx=5 dy=0 dh=10 dv=0
EndChar

StartChar: Uhorntilde
Encoding: 7918 7918 167
Width: 712
Flags: MW
HStem: -8 131<315.5 396.5 315.5 447.5> 662 40 757 86<411.5 425.5> 784 86<277.5 293>
VStem: 66 154<234 244 244 670> 493 153<244 662> 658 80<729 749>
LayerCount: 2
Fore
SplineSet
232 770 m 0xdc
 228 768 224 767 220 767 c 0
 209 767 199 773 190 784 c 0
 185 790 183 797 183 803 c 0
 183 812 187 821 195 829 c 1
 224 852 257 870 298 870 c 0xdc
 336 870 357 861 376 854 c 0
 390 848 402 843 421 843 c 0
 443 843 458 848 475 858 c 0
 481 862 488 864 494 864 c 0
 502 864 511 861 519 852 c 0
 525 845 528 839 528 832 c 0
 528 823 523 812 511 798 c 1
 486 773 446 757 405 757 c 0xec
 370 757 352 765 333 773 c 0
 319 779 304 784 282 784 c 0
 260 784 246 777 232 770 c 0xdc
675 831 m 2xde
 680 835 685 836 691 836 c 0
 717 836 738 783 738 753 c 0xde
 738 705 710 671 646 662 c 1
 646 234 l 2
 646 80 539 -8 356 -8 c 0
 173 -8 66 80 66 234 c 2
 66 670 l 2
 66 691 84 702 126 702 c 2
 160 702 l 2
 202 702 220 691 220 670 c 2
 220 244 l 2
 220 174 275 123 356 123 c 0
 437 123 493 174 493 244 c 2
 493 670 l 2
 493 691 511 702 553 702 c 2xdc
 611 702 l 2
 645 702 658 715 658 738 c 0
 658 760 632 777 632 790 c 0
 632 797 635 804 643 809 c 2
 675 831 l 2xde
EndSplineSet
Position2: "'cpsp' Capital Spacing lookup 3 subtable" dx=5 dy=0 dh=10 dv=0
EndChar

StartChar: Uhungarumlaut
Encoding: 368 368 168
Width: 712
Flags: MW
HStem: -8 131<315.5 396.5 315.5 447.5> 682 20G<126 160 160 181 553 586 586 607> 752 159<221 372 332 439.5>
VStem: 66 154<234 244 244 670> 493 153<244 670>
LayerCount: 2
Fore
SplineSet
352 911 m 0
 392 911 412 908 412 897 c 0
 412 885 405 883 308 777 c 0
 297 765 280 752 233 752 c 0
 209 752 202 756 202 767 c 0
 202 778 221 803 267 884 c 0
 279 905 312 911 352 911 c 0
535 911 m 0
 575 911 595 908 595 897 c 0
 595 885 588 883 491 777 c 0
 480 765 463 752 416 752 c 0
 392 752 385 756 385 767 c 0
 385 778 404 803 450 884 c 0
 462 905 495 911 535 911 c 0
586 702 m 2
 628 702 646 691 646 670 c 2
 646 234 l 2
 646 80 539 -8 356 -8 c 0
 173 -8 66 80 66 234 c 2
 66 670 l 2
 66 691 84 702 126 702 c 2
 160 702 l 2
 202 702 220 691 220 670 c 2
 220 244 l 2
 220 174 275 123 356 123 c 0
 437 123 493 174 493 244 c 2
 493 670 l 2
 493 691 511 702 553 702 c 2
 586 702 l 2
EndSplineSet
Position2: "'cpsp' Capital Spacing lookup 3 subtable" dx=5 dy=0 dh=10 dv=0
EndChar

StartChar: Umacron
Encoding: 362 362 169
Width: 712
Flags: MW
HStem: -8 131<315.5 396.5 315.5 447.5> 682 20G<126 160 160 181 553 586 586 607> 774 95<238.5 464 249 464>
VStem: 66 154<234 244 244 670> 493 153<244 670>
LayerCount: 2
Fore
SplineSet
464 869 m 2
 485 869 494 857 494 829 c 2
 494 814 l 2
 494 786 485 774 464 774 c 2
 249 774 l 2
 228 774 219 786 219 814 c 2
 219 829 l 2
 219 857 228 869 249 869 c 2
 464 869 l 2
586 702 m 2
 628 702 646 691 646 670 c 2
 646 234 l 2
 646 80 539 -8 356 -8 c 0
 173 -8 66 80 66 234 c 2
 66 670 l 2
 66 691 84 702 126 702 c 2
 160 702 l 2
 202 702 220 691 220 670 c 2
 220 244 l 2
 220 174 275 123 356 123 c 0
 437 123 493 174 493 244 c 2
 493 670 l 2
 493 691 511 702 553 702 c 2
 586 702 l 2
EndSplineSet
Position2: "'cpsp' Capital Spacing lookup 3 subtable" dx=5 dy=0 dh=10 dv=0
EndChar

StartChar: Uogonek
Encoding: 370 370 170
Width: 712
Flags: MW
HStem: -183 70<486.5 506> -8 131<315.5 361.5> 0 21G<446 446> 682 20G<126 160 160 181 553 586 586 607>
VStem: 66 154<234 244 244 670> 369 67<-86 -73.5> 493 153<244 670>
LayerCount: 2
Fore
SplineSet
586 702 m 2xde
 628 702 646 691 646 670 c 2
 646 234 l 2
 646 107 574 25 446 0 c 1
 447 -5 l 1xbe
 447 -20 436 -33 436 -62 c 0
 436 -110 475 -113 498 -113 c 0
 523 -113 529 -105 547 -105 c 0
 561 -105 569 -114 569 -133 c 0
 569 -175 525 -183 487 -183 c 0
 380 -183 369 -110 369 -81 c 0
 369 -66 372 -30 388 -7 c 1
 378 -8 367 -8 356 -8 c 0
 173 -8 66 80 66 234 c 2
 66 670 l 2
 66 691 84 702 126 702 c 2
 160 702 l 2
 202 702 220 691 220 670 c 2
 220 244 l 2
 220 174 275 123 356 123 c 0
 437 123 493 174 493 244 c 2
 493 670 l 2
 493 691 511 702 553 702 c 2
 586 702 l 2xde
EndSplineSet
Position2: "'cpsp' Capital Spacing lookup 3 subtable" dx=5 dy=0 dh=10 dv=0
EndChar

StartChar: Uring
Encoding: 366 366 171
Width: 712
Flags: MW
HStem: -8 131<315.5 396.5 315.5 447.5> 682 20G<126 160 160 181 553 586 586 607> 727 62<346 366 346 384> 862 64<346 366>
VStem: 66 154<234 244 244 670> 257 63<815 835 815 854> 393 63<815 835> 493 153<244 670>
LayerCount: 2
Fore
SplineSet
356 926 m 0
 412 926 456 882 456 826 c 0
 456 770 412 727 356 727 c 0xff
 300 727 257 770 257 826 c 0
 257 882 300 926 356 926 c 0
356 862 m 0
 336 862 320 845 320 825 c 0
 320 805 336 789 356 789 c 0xff
 376 789 393 805 393 825 c 0
 393 845 376 862 356 862 c 0
586 702 m 2
 628 702 646 691 646 670 c 2
 646 234 l 2
 646 80 539 -8 356 -8 c 0
 173 -8 66 80 66 234 c 2
 66 670 l 2
 66 691 84 702 126 702 c 2
 160 702 l 2
 202 702 220 691 220 670 c 2
 220 244 l 2
 220 174 275 123 356 123 c 0
 437 123 493 174 493 244 c 2
 493 670 l 2
 493 691 511 702 553 702 c 2
 586 702 l 2
EndSplineSet
Position2: "'cpsp' Capital Spacing lookup 3 subtable" dx=5 dy=0 dh=10 dv=0
EndChar

StartChar: Utilde
Encoding: 360 360 172
Width: 712
Flags: MW
HStem: -8 131<315.5 396.5 315.5 447.5> 682 20G<126 160 160 181 553 586 586 607> 757 86<411.5 425.5> 784 86<277.5 293>
VStem: 66 154<234 244 244 670> 493 153<244 670>
LayerCount: 2
Fore
SplineSet
475 858 m 0xec
 481 862 488 864 494 864 c 0
 502 864 511 861 519 852 c 0
 525 845 528 839 528 832 c 0
 528 823 523 812 511 798 c 1
 486 773 446 757 405 757 c 0xec
 370 757 352 765 333 773 c 0
 319 779 304 784 282 784 c 0
 260 784 246 777 232 770 c 0
 228 768 224 767 220 767 c 0
 209 767 199 773 190 784 c 0
 185 790 183 797 183 803 c 0
 183 812 187 821 195 829 c 1
 224 852 257 870 298 870 c 0xdc
 336 870 357 861 376 854 c 0
 390 848 402 843 421 843 c 0
 443 843 458 848 475 858 c 0xec
586 702 m 2xdc
 628 702 646 691 646 670 c 2
 646 234 l 2
 646 80 539 -8 356 -8 c 0
 173 -8 66 80 66 234 c 2
 66 670 l 2
 66 691 84 702 126 702 c 2
 160 702 l 2
 202 702 220 691 220 670 c 2
 220 244 l 2
 220 174 275 123 356 123 c 0
 437 123 493 174 493 244 c 2
 493 670 l 2
 493 691 511 702 553 702 c 2
 586 702 l 2xdc
EndSplineSet
Position2: "'cpsp' Capital Spacing lookup 3 subtable" dx=5 dy=0 dh=10 dv=0
EndChar

StartChar: V
Encoding: 86 86 173
Width: 617
Flags: MW
HStem: -2 21G 682 20G<66 99 99 113.5 517 548 548 569>
VStem: 5 603<677.5 687>
LayerCount: 2
Fore
SplineSet
548 702 m 2
 590 702 608 694 608 680 c 0
 608 675 607 669 605 662 c 2
 389 19 l 2
 384 3 362 -2 333 -2 c 2
 281 -2 l 2
 252 -2 230 3 225 19 c 2
 9 662 l 2
 7 669 5 675 5 680 c 0
 5 694 24 702 66 702 c 2
 99 702 l 2
 128 702 151 695 158 673 c 2
 293 240 l 1
 304 205 l 1
 308 205 l 1
 319 240 l 1
 458 673 l 2
 465 694 488 702 517 702 c 2
 548 702 l 2
EndSplineSet
Position2: "'cpsp' Capital Spacing lookup 3 subtable" dx=5 dy=0 dh=10 dv=0
EndChar

StartChar: W
Encoding: 87 87 174
Width: 882
Flags: MW
HStem: -2 21G 682 20G<58 84 84 103.5 428 466 466 482 813 824 824 845.5>
VStem: -4 890<674 684>
LayerCount: 2
Fore
SplineSet
824 702 m 2
 867 702 886 692 886 676 c 0
 886 672 885 667 884 661 c 2
 721 19 l 2
 717 5 694 -2 666 -2 c 2
 593 -2 l 2
 565 -2 541 5 538 19 c 2
 456 365 l 1
 440 433 l 1
 423 365 l 1
 338 19 l 2
 334 5 311 -2 283 -2 c 2
 211 -2 l 2
 179 -2 159 5 156 19 c 2
 -2 661 l 2
 -4 667 -4 672 -4 676 c 0
 -4 692 15 702 58 702 c 2
 84 702 l 2
 123 702 146 692 151 671 c 2
 226 349 l 2
 234 315 245 261 257 205 c 1
 266 261 282 315 291 349 c 2
 373 681 l 2
 377 697 396 702 428 702 c 2
 466 702 l 2
 498 702 517 697 521 681 c 2
 600 349 l 2
 609 311 622 254 634 198 c 1
 647 253 659 311 668 349 c 2
 746 671 l 2
 751 692 774 702 813 702 c 2
 824 702 l 2
EndSplineSet
Position2: "'cpsp' Capital Spacing lookup 3 subtable" dx=5 dy=0 dh=10 dv=0
EndChar

StartChar: Wacute
Encoding: 7810 7810 175
Width: 882
Flags: MW
HStem: -2 21G 682 20G<58 84 84 103.5 428 466 466 482 813 824 824 845.5> 752 159<390 541>
VStem: -4 890<674 684>
LayerCount: 2
Fore
SplineSet
521 911 m 0
 561 911 581 908 581 897 c 0
 581 885 574 883 477 777 c 0
 466 765 449 752 402 752 c 0
 378 752 371 756 371 767 c 0
 371 778 390 803 436 884 c 0
 448 905 481 911 521 911 c 0
824 702 m 2
 867 702 886 692 886 676 c 0
 886 672 885 667 884 661 c 2
 721 19 l 2
 717 5 694 -2 666 -2 c 2
 593 -2 l 2
 565 -2 541 5 538 19 c 2
 456 365 l 1
 440 433 l 1
 423 365 l 1
 338 19 l 2
 334 5 311 -2 283 -2 c 2
 211 -2 l 2
 179 -2 159 5 156 19 c 2
 -2 661 l 2
 -4 667 -4 672 -4 676 c 0
 -4 692 15 702 58 702 c 2
 84 702 l 2
 123 702 146 692 151 671 c 2
 226 349 l 2
 234 315 245 261 257 205 c 1
 266 261 282 315 291 349 c 2
 373 681 l 2
 377 697 396 702 428 702 c 2
 466 702 l 2
 498 702 517 697 521 681 c 2
 600 349 l 2
 609 311 622 254 634 198 c 1
 647 253 659 311 668 349 c 2
 746 671 l 2
 751 692 774 702 813 702 c 2
 824 702 l 2
EndSplineSet
Position2: "'cpsp' Capital Spacing lookup 3 subtable" dx=5 dy=0 dh=10 dv=0
EndChar

StartChar: Wcircumflex
Encoding: 372 372 176
Width: 882
Flags: MW
HStem: -2 21G 682 20G<58 84 84 103.5 428 466 466 482 813 824 824 845.5> 749 146<317 447 324 447 436 537 436 559>
VStem: -4 890<674 684>
LayerCount: 2
Fore
SplineSet
447 895 m 2
 476 895 497 894 508 876 c 2
 573 774 l 2
 577 768 579 763 579 759 c 0
 579 752 572 749 559 749 c 2
 537 749 l 2
 508 749 482 754 469 773 c 2
 441 813 l 1
 413 774 l 2
 398 753 375 749 346 749 c 2
 324 749 l 2
 310 749 304 752 304 759 c 0
 304 763 306 768 310 774 c 2
 375 876 l 2
 386 894 407 895 436 895 c 2
 447 895 l 2
824 702 m 2
 867 702 886 692 886 676 c 0
 886 672 885 667 884 661 c 2
 721 19 l 2
 717 5 694 -2 666 -2 c 2
 593 -2 l 2
 565 -2 541 5 538 19 c 2
 456 365 l 1
 440 433 l 1
 423 365 l 1
 338 19 l 2
 334 5 311 -2 283 -2 c 2
 211 -2 l 2
 179 -2 159 5 156 19 c 2
 -2 661 l 2
 -4 667 -4 672 -4 676 c 0
 -4 692 15 702 58 702 c 2
 84 702 l 2
 123 702 146 692 151 671 c 2
 226 349 l 2
 234 315 245 261 257 205 c 1
 266 261 282 315 291 349 c 2
 373 681 l 2
 377 697 396 702 428 702 c 2
 466 702 l 2
 498 702 517 697 521 681 c 2
 600 349 l 2
 609 311 622 254 634 198 c 1
 647 253 659 311 668 349 c 2
 746 671 l 2
 751 692 774 702 813 702 c 2
 824 702 l 2
EndSplineSet
Position2: "'cpsp' Capital Spacing lookup 3 subtable" dx=5 dy=0 dh=10 dv=0
EndChar

StartChar: Wdieresis
Encoding: 7812 7812 177
Width: 882
Flags: MW
HStem: -2 21G 682 20G<58 84 84 103.5 428 466 466 482 813 824 824 845.5> 755 124<330 372 510 552>
VStem: 291 120<787 847 776.5 857.5> 471 120<787 847 776.5 857.5>
LayerCount: 2
Fore
SplineSet
291 847 m 2
 291 868 309 879 351 879 c 0
 393 879 411 868 411 847 c 2
 411 787 l 2
 411 766 393 755 351 755 c 0
 309 755 291 766 291 787 c 2
 291 847 l 2
471 847 m 2
 471 868 489 879 531 879 c 0
 573 879 591 868 591 847 c 2
 591 787 l 2
 591 766 573 755 531 755 c 0
 489 755 471 766 471 787 c 2
 471 847 l 2
824 702 m 2
 867 702 886 692 886 676 c 0
 886 672 885 667 884 661 c 2
 721 19 l 2
 717 5 694 -2 666 -2 c 2
 593 -2 l 2
 565 -2 541 5 538 19 c 2
 456 365 l 1
 440 433 l 1
 423 365 l 1
 338 19 l 2
 334 5 311 -2 283 -2 c 2
 211 -2 l 2
 179 -2 159 5 156 19 c 2
 -2 661 l 2
 -4 667 -4 672 -4 676 c 0
 -4 692 15 702 58 702 c 2
 84 702 l 2
 123 702 146 692 151 671 c 2
 226 349 l 2
 234 315 245 261 257 205 c 1
 266 261 282 315 291 349 c 2
 373 681 l 2
 377 697 396 702 428 702 c 2
 466 702 l 2
 498 702 517 697 521 681 c 2
 600 349 l 2
 609 311 622 254 634 198 c 1
 647 253 659 311 668 349 c 2
 746 671 l 2
 751 692 774 702 813 702 c 2
 824 702 l 2
EndSplineSet
Position2: "'cpsp' Capital Spacing lookup 3 subtable" dx=5 dy=0 dh=10 dv=0
EndChar

StartChar: Wgrave
Encoding: 7808 7808 178
Width: 882
Flags: MW
HStem: -2 21G 682 20G<58 84 84 103.5 428 466 466 482 813 824 824 845.5> 752 159<347 498>
VStem: -4 890<674 684>
LayerCount: 2
Fore
SplineSet
367 911 m 0
 407 911 440 905 452 884 c 0
 498 803 517 778 517 767 c 0
 517 756 510 752 486 752 c 0
 439 752 422 765 411 777 c 0
 314 883 307 885 307 897 c 0
 307 908 327 911 367 911 c 0
824 702 m 2
 867 702 886 692 886 676 c 0
 886 672 885 667 884 661 c 2
 721 19 l 2
 717 5 694 -2 666 -2 c 2
 593 -2 l 2
 565 -2 541 5 538 19 c 2
 456 365 l 1
 440 433 l 1
 423 365 l 1
 338 19 l 2
 334 5 311 -2 283 -2 c 2
 211 -2 l 2
 179 -2 159 5 156 19 c 2
 -2 661 l 2
 -4 667 -4 672 -4 676 c 0
 -4 692 15 702 58 702 c 2
 84 702 l 2
 123 702 146 692 151 671 c 2
 226 349 l 2
 234 315 245 261 257 205 c 1
 266 261 282 315 291 349 c 2
 373 681 l 2
 377 697 396 702 428 702 c 2
 466 702 l 2
 498 702 517 697 521 681 c 2
 600 349 l 2
 609 311 622 254 634 198 c 1
 647 253 659 311 668 349 c 2
 746 671 l 2
 751 692 774 702 813 702 c 2
 824 702 l 2
EndSplineSet
Position2: "'cpsp' Capital Spacing lookup 3 subtable" dx=5 dy=0 dh=10 dv=0
EndChar

StartChar: X
Encoding: 88 88 179
Width: 611
Flags: MW
HStem: -2 21G<49 71 71 109 486.5 501 501 540> 682 20G<95 136 136 150.5 491 530 530 551.5>
VStem: 8 595<11 20>
LayerCount: 2
Fore
SplineSet
530 702 m 2
 573 702 593 695 593 683 c 0
 593 677 590 668 583 658 c 2
 394 363 l 1
 594 42 l 2
 600 32 603 24 603 17 c 0
 603 5 584 -2 540 -2 c 2
 501 -2 l 2
 472 -2 450 2 441 17 c 2
 308 232 l 1
 170 17 l 2
 158 -1 138 -2 109 -2 c 2
 71 -2 l 2
 27 -2 8 5 8 17 c 0
 8 23 11 31 18 42 c 2
 224 365 l 1
 41 658 l 2
 35 668 31 676 31 683 c 0
 31 694 51 702 95 702 c 2
 136 702 l 2
 165 702 187 698 196 683 c 2
 310 497 l 1
 430 683 l 2
 441 700 462 702 491 702 c 2
 530 702 l 2
EndSplineSet
Position2: "'cpsp' Capital Spacing lookup 3 subtable" dx=5 dy=0 dh=10 dv=0
EndChar

StartChar: Y
Encoding: 89 89 180
Width: 559
Flags: MW
HStem: -2 21G<242 263 263 297> 682 20G<58 101 101 115.5 466 502 502 524>
VStem: 203 154<30 333>
LayerCount: 2
Fore
SplineSet
502 702 m 2
 546 702 565 694 565 682 c 0
 565 676 562 667 556 657 c 2
 357 333 l 1
 357 30 l 2
 357 9 339 -2 297 -2 c 2
 263 -2 l 2
 221 -2 203 9 203 30 c 2
 203 336 l 1
 4 657 l 2
 -2 667 -6 676 -6 682 c 0
 -6 694 14 702 58 702 c 2
 101 702 l 2
 130 702 152 698 161 683 c 2
 283 469 l 1
 406 683 l 2
 415 698 437 702 466 702 c 2
 502 702 l 2
EndSplineSet
Substitution2: "'ss01' Style Set 1 lookup 18 subtable" Y.loclGUA
Substitution2: "'salt' Stylistic Alternatives lookup 17 subtable" Y.loclGUA
Substitution2: "'aalt' Access All Alternates lookup 0 subtable" Y.loclGUA
Position2: "'cpsp' Capital Spacing lookup 3 subtable" dx=5 dy=0 dh=10 dv=0
EndChar

StartChar: Yacute
Encoding: 221 221 181
Width: 559
Flags: MW
HStem: -2 21G<242 263 263 297> 682 20G<58 101 101 115.5 466 502 502 524> 752 159<229 380>
VStem: 203 154<30 333>
LayerCount: 2
Fore
SplineSet
360 911 m 0
 400 911 420 908 420 897 c 0
 420 885 413 883 316 777 c 0
 305 765 288 752 241 752 c 0
 217 752 210 756 210 767 c 0
 210 778 229 803 275 884 c 0
 287 905 320 911 360 911 c 0
502 702 m 2
 546 702 565 694 565 682 c 0
 565 676 562 667 556 657 c 2
 357 333 l 1
 357 30 l 2
 357 9 339 -2 297 -2 c 2
 263 -2 l 2
 221 -2 203 9 203 30 c 2
 203 336 l 1
 4 657 l 2
 -2 667 -6 676 -6 682 c 0
 -6 694 14 702 58 702 c 2
 101 702 l 2
 130 702 152 698 161 683 c 2
 283 469 l 1
 406 683 l 2
 415 698 437 702 466 702 c 2
 502 702 l 2
EndSplineSet
Substitution2: "'ss01' Style Set 1 lookup 18 subtable" Yacute.loclGUA
Substitution2: "'salt' Stylistic Alternatives lookup 17 subtable" Yacute.loclGUA
Substitution2: "'aalt' Access All Alternates lookup 0 subtable" Yacute.loclGUA
Position2: "'cpsp' Capital Spacing lookup 3 subtable" dx=5 dy=0 dh=10 dv=0
EndChar

StartChar: Ycircumflex
Encoding: 374 374 182
Width: 559
Flags: MW
HStem: -2 21G<242 263 263 297> 682 20G<58 101 101 115.5 466 502 502 524> 749 146<156 286 163 286 275 376 275 398>
VStem: 203 154<30 333>
LayerCount: 2
Fore
SplineSet
286 895 m 2
 315 895 336 894 347 876 c 2
 412 774 l 2
 416 768 418 763 418 759 c 0
 418 752 411 749 398 749 c 2
 376 749 l 2
 347 749 321 754 308 773 c 2
 280 813 l 1
 252 774 l 2
 237 753 214 749 185 749 c 2
 163 749 l 2
 149 749 143 752 143 759 c 0
 143 763 145 768 149 774 c 2
 214 876 l 2
 225 894 246 895 275 895 c 2
 286 895 l 2
502 702 m 2
 546 702 565 694 565 682 c 0
 565 676 562 667 556 657 c 2
 357 333 l 1
 357 30 l 2
 357 9 339 -2 297 -2 c 2
 263 -2 l 2
 221 -2 203 9 203 30 c 2
 203 336 l 1
 4 657 l 2
 -2 667 -6 676 -6 682 c 0
 -6 694 14 702 58 702 c 2
 101 702 l 2
 130 702 152 698 161 683 c 2
 283 469 l 1
 406 683 l 2
 415 698 437 702 466 702 c 2
 502 702 l 2
EndSplineSet
Substitution2: "'ss01' Style Set 1 lookup 18 subtable" Ycircumflex.loclGUA
Substitution2: "'salt' Stylistic Alternatives lookup 17 subtable" Ycircumflex.loclGUA
Substitution2: "'aalt' Access All Alternates lookup 0 subtable" Ycircumflex.loclGUA
Position2: "'cpsp' Capital Spacing lookup 3 subtable" dx=5 dy=0 dh=10 dv=0
EndChar

StartChar: Ydieresis
Encoding: 376 376 183
Width: 559
Flags: MW
HStem: -2 21G<242 263 263 297> 682 20G<58 101 101 115.5 466 502 502 524> 755 124<169 211 349 391>
VStem: 130 120<787 847 776.5 857.5> 203 154<30 333> 310 120<787 847 776.5 857.5>
LayerCount: 2
Fore
SplineSet
130 847 m 2xf4
 130 868 148 879 190 879 c 0
 232 879 250 868 250 847 c 2
 250 787 l 2
 250 766 232 755 190 755 c 0
 148 755 130 766 130 787 c 2
 130 847 l 2xf4
310 847 m 2
 310 868 328 879 370 879 c 0
 412 879 430 868 430 847 c 2
 430 787 l 2
 430 766 412 755 370 755 c 0
 328 755 310 766 310 787 c 2
 310 847 l 2
502 702 m 2
 546 702 565 694 565 682 c 0
 565 676 562 667 556 657 c 2
 357 333 l 1
 357 30 l 2
 357 9 339 -2 297 -2 c 2
 263 -2 l 2
 221 -2 203 9 203 30 c 2
 203 336 l 1xe8
 4 657 l 2
 -2 667 -6 676 -6 682 c 0
 -6 694 14 702 58 702 c 2
 101 702 l 2
 130 702 152 698 161 683 c 2
 283 469 l 1
 406 683 l 2
 415 698 437 702 466 702 c 2
 502 702 l 2
EndSplineSet
Substitution2: "'ss01' Style Set 1 lookup 18 subtable" Ydieresis.loclGUA
Substitution2: "'salt' Stylistic Alternatives lookup 17 subtable" Ydieresis.loclGUA
Substitution2: "'aalt' Access All Alternates lookup 0 subtable" Ydieresis.loclGUA
Position2: "'cpsp' Capital Spacing lookup 3 subtable" dx=5 dy=0 dh=10 dv=0
EndChar

StartChar: Ydotbelow
Encoding: 7924 7924 184
Width: 559
Flags: MW
HStem: -204 124<263 305> -2 21G<242 263 263 297> 682 20G<58 101 101 115.5 466 502 502 524>
VStem: 203 154<30 333> 224 120<-172 -112 -182.5 -101.5>
LayerCount: 2
Fore
SplineSet
502 702 m 2xf0
 546 702 565 694 565 682 c 0
 565 676 562 667 556 657 c 2
 357 333 l 1
 357 30 l 2
 357 9 339 -2 297 -2 c 2
 263 -2 l 2
 221 -2 203 9 203 30 c 2
 203 336 l 1
 4 657 l 2
 -2 667 -6 676 -6 682 c 0
 -6 694 14 702 58 702 c 2
 101 702 l 2
 130 702 152 698 161 683 c 2
 283 469 l 1
 406 683 l 2
 415 698 437 702 466 702 c 2
 502 702 l 2xf0
224 -112 m 2xe8
 224 -91 242 -80 284 -80 c 0
 326 -80 344 -91 344 -112 c 2
 344 -172 l 2
 344 -193 326 -204 284 -204 c 0
 242 -204 224 -193 224 -172 c 2
 224 -112 l 2xe8
EndSplineSet
Substitution2: "'ss01' Style Set 1 lookup 18 subtable" Ydotbelow.loclGUA
Substitution2: "'salt' Stylistic Alternatives lookup 17 subtable" Ydotbelow.loclGUA
Substitution2: "'aalt' Access All Alternates lookup 0 subtable" Ydotbelow.loclGUA
Position2: "'cpsp' Capital Spacing lookup 3 subtable" dx=5 dy=0 dh=10 dv=0
EndChar

StartChar: Ygrave
Encoding: 7922 7922 185
Width: 559
Flags: MW
HStem: -2 21G<242 263 263 297> 682 20G<58 101 101 115.5 466 502 502 524> 752 159<186 337>
VStem: 203 154<30 333>
LayerCount: 2
Fore
SplineSet
206 911 m 0
 246 911 279 905 291 884 c 0
 337 803 356 778 356 767 c 0
 356 756 349 752 325 752 c 0
 278 752 261 765 250 777 c 0
 153 883 146 885 146 897 c 0
 146 908 166 911 206 911 c 0
502 702 m 2
 546 702 565 694 565 682 c 0
 565 676 562 667 556 657 c 2
 357 333 l 1
 357 30 l 2
 357 9 339 -2 297 -2 c 2
 263 -2 l 2
 221 -2 203 9 203 30 c 2
 203 336 l 1
 4 657 l 2
 -2 667 -6 676 -6 682 c 0
 -6 694 14 702 58 702 c 2
 101 702 l 2
 130 702 152 698 161 683 c 2
 283 469 l 1
 406 683 l 2
 415 698 437 702 466 702 c 2
 502 702 l 2
EndSplineSet
Substitution2: "'ss01' Style Set 1 lookup 18 subtable" Ygrave.loclGUA
Substitution2: "'salt' Stylistic Alternatives lookup 17 subtable" Ygrave.loclGUA
Substitution2: "'aalt' Access All Alternates lookup 0 subtable" Ygrave.loclGUA
Position2: "'cpsp' Capital Spacing lookup 3 subtable" dx=5 dy=0 dh=10 dv=0
EndChar

StartChar: Yhookabove
Encoding: 7926 7926 186
Width: 559
Flags: MW
HStem: -2 21G<242 263 263 297> 682 20G<58 101 101 115.5 466 502 502 524> 867 61<275.5 293>
VStem: 203 154<30 333> 317 87<830 852>
LayerCount: 2
Fore
SplineSet
317 845 m 0xe8
 317 859 301 867 285 867 c 0
 263 867 252 855 243 855 c 0
 235 855 213 882 213 897 c 0
 213 910 258 928 293 928 c 0
 365 928 404 898 404 849 c 0
 404 796 322 747 304 747 c 0
 280 747 250 762 250 770 c 0
 250 787 317 815 317 845 c 0xe8
502 702 m 2
 546 702 565 694 565 682 c 0
 565 676 562 667 556 657 c 2
 357 333 l 1
 357 30 l 2
 357 9 339 -2 297 -2 c 2
 263 -2 l 2
 221 -2 203 9 203 30 c 2
 203 336 l 1xf0
 4 657 l 2
 -2 667 -6 676 -6 682 c 0
 -6 694 14 702 58 702 c 2
 101 702 l 2
 130 702 152 698 161 683 c 2
 283 469 l 1
 406 683 l 2
 415 698 437 702 466 702 c 2
 502 702 l 2
EndSplineSet
Substitution2: "'ss01' Style Set 1 lookup 18 subtable" Yhookabove.loclGUA
Substitution2: "'salt' Stylistic Alternatives lookup 17 subtable" Yhookabove.loclGUA
Substitution2: "'aalt' Access All Alternates lookup 0 subtable" Yhookabove.loclGUA
Position2: "'cpsp' Capital Spacing lookup 3 subtable" dx=5 dy=0 dh=10 dv=0
EndChar

StartChar: Ytilde
Encoding: 7928 7928 187
Width: 559
Flags: MW
HStem: -2 21G<242 263 263 297> 682 20G<58 101 101 115.5 466 502 502 524> 757 86<335.5 349.5> 784 86<201.5 217>
VStem: 203 154<30 333>
LayerCount: 2
Fore
SplineSet
399 858 m 0xe8
 405 862 412 864 418 864 c 0
 426 864 435 861 443 852 c 0
 449 845 452 839 452 832 c 0
 452 823 447 812 435 798 c 1
 410 773 370 757 329 757 c 0xe8
 294 757 276 765 257 773 c 0
 243 779 228 784 206 784 c 0
 184 784 170 777 156 770 c 0
 152 768 148 767 144 767 c 0
 133 767 123 773 114 784 c 0
 109 790 107 797 107 803 c 0
 107 812 111 821 119 829 c 1
 148 852 181 870 222 870 c 0xd8
 260 870 281 861 300 854 c 0
 314 848 326 843 345 843 c 0
 367 843 382 848 399 858 c 0xe8
502 702 m 2xd8
 546 702 565 694 565 682 c 0
 565 676 562 667 556 657 c 2
 357 333 l 1
 357 30 l 2
 357 9 339 -2 297 -2 c 2
 263 -2 l 2
 221 -2 203 9 203 30 c 2
 203 336 l 1
 4 657 l 2
 -2 667 -6 676 -6 682 c 0
 -6 694 14 702 58 702 c 2
 101 702 l 2
 130 702 152 698 161 683 c 2
 283 469 l 1
 406 683 l 2
 415 698 437 702 466 702 c 2
 502 702 l 2xd8
EndSplineSet
Substitution2: "'ss01' Style Set 1 lookup 18 subtable" Ytilde.loclGUA
Substitution2: "'salt' Stylistic Alternatives lookup 17 subtable" Ytilde.loclGUA
Substitution2: "'aalt' Access All Alternates lookup 0 subtable" Ytilde.loclGUA
Position2: "'cpsp' Capital Spacing lookup 3 subtable" dx=5 dy=0 dh=10 dv=0
EndChar

StartChar: Z
Encoding: 90 90 188
Width: 616
Flags: MW
HStem: 0 131<245 550 245 550> 569 131<75.5 543 86 364>
VStem: 27 553<75.5 81 32.5 91>
LayerCount: 2
Fore
SplineSet
543 700 m 2
 559 700 580 634 580 608 c 0
 580 604 580 602 579 600 c 2
 245 131 l 1
 550 131 l 2
 571 131 580 116 580 81 c 2
 580 50 l 2
 580 15 571 0 550 0 c 2
 66 0 l 2
 49 0 27 62 27 89 c 0
 27 93 28 97 29 99 c 2
 364 569 l 1
 86 569 l 2
 65 569 56 584 56 619 c 2
 56 650 l 2
 56 685 65 700 86 700 c 2
 543 700 l 2
EndSplineSet
Position2: "'cpsp' Capital Spacing lookup 3 subtable" dx=5 dy=0 dh=10 dv=0
EndChar

StartChar: Zacute
Encoding: 377 377 189
Width: 616
Flags: MW
HStem: 0 131<245 550 245 550> 569 131<75.5 543 86 364> 752 159<257 408>
VStem: 27 553<75.5 81 32.5 91>
LayerCount: 2
Fore
SplineSet
388 911 m 0
 428 911 448 908 448 897 c 0
 448 885 441 883 344 777 c 0
 333 765 316 752 269 752 c 0
 245 752 238 756 238 767 c 0
 238 778 257 803 303 884 c 0
 315 905 348 911 388 911 c 0
543 700 m 2
 559 700 580 634 580 608 c 0
 580 604 580 602 579 600 c 2
 245 131 l 1
 550 131 l 2
 571 131 580 116 580 81 c 2
 580 50 l 2
 580 15 571 0 550 0 c 2
 66 0 l 2
 49 0 27 62 27 89 c 0
 27 93 28 97 29 99 c 2
 364 569 l 1
 86 569 l 2
 65 569 56 584 56 619 c 2
 56 650 l 2
 56 685 65 700 86 700 c 2
 543 700 l 2
EndSplineSet
Substitution2: "'locl' Localized Forms in Latin lookup 12 subtable" Zacute.loclPLK
Substitution2: "'aalt' Access All Alternates lookup 0 subtable" Zacute.loclPLK
Position2: "'cpsp' Capital Spacing lookup 3 subtable" dx=5 dy=0 dh=10 dv=0
EndChar

StartChar: Zcaron
Encoding: 381 381 190
Width: 616
Flags: MW
HStem: 0 131<245 550 245 550> 569 131<75.5 543 86 364> 749 146<191 303 191 314>
VStem: 27 553<75.5 81 32.5 91>
LayerCount: 2
Fore
SplineSet
426 895 m 2
 439 895 446 892 446 885 c 0
 446 881 444 876 440 870 c 2
 375 768 l 2
 364 750 343 749 314 749 c 2
 303 749 l 2
 274 749 253 750 242 768 c 2
 177 870 l 2
 173 876 171 881 171 885 c 0
 171 892 177 895 191 895 c 2
 213 895 l 2
 242 895 265 891 280 870 c 2
 308 831 l 1
 336 871 l 2
 349 890 375 895 404 895 c 2
 426 895 l 2
543 700 m 2
 559 700 580 634 580 608 c 0
 580 604 580 602 579 600 c 2
 245 131 l 1
 550 131 l 2
 571 131 580 116 580 81 c 2
 580 50 l 2
 580 15 571 0 550 0 c 2
 66 0 l 2
 49 0 27 62 27 89 c 0
 27 93 28 97 29 99 c 2
 364 569 l 1
 86 569 l 2
 65 569 56 584 56 619 c 2
 56 650 l 2
 56 685 65 700 86 700 c 2
 543 700 l 2
EndSplineSet
Position2: "'cpsp' Capital Spacing lookup 3 subtable" dx=5 dy=0 dh=10 dv=0
EndChar

StartChar: Zdotaccent
Encoding: 379 379 191
Width: 616
Flags: MW
HStem: 0 131<245 550 245 550> 569 131<75.5 543 86 364> 755 124<287 329>
VStem: 248 120<787 847 776.5 857.5>
LayerCount: 2
Fore
SplineSet
248 847 m 2
 248 868 266 879 308 879 c 0
 350 879 368 868 368 847 c 2
 368 787 l 2
 368 766 350 755 308 755 c 0
 266 755 248 766 248 787 c 2
 248 847 l 2
543 700 m 2
 559 700 580 634 580 608 c 0
 580 604 580 602 579 600 c 2
 245 131 l 1
 550 131 l 2
 571 131 580 116 580 81 c 2
 580 50 l 2
 580 15 571 0 550 0 c 2
 66 0 l 2
 49 0 27 62 27 89 c 0
 27 93 28 97 29 99 c 2
 364 569 l 1
 86 569 l 2
 65 569 56 584 56 619 c 2
 56 650 l 2
 56 685 65 700 86 700 c 2
 543 700 l 2
EndSplineSet
Position2: "'cpsp' Capital Spacing lookup 3 subtable" dx=5 dy=0 dh=10 dv=0
EndChar

StartChar: Zdotbelow
Encoding: 7826 7826 192
Width: 616
Flags: MW
HStem: -204 124<280 322> 0 131<245 550 245 550> 569 131<75.5 543 86 364>
VStem: 241 120<-172 -112 -182.5 -101.5>
LayerCount: 2
Fore
SplineSet
543 700 m 2
 559 700 580 634 580 608 c 0
 580 604 580 602 579 600 c 2
 245 131 l 1
 550 131 l 2
 571 131 580 116 580 81 c 2
 580 50 l 2
 580 15 571 0 550 0 c 2
 66 0 l 2
 49 0 27 62 27 89 c 0
 27 93 28 97 29 99 c 2
 364 569 l 1
 86 569 l 2
 65 569 56 584 56 619 c 2
 56 650 l 2
 56 685 65 700 86 700 c 2
 543 700 l 2
241 -112 m 2
 241 -91 259 -80 301 -80 c 0
 343 -80 361 -91 361 -112 c 2
 361 -172 l 2
 361 -193 343 -204 301 -204 c 0
 259 -204 241 -193 241 -172 c 2
 241 -112 l 2
EndSplineSet
Position2: "'cpsp' Capital Spacing lookup 3 subtable" dx=5 dy=0 dh=10 dv=0
EndChar

StartChar: a
Encoding: 97 97 193
Width: 545
GlyphClass: 2
Flags: MW
HStem: -8 117<222.5 236> -1 21G<361 389.5> 227 97<281.5 329> 414 117<214.5 278.5>
VStem: 42 147<140.5 177 140.5 179> 329 148<172 176 176 227 227 227 324 357 357 364>
AnchorPoint: "Anchor-1" 310 0 basechar 0
AnchorPoint: "Anchor-0" 310 500 basechar 0
LayerCount: 2
Fore
SplineSet
329 357 m 2x7c
 329 395 306 414 251 414 c 0
 178 414 135 382 123 382 c 0
 102 382 71 441 71 462 c 0
 71 496 151 531 262 531 c 0
 420 531 477 461 477 364 c 2
 477 176 l 2
 477 73 489 52 489 31 c 0
 489 7 402 -1 377 -1 c 0x7c
 345 -1 343 41 337 68 c 1
 330 55 282 -8 190 -8 c 0xbc
 82 -8 42 56 42 138 c 0
 42 220 75 324 329 324 c 1
 329 357 l 2x7c
329 227 m 1
 234 227 189 201 189 153 c 0
 189 128 206 109 239 109 c 0
 277 109 313 136 329 172 c 1xbc
 329 227 l 1
EndSplineSet
Substitution2: "Single Substitution lookup 21 subtable" ordfeminine
Substitution2: "'aalt' Access All Alternates lookup 0 subtable" ordfeminine
EndChar

StartChar: aacute
Encoding: 225 225 194
Width: 545
Flags: MW
HStem: -8 117<222.5 236> -1 21G<361 389.5> 227 97<281.5 329> 414 117<214.5 278.5> 575 159<222 373>
VStem: 42 147<140.5 177 140.5 179> 329 148<172 176 176 227 227 227 324 357 357 364>
LayerCount: 2
Fore
SplineSet
353 734 m 0x7e
 393 734 413 731 413 720 c 0
 413 708 406 706 309 600 c 0
 298 588 281 575 234 575 c 0
 210 575 203 579 203 590 c 0
 203 601 222 626 268 707 c 0
 280 728 313 734 353 734 c 0x7e
329 357 m 2
 329 395 306 414 251 414 c 0
 178 414 135 382 123 382 c 0
 102 382 71 441 71 462 c 0
 71 496 151 531 262 531 c 0
 420 531 477 461 477 364 c 2
 477 176 l 2
 477 73 489 52 489 31 c 0
 489 7 402 -1 377 -1 c 0x7e
 345 -1 343 41 337 68 c 1
 330 55 282 -8 190 -8 c 0xbe
 82 -8 42 56 42 138 c 0
 42 220 75 324 329 324 c 1
 329 357 l 2
329 227 m 1
 234 227 189 201 189 153 c 0
 189 128 206 109 239 109 c 0
 277 109 313 136 329 172 c 1xbe
 329 227 l 1
EndSplineSet
EndChar

StartChar: abreve
Encoding: 259 259 195
Width: 545
Flags: MW
HStem: -8 117<222.5 236> -1 21G<361 389.5> 227 97<281.5 329> 414 117<214.5 278.5> 575 91<247.5 300 247.5 316.5>
VStem: 42 147<140.5 177 140.5 179> 329 148<172 176 176 227 227 227 324 357 357 364>
LayerCount: 2
Fore
SplineSet
385 715 m 0x7e
 407 715 420 705 420 687 c 0
 420 630 360 575 273 575 c 0
 186 575 126 630 126 687 c 0
 126 705 139 715 161 715 c 0
 178 715 185 707 194 697 c 0
 207 683 222 666 273 666 c 0
 327 666 341 685 354 699 c 0
 362 708 369 715 385 715 c 0x7e
329 357 m 2
 329 395 306 414 251 414 c 0
 178 414 135 382 123 382 c 0
 102 382 71 441 71 462 c 0
 71 496 151 531 262 531 c 0
 420 531 477 461 477 364 c 2
 477 176 l 2
 477 73 489 52 489 31 c 0
 489 7 402 -1 377 -1 c 0x7e
 345 -1 343 41 337 68 c 1
 330 55 282 -8 190 -8 c 0xbe
 82 -8 42 56 42 138 c 0
 42 220 75 324 329 324 c 1
 329 357 l 2
329 227 m 1
 234 227 189 201 189 153 c 0
 189 128 206 109 239 109 c 0
 277 109 313 136 329 172 c 1xbe
 329 227 l 1
EndSplineSet
EndChar

StartChar: abreveacute
Encoding: 7855 7855 196
Width: 545
Flags: MW
HStem: -8 117<222.5 236> -1 21G<361 389.5> 227 97<281.5 329> 414 117<214.5 278.5> 575 91<247.5 300 247.5 316.5> 738 159<222 373>
VStem: 42 147<140.5 177 140.5 179> 329 148<172 176 176 227 227 227 324 357 357 364>
LayerCount: 2
Fore
SplineSet
329 357 m 2x7b
 329 395 306 414 251 414 c 0
 178 414 135 382 123 382 c 0
 102 382 71 441 71 462 c 0
 71 496 151 531 262 531 c 0
 420 531 477 461 477 364 c 2
 477 176 l 2
 477 73 489 52 489 31 c 0
 489 7 402 -1 377 -1 c 0x7b
 345 -1 343 41 337 68 c 1
 330 55 282 -8 190 -8 c 0xbb
 82 -8 42 56 42 138 c 0
 42 220 75 324 329 324 c 1
 329 357 l 2x7b
329 227 m 1
 234 227 189 201 189 153 c 0
 189 128 206 109 239 109 c 0
 277 109 313 136 329 172 c 1xbb
 329 227 l 1
353 897 m 0x7f
 393 897 413 894 413 883 c 0
 413 871 406 869 309 763 c 0
 298 751 281 738 234 738 c 0
 210 738 203 742 203 753 c 0
 203 764 222 789 268 870 c 0
 280 891 313 897 353 897 c 0x7f
385 715 m 0
 407 715 420 705 420 687 c 0
 420 630 360 575 273 575 c 0
 186 575 126 630 126 687 c 0
 126 705 139 715 161 715 c 0
 178 715 185 707 194 697 c 0
 207 683 222 666 273 666 c 0
 327 666 341 685 354 699 c 0
 362 708 369 715 385 715 c 0
EndSplineSet
EndChar

StartChar: abrevedotbelow
Encoding: 7863 7863 197
Width: 545
Flags: MW
HStem: -204 124<254 296> -8 117<222.5 236> -1 21G<361 389.5> 227 97<281.5 329> 414 117<214.5 278.5> 575 91<247.5 300 247.5 316.5>
VStem: 42 147<140.5 177 140.5 179> 215 120<-172 -112 -182.5 -101.5> 329 148<172 176 176 227 227 227 324 357 357 364>
LayerCount: 2
Fore
SplineSet
329 357 m 2xbe80
 329 395 306 414 251 414 c 0
 178 414 135 382 123 382 c 0
 102 382 71 441 71 462 c 0
 71 496 151 531 262 531 c 0
 420 531 477 461 477 364 c 2
 477 176 l 2
 477 73 489 52 489 31 c 0
 489 7 402 -1 377 -1 c 0xbe80
 345 -1 343 41 337 68 c 1
 330 55 282 -8 190 -8 c 0xde80
 82 -8 42 56 42 138 c 0
 42 220 75 324 329 324 c 1
 329 357 l 2xbe80
329 227 m 1
 234 227 189 201 189 153 c 0
 189 128 206 109 239 109 c 0
 277 109 313 136 329 172 c 1xde80
 329 227 l 1
385 715 m 0
 407 715 420 705 420 687 c 0
 420 630 360 575 273 575 c 0
 186 575 126 630 126 687 c 0
 126 705 139 715 161 715 c 0
 178 715 185 707 194 697 c 0
 207 683 222 666 273 666 c 0
 327 666 341 685 354 699 c 0
 362 708 369 715 385 715 c 0
215 -112 m 2xbf
 215 -91 233 -80 275 -80 c 0
 317 -80 335 -91 335 -112 c 2
 335 -172 l 2
 335 -193 317 -204 275 -204 c 0
 233 -204 215 -193 215 -172 c 2
 215 -112 l 2xbf
EndSplineSet
EndChar

StartChar: abrevegrave
Encoding: 7857 7857 198
Width: 545
Flags: MW
HStem: -8 117<222.5 236> -1 21G<361 389.5> 227 97<281.5 329> 414 117<214.5 278.5> 575 91<247.5 300 247.5 316.5> 738 159<179 330>
VStem: 42 147<140.5 177 140.5 179> 329 148<172 176 176 227 227 227 324 357 357 364>
LayerCount: 2
Fore
SplineSet
329 357 m 2x7b
 329 395 306 414 251 414 c 0
 178 414 135 382 123 382 c 0
 102 382 71 441 71 462 c 0
 71 496 151 531 262 531 c 0
 420 531 477 461 477 364 c 2
 477 176 l 2
 477 73 489 52 489 31 c 0
 489 7 402 -1 377 -1 c 0x7b
 345 -1 343 41 337 68 c 1
 330 55 282 -8 190 -8 c 0xbb
 82 -8 42 56 42 138 c 0
 42 220 75 324 329 324 c 1
 329 357 l 2x7b
329 227 m 1
 234 227 189 201 189 153 c 0
 189 128 206 109 239 109 c 0
 277 109 313 136 329 172 c 1xbb
 329 227 l 1
199 897 m 0x7f
 239 897 272 891 284 870 c 0
 330 789 349 764 349 753 c 0
 349 742 342 738 318 738 c 0
 271 738 254 751 243 763 c 0
 146 869 139 871 139 883 c 0
 139 894 159 897 199 897 c 0x7f
385 715 m 0
 407 715 420 705 420 687 c 0
 420 630 360 575 273 575 c 0
 186 575 126 630 126 687 c 0
 126 705 139 715 161 715 c 0
 178 715 185 707 194 697 c 0
 207 683 222 666 273 666 c 0
 327 666 341 685 354 699 c 0
 362 708 369 715 385 715 c 0
EndSplineSet
EndChar

StartChar: abrevehookabove
Encoding: 7859 7859 199
Width: 545
Flags: MW
HStem: -8 117<222.5 236> -1 21G<361 389.5> 227 97<281.5 329> 414 117<214.5 278.5> 575 91<247.5 300 247.5 316.5> 853 61<268.5 286>
VStem: 42 147<140.5 177 140.5 179> 310 87<816 838> 329 148<172 176 176 227 227 227 324 357 357 364>
LayerCount: 2
Fore
SplineSet
329 357 m 2x7e80
 329 395 306 414 251 414 c 0
 178 414 135 382 123 382 c 0
 102 382 71 441 71 462 c 0
 71 496 151 531 262 531 c 0
 420 531 477 461 477 364 c 2
 477 176 l 2
 477 73 489 52 489 31 c 0
 489 7 402 -1 377 -1 c 0x7e80
 345 -1 343 41 337 68 c 1
 330 55 282 -8 190 -8 c 0xbe80
 82 -8 42 56 42 138 c 0
 42 220 75 324 329 324 c 1
 329 357 l 2x7e80
329 227 m 1
 234 227 189 201 189 153 c 0
 189 128 206 109 239 109 c 0
 277 109 313 136 329 172 c 1xbe80
 329 227 l 1
310 831 m 0x7f
 310 845 294 853 278 853 c 0
 256 853 245 841 236 841 c 0
 228 841 206 868 206 883 c 0
 206 896 251 914 286 914 c 0
 358 914 397 884 397 835 c 0
 397 782 315 733 297 733 c 0
 273 733 243 748 243 756 c 0
 243 773 310 801 310 831 c 0x7f
385 715 m 0
 407 715 420 705 420 687 c 0
 420 630 360 575 273 575 c 0
 186 575 126 630 126 687 c 0
 126 705 139 715 161 715 c 0
 178 715 185 707 194 697 c 0
 207 683 222 666 273 666 c 0
 327 666 341 685 354 699 c 0
 362 708 369 715 385 715 c 0
EndSplineSet
EndChar

StartChar: abrevetilde
Encoding: 7861 7861 200
Width: 545
Flags: MW
HStem: -8 117<222.5 236> -1 21G<361 389.5> 227 97<281.5 329> 414 117<214.5 278.5> 575 91<247.5 300 247.5 316.5> 756 86<326.5 339.5> 783 86<204.5 219>
VStem: 42 147<140.5 177 140.5 179> 329 148<172 176 176 227 227 227 324 357 357 364>
LayerCount: 2
Fore
SplineSet
329 357 m 2x7b80
 329 395 306 414 251 414 c 0
 178 414 135 382 123 382 c 0
 102 382 71 441 71 462 c 0
 71 496 151 531 262 531 c 0
 420 531 477 461 477 364 c 2
 477 176 l 2
 477 73 489 52 489 31 c 0
 489 7 402 -1 377 -1 c 0x7b80
 345 -1 343 41 337 68 c 1
 330 55 282 -8 190 -8 c 0xbb80
 82 -8 42 56 42 138 c 0
 42 220 75 324 329 324 c 1
 329 357 l 2x7b80
329 227 m 1
 234 227 189 201 189 153 c 0
 189 128 206 109 239 109 c 0
 277 109 313 136 329 172 c 1xbb80
 329 227 l 1
384 857 m 0x7d80
 389 861 396 863 402 863 c 0
 409 863 417 860 424 851 c 0
 429 844 432 838 432 831 c 0
 432 821 428 811 417 797 c 1
 394 772 358 756 321 756 c 0x7d80
 289 756 272 764 255 772 c 0
 242 778 229 783 209 783 c 0
 189 783 176 776 163 769 c 0
 160 767 156 766 152 766 c 0
 143 766 133 772 125 783 c 0
 121 789 119 795 119 802 c 0
 119 811 123 820 130 828 c 1
 156 851 186 869 223 869 c 0x7b80
 258 869 277 860 294 853 c 0
 307 847 318 842 335 842 c 0
 355 842 369 847 384 857 c 0x7d80
385 715 m 0x7b80
 407 715 420 705 420 687 c 0
 420 630 360 575 273 575 c 0
 186 575 126 630 126 687 c 0
 126 705 139 715 161 715 c 0
 178 715 185 707 194 697 c 0
 207 683 222 666 273 666 c 0
 327 666 341 685 354 699 c 0
 362 708 369 715 385 715 c 0x7b80
EndSplineSet
EndChar

StartChar: acircumflex
Encoding: 226 226 201
Width: 545
Flags: MW
HStem: -8 117<222.5 236> -1 21G<361 389.5> 227 97<281.5 329> 414 117<214.5 278.5> 572 146<149 279 156 279 268 369 268 391>
VStem: 42 147<140.5 177 140.5 179> 329 148<172 176 176 227 227 227 324 357 357 364>
LayerCount: 2
Fore
SplineSet
279 718 m 2x7e
 308 718 329 717 340 699 c 2
 405 597 l 2
 409 591 411 586 411 582 c 0
 411 575 404 572 391 572 c 2
 369 572 l 2
 340 572 314 577 301 596 c 2
 273 636 l 1
 245 597 l 2
 230 576 207 572 178 572 c 2
 156 572 l 2
 142 572 136 575 136 582 c 0
 136 586 138 591 142 597 c 2
 207 699 l 2
 218 717 239 718 268 718 c 2
 279 718 l 2x7e
329 357 m 2
 329 395 306 414 251 414 c 0
 178 414 135 382 123 382 c 0
 102 382 71 441 71 462 c 0
 71 496 151 531 262 531 c 0
 420 531 477 461 477 364 c 2
 477 176 l 2
 477 73 489 52 489 31 c 0
 489 7 402 -1 377 -1 c 0x7e
 345 -1 343 41 337 68 c 1
 330 55 282 -8 190 -8 c 0xbe
 82 -8 42 56 42 138 c 0
 42 220 75 324 329 324 c 1
 329 357 l 2
329 227 m 1
 234 227 189 201 189 153 c 0
 189 128 206 109 239 109 c 0
 277 109 313 136 329 172 c 1xbe
 329 227 l 1
EndSplineSet
EndChar

StartChar: acircumflexacute
Encoding: 7845 7845 202
Width: 545
Flags: MW
HStem: -8 117<222.5 236> -1 21G<361 389.5> 227 97<281.5 329> 414 117<214.5 278.5> 572 146<149 279 156 279 268 354 268 376> 704 159<356 507>
VStem: 42 147<140.5 177 140.5 179> 329 148<172 176 176 227 227 227 324 357 357 364>
LayerCount: 2
Fore
SplineSet
487 863 m 0x75
 527 863 547 860 547 849 c 0x75
 547 837 540 835 443 729 c 0
 432 717 415 704 368 704 c 0
 344 704 337 708 337 719 c 0x79
 337 730 356 755 402 836 c 0
 414 857 447 863 487 863 c 0x75
279 718 m 2xbb
 303 718 320 717 330 699 c 2
 390 597 l 2
 394 591 396 586 396 582 c 0
 396 575 389 572 376 572 c 2
 354 572 l 2
 325 572 293 575 286 596 c 2
 273 636 l 1
 245 597 l 2
 230 576 207 572 178 572 c 2
 156 572 l 2
 142 572 136 575 136 582 c 0
 136 586 138 591 142 597 c 2
 207 699 l 2
 218 717 239 718 268 718 c 2
 279 718 l 2xbb
329 357 m 2
 329 395 306 414 251 414 c 0
 178 414 135 382 123 382 c 0
 102 382 71 441 71 462 c 0
 71 496 151 531 262 531 c 0
 420 531 477 461 477 364 c 2
 477 176 l 2
 477 73 489 52 489 31 c 0
 489 7 402 -1 377 -1 c 0x79
 345 -1 343 41 337 68 c 1
 330 55 282 -8 190 -8 c 0
 82 -8 42 56 42 138 c 0
 42 220 75 324 329 324 c 1
 329 357 l 2
329 227 m 1
 234 227 189 201 189 153 c 0
 189 128 206 109 239 109 c 0
 277 109 313 136 329 172 c 1
 329 227 l 1
EndSplineSet
EndChar

StartChar: acircumflexdotbelow
Encoding: 7853 7853 203
Width: 545
Flags: MW
HStem: -204 124<254 296> -8 117<222.5 236> -1 21G<361 389.5> 227 97<281.5 329> 414 117<214.5 278.5> 572 146<149 279 156 279 268 369 268 391>
VStem: 42 147<140.5 177 140.5 179> 215 120<-172 -112 -182.5 -101.5> 329 148<172 176 176 227 227 227 324 357 357 364>
LayerCount: 2
Fore
SplineSet
329 357 m 2xbe80
 329 395 306 414 251 414 c 0
 178 414 135 382 123 382 c 0
 102 382 71 441 71 462 c 0
 71 496 151 531 262 531 c 0
 420 531 477 461 477 364 c 2
 477 176 l 2
 477 73 489 52 489 31 c 0
 489 7 402 -1 377 -1 c 0xbe80
 345 -1 343 41 337 68 c 1
 330 55 282 -8 190 -8 c 0xde80
 82 -8 42 56 42 138 c 0
 42 220 75 324 329 324 c 1
 329 357 l 2xbe80
329 227 m 1
 234 227 189 201 189 153 c 0
 189 128 206 109 239 109 c 0
 277 109 313 136 329 172 c 1xde80
 329 227 l 1
279 718 m 2
 308 718 329 717 340 699 c 2
 405 597 l 2
 409 591 411 586 411 582 c 0
 411 575 404 572 391 572 c 2
 369 572 l 2
 340 572 314 577 301 596 c 2
 273 636 l 1
 245 597 l 2
 230 576 207 572 178 572 c 2
 156 572 l 2
 142 572 136 575 136 582 c 0
 136 586 138 591 142 597 c 2
 207 699 l 2
 218 717 239 718 268 718 c 2
 279 718 l 2
215 -112 m 2xbf
 215 -91 233 -80 275 -80 c 0
 317 -80 335 -91 335 -112 c 2
 335 -172 l 2
 335 -193 317 -204 275 -204 c 0
 233 -204 215 -193 215 -172 c 2
 215 -112 l 2xbf
EndSplineSet
EndChar

StartChar: acircumflexgrave
Encoding: 7847 7847 204
Width: 545
Flags: MW
HStem: -8 117<222.5 236> -1 21G<361 389.5> 227 97<281.5 329> 414 117<214.5 278.5> 572 146<149 279 156 279 268 354 268 376> 704 159<313 464>
VStem: 42 147<140.5 177 140.5 179> 329 148<172 176 176 227 227 227 324 357 357 364>
LayerCount: 2
Fore
SplineSet
329 357 m 2x7b
 329 395 306 414 251 414 c 0
 178 414 135 382 123 382 c 0
 102 382 71 441 71 462 c 0
 71 496 151 531 262 531 c 0
 420 531 477 461 477 364 c 2
 477 176 l 2
 477 73 489 52 489 31 c 0
 489 7 402 -1 377 -1 c 0x7b
 345 -1 343 41 337 68 c 1
 330 55 282 -8 190 -8 c 0xbb
 82 -8 42 56 42 138 c 0
 42 220 75 324 329 324 c 1
 329 357 l 2x7b
329 227 m 1
 234 227 189 201 189 153 c 0
 189 128 206 109 239 109 c 0
 277 109 313 136 329 172 c 1xbb
 329 227 l 1
333 863 m 0x77
 373 863 406 857 418 836 c 0
 464 755 483 730 483 719 c 0
 483 708 476 704 452 704 c 0
 405 704 388 717 377 729 c 0
 280 835 273 837 273 849 c 0
 273 860 293 863 333 863 c 0x77
279 718 m 2x7b
 303 718 320 717 330 699 c 2
 390 597 l 2
 394 591 396 586 396 582 c 0
 396 575 389 572 376 572 c 2
 354 572 l 2
 325 572 293 575 286 596 c 2
 273 636 l 1
 245 597 l 2
 230 576 207 572 178 572 c 2
 156 572 l 2
 142 572 136 575 136 582 c 0
 136 586 138 591 142 597 c 2
 207 699 l 2
 218 717 239 718 268 718 c 2
 279 718 l 2x7b
EndSplineSet
EndChar

